{
copyright = "Creative Commons CC BY-SA 2012";
date = "2012-03-28 22:07:42 +0000";
familyName = "Splunk Icons";
fontMaster = (
{
alignmentZones = (
"{1536, 30}",
"{1460, 30}",
"{1082, 30}",
"{0, -31}",
"{-512, -31}"
);
ascender = 1536;
capHeight = 1460;
customParameters = (
{
name = "TypoAscender";
value = "1536";
},
{
name = "TypoDescender";
value = "-512";
},
{
name = "postscriptUnderlinePosition";
value = "-150";
}
);
descender = "-512";
guideLines = (
{
angle = 90;
position = "{73, 1580}";
},
{
angle = 90;
position = "{146, 1600}";
},
{
angle = 270;
position = "{219, 1600}";
},
{
angle = 90;
position = "{292, 1600}";
},
{
angle = 270;
position = "{365, 1600}";
},
{
angle = 90;
position = "{511, 1600}";
},
{
angle = 90;
position = "{584, 1600}";
},
{
angle = 90;
position = "{657, 1602}";
},
{
angle = 90;
position = "{803, 1600}";
},
{
angle = 180;
position = "{1606, 657}";
},
{
angle = 90;
position = "{730, -193}";
},
{
angle = 90;
position = "{876, 1600}";
},
{
angle = 90;
position = "{1168, 1600}";
},
{
angle = 90;
position = "{1241, 1600}";
},
{
angle = 90;
position = "{1314, 1600}";
},
{
angle = 90;
position = "{1460, 1600}";
},
{
angle = 90;
position = "{1387, 1600}";
},
{
angle = 180;
position = "{-100, 73}";
},
{
angle = 180;
position = "{-100, 146}";
},
{
angle = 180;
position = "{-100, 219}";
},
{
angle = 180;
position = "{-100, 365}";
},
{
angle = 180;
position = "{-100, 438}";
},
{
position = "{-100, 511}";
},
{
position = "{-100, 728}";
},
{
position = "{-100, 803}";
},
{
position = "{-100, 876}";
},
{
angle = 180;
position = "{-100, 949}";
},
{
angle = 180;
position = "{-100, 1022}";
},
{
angle = 180;
position = "{-100, 1095}";
},
{
angle = 180;
position = "{-100, 1168}";
},
{
angle = 180;
position = "{-100, 1241}";
},
{
position = "{-100, 1314}";
},
{
angle = 180;
position = "{-100, 1460}";
},
{
angle = 180;
position = "{-100, 1387}";
},
{
angle = 90;
position = "{0, 1600}";
},
{
angle = 90;
position = "{1095, 1600}";
},
{
angle = 180;

glyphs = (
{
color = 1;
glyphname = "I";
lastChange = "2013-04-11 08:31:38 -0800";
layers = (
{
anchors = (
{
name = "ogonek";
position = "{1387, 10}";
},
{
name = "top";
position = "{747, 1456}";
}
);
layerId = "ABCF47FB-41DD-418D-ADD0-B1CD0215F61B";
name = "Regular";
paths = (
{
closed = 1;
nodes = (
"944 1478 OFFCURVE",
"1131 1397 OFFCURVE",
"1268 1264 CURVE SMOOTH",
"1404 1131 OFFCURVE",
"1492 947 OFFCURVE",
"1492 739 CURVE SMOOTH",
"1495 531 OFFCURVE",
"1414 347 OFFCURVE",
"1281 210 CURVE SMOOTH",
"1148 74 OFFCURVE",
"963 -14 OFFCURVE",
"756 -17 CURVE SMOOTH",
"548 -20 OFFCURVE",
"364 61 OFFCURVE",
"227 194 CURVE SMOOTH",
"91 327 OFFCURVE",
"3 511 OFFCURVE",
"0 719 CURVE",
"0 927 OFFCURVE",
"81 1114 OFFCURVE",
"214 1251 CURVE SMOOTH",
"344 1387 OFFCURVE",
"528 1472 OFFCURVE",
"736 1475 CURVE SMOOTH"
);
},
{
closed = 1;
nodes = (
"724 1258 OFFCURVE",
"677 1181 OFFCURVE",
"677 1122 CURVE",
"672 1053 OFFCURVE",
"709 1017 OFFCURVE",
"795 1017 CURVE SMOOTH",
"894 1017 OFFCURVE",
"949 1082 OFFCURVE",
"949 1151 CURVE SMOOTH",
"949 1210 OFFCURVE",
"923 1258 OFFCURVE",
"838 1258 CURVE SMOOTH"
);
},
{
closed = 1;
nodes = (
"934 467 LINE",
"905 446 OFFCURVE",
"879 431 OFFCURVE",
"854 419 CURVE",
"828 409 OFFCURVE",
"812 402 OFFCURVE",
"802 402 CURVE SMOOTH",
"786 402 OFFCURVE",
"783 423 OFFCURVE",
"795 472 CURVE SMOOTH",
"872 762 LINE SMOOTH",
"886 817 OFFCURVE",
"889 859 OFFCURVE",
"886 891 CURVE SMOOTH",
"883 924 OFFCURVE",
"863 939 OFFCURVE",
"834 939 CURVE SMOOTH",
"766 939 OFFCURVE",
"599 868 OFFCURVE",
"455 751 CURVE",
"486 699 LINE",
"529 733 OFFCURVE",
"606 762 OFFCURVE",
"625 762 CURVE SMOOTH",
"636 762 OFFCURVE",
"636 740 OFFCURVE",
"625 699 CURVE SMOOTH",
"555 423 LINE SMOOTH",
"537 346 OFFCURVE",
"532 297 OFFCURVE",
"551 270 CURVE",
"566 244 OFFCURVE",
"589 229 OFFCURVE",
"618 229 CURVE SMOOTH",
"677 229 OFFCURVE",
"824 281 OFFCURVE",
"966 423 CURVE"
);
}
);
width = 1492;
}
);
unicode = 0049;
},
{
color = 4;
glyphname = "a";
lastChange = "2013-04-11 08:31:38 -0800";
layers = (
{
anchors = (
{
name = "ogonek";
position = "{938, 10}";
},
{
name = "top";
position = "{495, 1082}";
}
);
layerId = "ABCF47FB-41DD-418D-ADD0-B1CD0215F61B";
name = "Regular";
paths = (
{
closed = 1;
nodes = (
"1114 1091 LINE",
"884 304 LINE",
"861 209 LINE",
"858 196 OFFCURVE",
"857 188 OFFCURVE",
"857 183 CURVE SMOOTH",
"857 164 OFFCURVE",
"874 147 OFFCURVE",
"889 147 CURVE SMOOTH",
"904 147 OFFCURVE",
"927 160 OFFCURVE",
"957 185 CURVE SMOOTH",
"969 195 OFFCURVE",
"997 231 OFFCURVE",
"1042 293 CURVE",
"1084 272 LINE",
"971 68 OFFCURVE",
"846 -22 OFFCURVE",
"699 -22 CURVE SMOOTH",
"609 -22 OFFCURVE",
"561 29 OFFCURVE",
"561 100 CURVE SMOOTH",
"561 131 OFFCURVE",
"573 188 OFFCURVE",
"598 272 CURVE SMOOTH",
"626 368 LINE",
"536 211 OFFCURVE",
"447 99 OFFCURVE",
"362 34 CURVE SMOOTH",
"314 -3 OFFCURVE",
"262 -22 OFFCURVE",
"206 -22 CURVE SMOOTH",
"60 -22 OFFCURVE",
"0 118 OFFCURVE",
"0 268 CURVE SMOOTH",
"0 492 OFFCURVE",
"148 824 OFFCURVE",
"369 999 CURVE SMOOTH",
"460 1072 OFFCURVE",
"546 1108 OFFCURVE",
"625 1108 CURVE SMOOTH",
"714 1108 OFFCURVE",
"766 1065 OFFCURVE",
"791 929 CURVE",
"833 1076 LINE"
);
},
{
closed = 1;
nodes = (
"735 931 OFFCURVE",
"726 976 OFFCURVE",
"706 1006 CURVE SMOOTH",
"691 1026 OFFCURVE",
"672 1035 OFFCURVE",
"647 1035 CURVE SMOOTH",
"623 1035 OFFCURVE",
"598 1023 OFFCURVE",
"572 999 CURVE SMOOTH",
"467 901 OFFCURVE",
"309 531 OFFCURVE",
"309 314 CURVE SMOOTH",
"309 272 OFFCURVE",
"316 241 OFFCURVE",
"331 223 CURVE",
"343 204 OFFCURVE",
"359 195 OFFCURVE",
"376 195 CURVE SMOOTH",
"411 195 OFFCURVE",
"447 215 OFFCURVE",
"483 257 CURVE SMOOTH",
"588 374 OFFCURVE",
"735 636 OFFCURVE",
"735 867 CURVE SMOOTH"
);
}
);
width = 1114;
}
);
unicode = 0061;
},
{
color = 4;
glyphname = "i";
lastChange = "2013-04-11 08:31:38 -0800";
layers = (
{
layerId = "ABCF47FB-41DD-418D-ADD0-B1CD0215F61B";
name = "Regular";
paths = (
{
closed = 1;
nodes = (
"628 1477 OFFCURVE",
"677 1404 OFFCURVE",
"677 1329 CURVE SMOOTH",
"677 1225 OFFCURVE",
"597 1139 OFFCURVE",
"475 1139 CURVE SMOOTH",
"381 1139 OFFCURVE",
"323 1198 OFFCURVE",
"327 1287 CURVE",
"327 1373 OFFCURVE",
"395 1477 OFFCURVE",
"525 1477 CURVE SMOOTH"
);
},
{
closed = 1;
nodes = (
"176 -21 OFFCURVE",
"148 -3 OFFCURVE",
"126 28 CURVE SMOOTH",
"104 60 OFFCURVE",
"108 131 OFFCURVE",
"135 239 CURVE SMOOTH",
"225 620 LINE",
"242 678 OFFCURVE",
"242 709 OFFCURVE",
"225 709 CURVE SMOOTH",
"202 709 OFFCURVE",
"99 664 OFFCURVE",
"40 624 CURVE",
"0 692 LINE",
"193 853 OFFCURVE",
"409 951 OFFCURVE",
"512 951 CURVE SMOOTH",
"552 951 OFFCURVE",
"574 929 OFFCURVE",
"583 885 CURVE",
"588 840 OFFCURVE",
"583 781 OFFCURVE",
"561 709 CURVE",
"458 306 LINE SMOOTH",
"449 270 OFFCURVE",
"444 248 OFFCURVE",
"449 234 CURVE SMOOTH",
"453 220 OFFCURVE",
"458 212 OFFCURVE",
"466 212 CURVE SMOOTH",
"480 212 OFFCURVE",
"503 220 OFFCURVE",
"534 234 CURVE SMOOTH",
"565 248 OFFCURVE",
"606 270 OFFCURVE",
"646 302 CURVE",
"691 239 LINE",
"498 46 OFFCURVE",
"301 -21 OFFCURVE",
"216 -21 CURVE SMOOTH"
);
}
);
width = 691;
}
);
unicode = 0069;
},
{
color = 4;
glyphname = "k";
lastChange = "2013-03-11 12:41:56 -0800";
layers = (
{
hints = (
{
horizontal = 1;
place = "{0.000000, -30.000000}";
},
{
horizontal = 1;
place = "{1082.000000, 30.000000}";
}
);
layerId = "ABCF47FB-41DD-418D-ADD0-B1CD0215F61B";
name = "Regular";
paths = (
{
closed = 1;
nodes = (
"388 576 LINE",
"388 0 LINE",
"100 0 LINE",
"100 1589 LINE",
"388 1589 LINE",
"388 657 LINE",
"419 657 LINE",
"801 1100 LINE",
"1019 1006 LINE",
"650 613 LINE",
"1085 72 LINE",
"818 -22 LINE"
);
},
{
closed = 1;
nodes = (
"1433 1364 OFFCURVE",
"1475 1320 OFFCURVE",
"1475 1266 CURVE SMOOTH",
"1475 1211 OFFCURVE",
"1433 1169 OFFCURVE",
"1379 1169 CURVE SMOOTH",
"1326 1169 OFFCURVE",
"1283 1211 OFFCURVE",
"1283 1266 CURVE SMOOTH",
"1283 1320 OFFCURVE",
"1326 1364 OFFCURVE",
"1379 1364 CURVE SMOOTH"
);
},
{
closed = 1;
nodes = (
"1337 1348 OFFCURVE",
"1302 1312 OFFCURVE",
"1302 1266 CURVE SMOOTH",
"1302 1220 OFFCURVE",
"1337 1184 OFFCURVE",
"1380 1184 CURVE SMOOTH",
"1423 1183 OFFCURVE",
"1458 1220 OFFCURVE",
"1458 1266 CURVE SMOOTH",
"1458 1312 OFFCURVE",
"1423 1348 OFFCURVE",
"1380 1348 CURVE SMOOTH"
);
},
{
closed = 1;
nodes = (
"1344 1210 LINE",
"1344 1318 LINE",
"1353 1319 OFFCURVE",
"1362 1321 OFFCURVE",
"1375 1321 CURVE SMOOTH",
"1391 1321 OFFCURVE",
"1402 1317 OFFCURVE",
"1408 1313 CURVE SMOOTH",
"1415 1308 OFFCURVE",
"1418 1300 OFFCURVE",
"1418 1290 CURVE SMOOTH",
"1418 1276 OFFCURVE",
"1409 1267 OFFCURVE",
"1397 1264 CURVE",
"1397 1263 LINE",
"1407 1261 OFFCURVE",
"1413 1252 OFFCURVE",
"1415 1237 CURVE SMOOTH",
"1418 1220 OFFCURVE",
"1420 1213 OFFCURVE",
"1422 1210 CURVE",
"1404 1210 LINE",
"1401 1213 OFFCURVE",
"1399 1223 OFFCURVE",
"1397 1237 CURVE SMOOTH",
"1394 1251 OFFCURVE",
"1387 1256 OFFCURVE",
"1373 1256 CURVE SMOOTH",
"1361 1256 LINE",
"1361 1210 LINE"
);
},
{
closed = 1;
nodes = (
"1374 1270 LINE SMOOTH",
"1388 1270 OFFCURVE",
"1400 1275 OFFCURVE",
"1400 1288 CURVE SMOOTH",
"1400 1298 OFFCURVE",
"1393 1307 OFFCURVE",
"1374 1307 CURVE SMOOTH",
"1368 1307 OFFCURVE",
"1364 1307 OFFCURVE",
"1361 1307 CURVE",
"1361 1270 LINE"
);
}
);
width = 1225;
}
);
unicode = 006B;
},
{
color = 4;
glyphname = "l";
lastChange = "2013-03-11 12:41:56 -0800";
layers = (
{
anchors = (
{
name = "bottom";
position = "{749, 0}";
},
{
name = "top";
position = "{749, 2362}";
},
{
name = "topright";
position = "{1360, 2362}";
}
);
layerId = "ABCF47FB-41DD-418D-ADD0-B1CD0215F61B";
name = "Regular";
paths = (
{
closed = 1;
nodes = (
"390 1622 LINE",
"390 0 LINE",
"100 0 LINE",
"100 1622 LINE"
);
}
);
width = 470;
}
);
unicode = 006C;
},
{
color = 4;
glyphname = "n";
lastChange = "2013-03-11 12:41:56 -0800";
layers = (
{
anchors = (
{
name = "bottom";
position = "{755, 0}";
},
{
name = "top";
position = "{755, 2362}";
}
);
hints = (
{
horizontal = 1;
place = "{1082.000000, 29.000000}";
}
);
layerId = "ABCF47FB-41DD-418D-ADD0-B1CD0215F61B";
name = "Regular";
paths = (
{
closed = 1;
nodes = (
"849 618 LINE SMOOTH",
"849 672 OFFCURVE",
"847 716 OFFCURVE",
"842 744 CURVE SMOOTH",
"836 773 OFFCURVE",
"827 799 OFFCURVE",
"814 823 CURVE SMOOTH",
"781 882 OFFCURVE",
"722 912 OFFCURVE",
"637 912 CURVE SMOOTH",
"585 912 OFFCURVE",
"539 902 OFFCURVE",
"499 880 CURVE SMOOTH",
"460 858 OFFCURVE",
"432 825 OFFCURVE",
"414 782 CURVE SMOOTH",
"403 755 OFFCURVE",
"397 729 OFFCURVE",
"393 703 CURVE SMOOTH",
"388 675 OFFCURVE",
"388 635 OFFCURVE",
"388 583 CURVE SMOOTH",
"388 0 LINE",
"100 0 LINE",
"100 1083 LINE",
"388 1083 LINE",
"388 937 LINE",
"443 998 OFFCURVE",
"499 1041 OFFCURVE",
"556 1067 CURVE SMOOTH",
"615 1094 OFFCURVE",
"683 1109 OFFCURVE",
"759 1109 CURVE SMOOTH",
"844 1109 OFFCURVE",
"916 1092 OFFCURVE",
"975 1054 CURVE SMOOTH",
"1034 1019 OFFCURVE",
"1076 969 OFFCURVE",
"1102 904 CURVE SMOOTH",
"1109 888 OFFCURVE",
"1113 873 OFFCURVE",
"1117 856 CURVE SMOOTH",
"1122 838 OFFCURVE",
"1126 821 OFFCURVE",
"1128 799 CURVE SMOOTH",
"1130 777 OFFCURVE",
"1133 751 OFFCURVE",
"1133 723 CURVE SMOOTH",
"1135 692 OFFCURVE",
"1135 657 OFFCURVE",
"1135 613 CURVE SMOOTH",
"1135 0 LINE",
"849 0 LINE"
);
}
);
width = 1235;
}
);
unicode = 006E;
},
{
color = 4;
glyphname = "p";
lastChange = "2013-03-11 12:41:56 -0800";
layers = (
{
hints = (
{
horizontal = 1;
place = "{1082.000000, 27.000000}";
},
{
horizontal = 1;
place = "{0.000000, -27.000000}";
}
);
layerId = "ABCF47FB-41DD-418D-ADD0-B1CD0215F61B";
name = "Regular";
paths = (
{
closed = 1;
nodes = (
"928 672 OFFCURVE",
"904 765 OFFCURVE",
"856 834 CURVE SMOOTH",
"808 903 OFFCURVE",
"742 937 OFFCURVE",
"659 937 CURVE SMOOTH",
"572 937 OFFCURVE",
"503 901 OFFCURVE",
"452 828 CURVE SMOOTH",
"401 755 OFFCURVE",
"376 656 OFFCURVE",
"376 532 CURVE SMOOTH",
"376 410 OFFCURVE",
"401 315 OFFCURVE",
"451 245 CURVE SMOOTH",
"501 176 OFFCURVE",
"570 141 OFFCURVE",
"657 141 CURVE SMOOTH",
"710 141 OFFCURVE",
"753 154 OFFCURVE",
"787 181 CURVE SMOOTH",
"821 208 OFFCURVE",
"849 242 OFFCURVE",
"870 283 CURVE SMOOTH",
"891 324 OFFCURVE",
"906 369 OFFCURVE",
"915 418 CURVE SMOOTH",
"923 466 OFFCURVE",
"928 511 OFFCURVE",
"928 553 CURVE"
);
},
{
closed = 1;
nodes = (
"1231 479 OFFCURVE",
"1217 401 OFFCURVE",
"1191 329 CURVE SMOOTH",
"1165 258 OFFCURVE",
"1129 195 OFFCURVE",
"1083 142 CURVE SMOOTH",
"1036 88 OFFCURVE",
"981 47 OFFCURVE",
"917 17 CURVE SMOOTH",
"854 -12 OFFCURVE",
"785 -27 OFFCURVE",
"711 -27 CURVE SMOOTH",
"678 -27 OFFCURVE",
"646 -24 OFFCURVE",
"617 -19 CURVE SMOOTH",
"588 -13 OFFCURVE",
"561 -3 OFFCURVE",
"535 11 CURVE SMOOTH",
"509 24 OFFCURVE",
"483 42 OFFCURVE",
"458 64 CURVE SMOOTH",
"432 85 OFFCURVE",
"406 112 OFFCURVE",
"378 144 CURVE",
"378 -543 LINE",
"100 -543 LINE",
"100 1082 LINE",
"378 1082 LINE",
"380 924 LINE",
"431 987 OFFCURVE",
"486 1034 OFFCURVE",
"545 1064 CURVE SMOOTH",
"604 1093 OFFCURVE",
"673 1108 OFFCURVE",
"751 1108 CURVE SMOOTH",
"822 1108 OFFCURVE",
"887 1095 OFFCURVE",
"945 1068 CURVE SMOOTH",
"1004 1041 OFFCURVE",
"1054 1004 OFFCURVE",
"1097 956 CURVE SMOOTH",
"1140 909 OFFCURVE",
"1173 852 OFFCURVE",
"1196 785 CURVE SMOOTH",
"1219 719 OFFCURVE",
"1231 645 OFFCURVE",
"1231 564 CURVE"
);
}
);
width = 1241;
}
);
unicode = 0070;
},
{
color = 4;
glyphname = "s";
lastChange = "2013-03-11 12:41:56 -0800";
layers = (
{
anchors = (
{
name = "bottom";
position = "{483, 0}";
},
{
name = "top";
position = "{483, 1082}";
}
);
hints = (
{
horizontal = 1;
place = "{1082.000000, 27.000000}";
},
{
horizontal = 1;
place = "{0.000000, -27.000000}";
}
);
layerId = "ABCF47FB-41DD-418D-ADD0-B1CD0215F61B";
name = "Regular";
paths = (
{
closed = 1;
nodes = (
"866 250 OFFCURVE",
"858 207 OFFCURVE",
"836 165 CURVE SMOOTH",
"816 126 OFFCURVE",
"788 91 OFFCURVE",
"753 63 CURVE SMOOTH",
"716 34 OFFCURVE",
"672 12 OFFCURVE",
"624 -3 CURVE SMOOTH",
"574 -20 OFFCURVE",
"519 -27 OFFCURVE",
"460 -27 CURVE SMOOTH",
"388 -27 OFFCURVE",
"325 -18 OFFCURVE",
"268 1 CURVE SMOOTH",
"214 21 OFFCURVE",
"157 54 OFFCURVE",
"100 97 CURVE",
"194 250 LINE",
"238 211 OFFCURVE",
"279 185 OFFCURVE",
"314 167 CURVE SMOOTH",
"351 150 OFFCURVE",
"388 141 OFFCURVE",
"425 141 CURVE SMOOTH",
"471 141 OFFCURVE",
"508 152 OFFCURVE",
"537 176 CURVE SMOOTH",
"565 200 OFFCURVE",
"578 233 OFFCURVE",
"578 274 CURVE SMOOTH",
"578 292 OFFCURVE",
"576 307 OFFCURVE",
"572 322 CURVE SMOOTH",
"565 338 OFFCURVE",
"556 353 OFFCURVE",
"543 368 CURVE SMOOTH",
"530 386 OFFCURVE",
"510 401 OFFCURVE",
"486 421 CURVE SMOOTH",
"462 440 OFFCURVE",
"432 462 OFFCURVE",
"395 490 CURVE SMOOTH",
"366 510 OFFCURVE",
"338 532 OFFCURVE",
"310 554 CURVE SMOOTH",
"283 576 OFFCURVE",
"257 597 OFFCURVE",
"235 621 CURVE SMOOTH",
"214 648 OFFCURVE",
"196 674 OFFCURVE",
"181 704 CURVE SMOOTH",
"168 735 OFFCURVE",
"161 770 OFFCURVE",
"161 809 CURVE SMOOTH",
"161 853 OFFCURVE",
"170 894 OFFCURVE",
"190 931 CURVE SMOOTH",
"207 968 OFFCURVE",
"233 999 OFFCURVE",
"266 1025 CURVE SMOOTH",
"299 1051 OFFCURVE",
"338 1071 OFFCURVE",
"382 1086 CURVE SMOOTH",
"427 1102 OFFCURVE",
"478 1108 OFFCURVE",
"530 1108 CURVE SMOOTH",
"587 1108 OFFCURVE",
"641 1099 OFFCURVE",
"694 1086 CURVE SMOOTH",
"746 1071 OFFCURVE",
"796 1049 OFFCURVE",
"840 1021 CURVE",
"755 883 LINE",
"698 925 OFFCURVE",
"637 944 OFFCURVE",
"574 944 CURVE SMOOTH",
"534 944 OFFCURVE",
"502 934 OFFCURVE",
"478 914 CURVE SMOOTH",
"451 894 OFFCURVE",
"441 868 OFFCURVE",
"441 837 CURVE SMOOTH",
"441 809 OFFCURVE",
"451 783 OFFCURVE",
"473 761 CURVE SMOOTH",
"495 737 OFFCURVE",
"534 704 OFFCURVE",
"589 663 CURVE SMOOTH",
"644 621 OFFCURVE",
"689 586 OFFCURVE",
"727 556 CURVE SMOOTH",
"761 525 OFFCURVE",
"790 497 OFFCURVE",
"812 471 CURVE SMOOTH",
"831 445 OFFCURVE",
"847 416 OFFCURVE",
"855 390 CURVE SMOOTH",
"862 362 OFFCURVE",
"866 331 OFFCURVE",
"866 298 CURVE"
);
}
);
width = 876;
}
);
unicode = 0073;
},
{
color = 4;
glyphname = "u";
lastChange = "2013-03-11 12:41:56 -0800";
layers = (
{
anchors = (
{
name = "ogonek";
position = "{1229, 22}";
},
{
name = "top";
position = "{705, 2362}";
}
);
hints = (
{
horizontal = 1;
place = "{0.000000, -29.000000}";
}
);
layerId = "ABCF47FB-41DD-418D-ADD0-B1CD0215F61B";
name = "Regular";
paths = (
{
closed = 1;
nodes = (
"847 143 LINE",
"790 82 OFFCURVE",
"735 39 OFFCURVE",
"676 10 CURVE SMOOTH",
"617 -16 OFFCURVE",
"552 -29 OFFCURVE",
"475 -29 CURVE SMOOTH",
"388 -29 OFFCURVE",
"316 -12 OFFCURVE",
"259 21 CURVE SMOOTH",
"200 56 OFFCURVE",
"157 106 OFFCURVE",
"133 172 CURVE",
"124 189 OFFCURVE",
"120 205 OFFCURVE",
"115 222 CURVE SMOOTH",
"111 240 OFFCURVE",
"109 259 OFFCURVE",
"107 283 CURVE SMOOTH",
"102 305 OFFCURVE",
"100 331 OFFCURVE",
"100 360 CURVE SMOOTH",
"100 388 OFFCURVE",
"100 423 OFFCURVE",
"100 467 CURVE SMOOTH",
"100 1082 LINE",
"384 1082 LINE",
"384 462 LINE SMOOTH",
"384 405 OFFCURVE",
"388 364 OFFCURVE",
"393 336 CURVE SMOOTH",
"397 307 OFFCURVE",
"406 281 OFFCURVE",
"419 257 CURVE SMOOTH",
"454 196 OFFCURVE",
"513 165 OFFCURVE",
"596 165 CURVE SMOOTH",
"703 165 OFFCURVE",
"777 211 OFFCURVE",
"818 301 CURVE SMOOTH",
"829 325 OFFCURVE",
"836 349 OFFCURVE",
"840 377 CURVE SMOOTH",
"844 405 OFFCURVE",
"847 447 OFFCURVE",
"847 499 CURVE SMOOTH",
"847 1082 LINE",
"1133 1082 LINE",
"1133 -3 LINE",
"847 -3 LINE"
);
}
);
width = 1233;
}
);
unicode = 0075;
},
{
color = 4;
glyphname = "numbersign";
lastChange = "2013-04-11 08:31:26 -0800";
layers = (
{
layerId = "ABCF47FB-41DD-418D-ADD0-B1CD0215F61B";
name = "Regular";
paths = (
{
closed = 1;
nodes = (
"71 0 LINE",
"140 341 LINE",
"0 341 LINE",
"0 478 LINE",
"167 478 LINE",
"262 947 LINE",
"0 947 LINE",
"0 1082 LINE",
"289 1082 LINE",
"363 1456 LINE",
"580 1456 LINE",
"504 1082 LINE",
"808 1082 LINE",
"882 1456 LINE",
"1098 1456 LINE",
"1022 1082 LINE",
"1166 1082 LINE",
"1166 947 LINE",
"996 947 LINE",
"900 478 LINE",
"1161 478 LINE",
"1161 341 LINE",
"875 341 LINE",
"805 0 LINE",
"588 0 LINE",
"657 341 LINE",
"357 341 LINE",
"284 0 LINE"
);
},
{
closed = 1;
nodes = (
"384 478 LINE",
"687 478 LINE",
"781 947 LINE",
"478 947 LINE"
);
}
);
width = 1166;
}
);
leftKerningGroup = "40";
rightKerningGroup = "40";
unicode = 0023;
},
{
color = 4;
glyphname = "greater";
lastChange = "2013-08-13 17:32:39 -0800";
layers = (
{
layerId = "ABCF47FB-41DD-418D-ADD0-B1CD0215F61B";
name = "Regular";
paths = (
{
closed = 1;
nodes = (
"58 233 LINE",
"729 564 LINE",
"58 891 LINE",
"58 1085 LINE",
"924 651 LINE",
"924 473 LINE",
"58 43 LINE"
);
}
);
width = 974;
}
);
unicode = 003E;
},
{
color = 4;
glyphname = "minus";
lastChange = "2013-03-12 10:02:55 -0800";
layers = (
{
layerId = "ABCF47FB-41DD-418D-ADD0-B1CD0215F61B";
name = "Regular";
paths = (
{
closed = 1;
nodes = (
"1460 802 LINE SMOOTH",
"1460 845 OFFCURVE",
"1429 876 OFFCURVE",
"1386 876 CURVE",
"74 876 LINE",
"31 876 OFFCURVE",
"0 845 OFFCURVE",
"0 802 CURVE SMOOTH",
"0 658 LINE SMOOTH",
"0 615 OFFCURVE",
"31 584 OFFCURVE",
"74 584 CURVE",
"1386 584 LINE",
"1429 584 OFFCURVE",
"1460 615 OFFCURVE",
"1460 658 CURVE SMOOTH"
);
}
);
width = 1460;
}
);
unicode = 2212;
},
{
color = 4;
glyphname = "plus";
lastChange = "2013-03-11 12:41:39 -0800";
layers = (
{
layerId = "ABCF47FB-41DD-418D-ADD0-B1CD0215F61B";
name = "Regular";
paths = (
{
closed = 1;
nodes = (
"1460 802 LINE SMOOTH",
"1460 845 OFFCURVE",
"1429 876 OFFCURVE",
"1386 876 CURVE SMOOTH",
"876 876 LINE",
"876 1387 LINE SMOOTH",
"876 1430 OFFCURVE",
"845 1461 OFFCURVE",
"802 1461 CURVE SMOOTH",
"658 1461 LINE SMOOTH",
"615 1461 OFFCURVE",
"584 1430 OFFCURVE",
"584 1387 CURVE SMOOTH",
"584 876 LINE",
"74 876 LINE SMOOTH",
"31 876 OFFCURVE",
"0 845 OFFCURVE",
"0 802 CURVE SMOOTH",
"0 658 LINE SMOOTH",
"0 615 OFFCURVE",
"31 584 OFFCURVE",
"74 584 CURVE SMOOTH",
"584 584 LINE",
"584 73 LINE SMOOTH",
"584 30 OFFCURVE",
"615 -1 OFFCURVE",
"658 -1 CURVE SMOOTH",
"802 -1 LINE SMOOTH",
"845 -1 OFFCURVE",
"876 30 OFFCURVE",
"876 73 CURVE SMOOTH",
"876 584 LINE",
"1386 584 LINE SMOOTH",
"1429 584 OFFCURVE",
"1460 615 OFFCURVE",
"1460 658 CURVE SMOOTH"
);
}
);
width = 1460;
}
);
unicode = 002B;
},
{
color = 4;
glyphname = "uni2295";
lastChange = "2013-04-11 08:30:29 -0800";
layers = (
{
guideLines = (
{
angle = 180;
position = "{1626, 657}";
}
);
layerId = "ABCF47FB-41DD-418D-ADD0-B1CD0215F61B";
name = "Regular";
paths = (
{
closed = 1;
nodes = (
"953 1480 OFFCURVE",
"1147 1398 OFFCURVE",
"1282 1262 CURVE SMOOTH",
"1418 1127 OFFCURVE",
"1500 933 OFFCURVE",
"1500 730 CURVE SMOOTH",
"1500 520 OFFCURVE",
"1418 337 OFFCURVE",
"1282 201 CURVE SMOOTH",
"1147 66 OFFCURVE",
"953 -20 OFFCURVE",
"750 -20 CURVE SMOOTH",
"540 -20 OFFCURVE",
"357 66 OFFCURVE",
"221 201 CURVE SMOOTH",
"86 337 OFFCURVE",
"0 520 OFFCURVE",
"0 730 CURVE SMOOTH",
"0 933 OFFCURVE",
"86 1127 OFFCURVE",
"221 1262 CURVE SMOOTH",
"357 1398 OFFCURVE",
"540 1480 OFFCURVE",
"750 1480 CURVE SMOOTH"
);
},
{
closed = 1;
nodes = (
"1261 802 LINE SMOOTH",
"1261 845 OFFCURVE",
"1230 876 OFFCURVE",
"1187 876 CURVE SMOOTH",
"896 876 LINE",
"896 1167 LINE SMOOTH",
"896 1210 OFFCURVE",
"865 1241 OFFCURVE",
"822 1241 CURVE SMOOTH",
"678 1241 LINE SMOOTH",
"635 1241 OFFCURVE",
"604 1210 OFFCURVE",
"604 1167 CURVE SMOOTH",
"604 876 LINE",
"313 876 LINE SMOOTH",
"270 876 OFFCURVE",
"239 845 OFFCURVE",
"239 802 CURVE SMOOTH",
"239 658 LINE SMOOTH",
"239 615 OFFCURVE",
"270 584 OFFCURVE",
"313 584 CURVE SMOOTH",
"604 584 LINE",
"604 293 LINE SMOOTH",
"604 250 OFFCURVE",
"635 219 OFFCURVE",
"678 219 CURVE SMOOTH",
"822 219 LINE SMOOTH",
"865 219 OFFCURVE",
"896 250 OFFCURVE",
"896 293 CURVE SMOOTH",
"896 584 LINE",
"1187 584 LINE SMOOTH",
"1230 584 OFFCURVE",
"1261 615 OFFCURVE",
"1261 658 CURVE SMOOTH"
);
}
);
width = 1500;
}
);
unicode = 2295;
},
{
color = 4;
glyphname = "uni2296";
lastChange = "2013-04-11 08:30:29 -0800";
layers = (
{
layerId = "ABCF47FB-41DD-418D-ADD0-B1CD0215F61B";
name = "Regular";
paths = (
{
closed = 1;
nodes = (
"539 1480 OFFCURVE",
"356 1397 OFFCURVE",
"221 1262 CURVE SMOOTH",
"86 1126 OFFCURVE",
"0 933 OFFCURVE",
"0 730 CURVE SMOOTH",
"0 520 OFFCURVE",
"86 337 OFFCURVE",
"221 201 CURVE SMOOTH",
"356 66 OFFCURVE",
"539 -20 OFFCURVE",
"749 -20 CURVE SMOOTH",
"953 -20 OFFCURVE",
"1146 66 OFFCURVE",
"1282 201 CURVE SMOOTH",
"1417 337 OFFCURVE",
"1500 520 OFFCURVE",
"1500 730 CURVE SMOOTH",
"1500 933 OFFCURVE",
"1417 1126 OFFCURVE",
"1282 1262 CURVE SMOOTH",
"1146 1397 OFFCURVE",
"953 1480 OFFCURVE",
"749 1480 CURVE SMOOTH"
);
},
{
closed = 1;
nodes = (
"1261 615 OFFCURVE",
"1230 584 OFFCURVE",
"1187 584 CURVE SMOOTH",
"313 584 LINE SMOOTH",
"270 584 OFFCURVE",
"239 615 OFFCURVE",
"239 658 CURVE SMOOTH",
"239 802 LINE SMOOTH",
"239 845 OFFCURVE",
"270 876 OFFCURVE",
"313 876 CURVE SMOOTH",
"1187 876 LINE SMOOTH",
"1230 876 OFFCURVE",
"1261 845 OFFCURVE",
"1261 802 CURVE SMOOTH",
"1261 658 LINE SMOOTH"
);
}
);
width = 1500;
}
);
unicode = 2296;
},
{
color = 4;
glyphname = "uni2297";
lastChange = "2013-04-11 08:30:29 -0800";
layers = (
{
layerId = "ABCF47FB-41DD-418D-ADD0-B1CD0215F61B";
name = "Regular";
paths = (
{
closed = 1;
nodes = (
"953 1480 OFFCURVE",
"1147 1398 OFFCURVE",
"1282 1262 CURVE SMOOTH",
"1418 1127 OFFCURVE",
"1500 933 OFFCURVE",
"1500 730 CURVE SMOOTH",
"1500 520 OFFCURVE",
"1418 337 OFFCURVE",
"1282 201 CURVE SMOOTH",
"1147 66 OFFCURVE",
"953 -20 OFFCURVE",
"750 -20 CURVE SMOOTH",
"540 -20 OFFCURVE",
"357 66 OFFCURVE",
"221 201 CURVE SMOOTH",
"86 337 OFFCURVE",
"0 520 OFFCURVE",
"0 730 CURVE SMOOTH",
"0 933 OFFCURVE",
"86 1127 OFFCURVE",
"221 1262 CURVE SMOOTH",
"357 1398 OFFCURVE",
"540 1480 OFFCURVE",
"750 1480 CURVE SMOOTH"
);
},
{
closed = 1;
nodes = (
"1061 1142 LINE SMOOTH",
"1030 1173 OFFCURVE",
"986 1173 OFFCURVE",
"955 1142 CURVE SMOOTH",
"750 936 LINE",
"545 1142 LINE SMOOTH",
"514 1173 OFFCURVE",
"470 1173 OFFCURVE",
"439 1142 CURVE SMOOTH",
"338 1041 LINE SMOOTH",
"307 1010 OFFCURVE",
"307 966 OFFCURVE",
"338 935 CURVE SMOOTH",
"544 730 LINE",
"338 525 LINE SMOOTH",
"307 494 OFFCURVE",
"307 450 OFFCURVE",
"338 419 CURVE SMOOTH",
"439 318 LINE SMOOTH",
"470 287 OFFCURVE",
"514 287 OFFCURVE",
"545 318 CURVE SMOOTH",
"750 524 LINE",
"955 318 LINE SMOOTH",
"986 287 OFFCURVE",
"1030 287 OFFCURVE",
"1061 318 CURVE SMOOTH",
"1162 419 LINE SMOOTH",
"1193 450 OFFCURVE",
"1193 494 OFFCURVE",
"1162 525 CURVE SMOOTH",
"956 730 LINE",
"1162 935 LINE SMOOTH",
"1193 966 OFFCURVE",
"1193 1010 OFFCURVE",
"1162 1041 CURVE SMOOTH"
);
}
);
width = 1500;
}
);
unicode = 2297;
},
{
color = 4;
glyphname = "uni2195";
lastChange = "2013-04-11 08:30:29 -0800";
layers = (
{
layerId = "ABCF47FB-41DD-418D-ADD0-B1CD0215F61B";
name = "Regular";
paths = (
{
closed = 1;
nodes = (
"539 19 LINE",
"507 -12 OFFCURVE",
"493 -20 OFFCURVE",
"474 -20 CURVE SMOOTH",
"451 -20 OFFCURVE",
"437 -12 OFFCURVE",
"409 19 CURVE",
"38 435 LINE",
"12 467 OFFCURVE",
"0 492 OFFCURVE",
"0 519 CURVE SMOOTH",
"0 557 OFFCURVE",
"25 584 OFFCURVE",
"63 584 CURVE SMOOTH",
"882 584 LINE SMOOTH",
"921 584 OFFCURVE",
"947 557 OFFCURVE",
"947 519 CURVE SMOOTH",
"947 492 OFFCURVE",
"924 464 OFFCURVE",
"893 428 CURVE"
);
},
{
closed = 1;
nodes = (
"924 996 OFFCURVE",
"947 968 OFFCURVE",
"947 941 CURVE SMOOTH",
"947 903 OFFCURVE",
"921 876 OFFCURVE",
"882 876 CURVE SMOOTH",
"63 876 LINE SMOOTH",
"25 876 OFFCURVE",
"0 903 OFFCURVE",
"0 941 CURVE SMOOTH",
"0 968 OFFCURVE",
"12 993 OFFCURVE",
"38 1025 CURVE",
"409 1441 LINE",
"437 1472 OFFCURVE",
"451 1480 OFFCURVE",
"474 1480 CURVE SMOOTH",
"493 1480 OFFCURVE",
"507 1472 OFFCURVE",
"539 1441 CURVE",
"893 1032 LINE"
);
}
);
width = 947;
}
);
unicode = 2195;
},
{
color = 4;
glyphname = "uni21A5";
lastChange = "2013-04-11 08:30:29 -0800";
layers = (
{
annotations = (
{
position = "{788.210, 691.229}";
text = "Sort Assencding: Aligns to sort down and unsorted glyphs.";
type = "Text";
}
);
layerId = "ABCF47FB-41DD-418D-ADD0-B1CD0215F61B";
name = "Regular";
paths = (
{
closed = 1;
nodes = (
"924 996 OFFCURVE",
"947 968 OFFCURVE",
"947 941 CURVE SMOOTH",
"947 903 OFFCURVE",
"921 876 OFFCURVE",
"882 876 CURVE SMOOTH",
"63 876 LINE SMOOTH",
"25 876 OFFCURVE",
"0 903 OFFCURVE",
"0 941 CURVE SMOOTH",
"0 968 OFFCURVE",
"12 993 OFFCURVE",
"38 1025 CURVE",
"409 1441 LINE",
"437 1472 OFFCURVE",
"451 1480 OFFCURVE",
"474 1480 CURVE SMOOTH",
"493 1480 OFFCURVE",
"507 1472 OFFCURVE",
"539 1441 CURVE",
"893 1032 LINE"
);
}
);
width = 947;
}
);
unicode = 21A5;
},
{
color = 4;
glyphname = "uni21A7";
lastChange = "2013-04-11 08:30:29 -0800";
layers = (
{
annotations = (
{
position = "{980.552, 916.773}";
text = "Sort Descending: Aligns to sort up and unsorted glyphs.";
type = "Text";
}
);
layerId = "ABCF47FB-41DD-418D-ADD0-B1CD0215F61B";
name = "Regular";
paths = (
{
closed = 1;
nodes = (
"539 19 LINE",
"507 -12 OFFCURVE",
"493 -20 OFFCURVE",
"474 -20 CURVE SMOOTH",
"451 -20 OFFCURVE",
"437 -12 OFFCURVE",
"409 19 CURVE",
"38 435 LINE",
"12 467 OFFCURVE",
"0 492 OFFCURVE",
"0 519 CURVE SMOOTH",
"0 557 OFFCURVE",
"25 584 OFFCURVE",
"63 584 CURVE SMOOTH",
"882 584 LINE SMOOTH",
"921 584 OFFCURVE",
"947 557 OFFCURVE",
"947 519 CURVE SMOOTH",
"947 492 OFFCURVE",
"924 464 OFFCURVE",
"893 428 CURVE"
);
}
);
width = 947;
}
);
unicode = 21A7;
},
{
color = 4;
glyphname = "uni21BA";
lastChange = "2013-04-11 08:30:29 -0800";
layers = (
{
layerId = "ABCF47FB-41DD-418D-ADD0-B1CD0215F61B";
name = "Regular";
paths = (
{
closed = 1;
nodes = (
"485 895 OFFCURVE",
"534 996 OFFCURVE",
"640 1107 CURVE SMOOTH",
"751 1217 OFFCURVE",
"852 1262 OFFCURVE",
"1017 1262 CURVE",
"1182 1262 OFFCURVE",
"1283 1217 OFFCURVE",
"1393 1107 CURVE SMOOTH",
"1503 996 OFFCURVE",
"1547 895 OFFCURVE",
"1547 730 CURVE SMOOTH",
"1547 565 OFFCURVE",
"1503 465 OFFCURVE",
"1393 354 CURVE SMOOTH",
"1283 244 OFFCURVE",
"1182 200 OFFCURVE",
"1017 200 CURVE SMOOTH",
"852 200 OFFCURVE",
"751 244 OFFCURVE",
"640 354 CURVE SMOOTH",
"485 198 LINE",
"622 61 OFFCURVE",
"812 -20 OFFCURVE",
"1017 -20 CURVE SMOOTH",
"1222 -20 OFFCURVE",
"1412 61 OFFCURVE",
"1549 198 CURVE SMOOTH",
"1686 335 OFFCURVE",
"1767 525 OFFCURVE",
"1767 730 CURVE SMOOTH",
"1767 935 OFFCURVE",
"1686 1125 OFFCURVE",
"1549 1262 CURVE SMOOTH",
"1412 1399 OFFCURVE",
"1222 1480 OFFCURVE",
"1017 1480 CURVE SMOOTH",
"812 1480 OFFCURVE",
"622 1399 OFFCURVE",
"485 1262 CURVE SMOOTH",
"353 1125 OFFCURVE",
"267 935 OFFCURVE",
"267 730 CURVE",
"485 730 LINE"
);
},
{
closed = 1;
nodes = (
"0 873 LINE",
"373 460 LINE",
"381 452 OFFCURVE",
"391 447 OFFCURVE",
"401 447 CURVE SMOOTH",
"411 447 OFFCURVE",
"421 452 OFFCURVE",
"429 460 CURVE",
"803 877 LINE"
);
}
);
width = 1767;
}
);
unicode = 21BA;
},
{
color = 4;
glyphname = "uni21BB";
lastChange = "2013-04-11 08:30:29 -0800";
layers = (
{
layerId = "ABCF47FB-41DD-418D-ADD0-B1CD0215F61B";
name = "Regular";
paths = (
{
closed = 1;
nodes = (
"1501 730 LINE",
"1501 935 OFFCURVE",
"1415 1125 OFFCURVE",
"1283 1262 CURVE SMOOTH",
"1146 1399 OFFCURVE",
"956 1480 OFFCURVE",
"750 1480 CURVE SMOOTH",
"545 1480 OFFCURVE",
"355 1399 OFFCURVE",
"218 1262 CURVE SMOOTH",
"81 1125 OFFCURVE",
"0 935 OFFCURVE",
"0 730 CURVE SMOOTH",
"0 525 OFFCURVE",
"81 335 OFFCURVE",
"218 198 CURVE SMOOTH",
"355 61 OFFCURVE",
"545 -20 OFFCURVE",
"750 -20 CURVE SMOOTH",
"956 -20 OFFCURVE",
"1146 61 OFFCURVE",
"1283 198 CURVE",
"1128 354 LINE SMOOTH",
"1017 244 OFFCURVE",
"916 200 OFFCURVE",
"750 200 CURVE SMOOTH",
"585 200 OFFCURVE",
"484 244 OFFCURVE",
"374 354 CURVE SMOOTH",
"264 465 OFFCURVE",
"220 565 OFFCURVE",
"220 730 CURVE SMOOTH",
"220 895 OFFCURVE",
"264 996 OFFCURVE",
"374 1107 CURVE SMOOTH",
"484 1217 OFFCURVE",
"585 1262 OFFCURVE",
"750 1262 CURVE",
"916 1262 OFFCURVE",
"1017 1217 OFFCURVE",
"1128 1107 CURVE SMOOTH",
"1234 996 OFFCURVE",
"1283 895 OFFCURVE",
"1283 730 CURVE"
);
},
{
closed = 1;
nodes = (
"1339 460 LINE",
"1347 452 OFFCURVE",
"1357 447 OFFCURVE",
"1367 447 CURVE SMOOTH",
"1377 447 OFFCURVE",
"1387 452 OFFCURVE",
"1395 460 CURVE",
"1768 873 LINE",
"965 877 LINE"
);
}
);
width = 1768;
}
);
unicode = 21BB;
},
{
color = 4;
glyphname = "H18533";
lastChange = "2013-04-11 08:30:29 -0800";
layers = (
{
layerId = "ABCF47FB-41DD-418D-ADD0-B1CD0215F61B";
name = "Regular";
paths = (
{
closed = 1;
nodes = (
"955 1480 OFFCURVE",
"1145 1399 OFFCURVE",
"1282 1262 CURVE SMOOTH",
"1414 1125 OFFCURVE",
"1500 935 OFFCURVE",
"1500 730 CURVE SMOOTH",
"1500 525 OFFCURVE",
"1414 335 OFFCURVE",
"1282 198 CURVE SMOOTH",
"1145 61 OFFCURVE",
"955 -20 OFFCURVE",
"750 -20 CURVE SMOOTH",
"545 -20 OFFCURVE",
"355 61 OFFCURVE",
"218 198 CURVE SMOOTH",
"81 335 OFFCURVE",
"0 525 OFFCURVE",
"0 730 CURVE SMOOTH",
"0 935 OFFCURVE",
"81 1125 OFFCURVE",
"218 1262 CURVE SMOOTH",
"355 1399 OFFCURVE",
"545 1480 OFFCURVE",
"750 1480 CURVE SMOOTH"
);
}
);
width = 1500;
}
);
unicode = 25CF;
},
{
color = 4;
glyphname = "filledbox";
lastChange = "2013-04-11 08:29:56 -0800";
layers = (
{
layerId = "ABCF47FB-41DD-418D-ADD0-B1CD0215F61B";
name = "Regular";
paths = (
{
closed = 1;
nodes = (
"0 147 LINE SMOOTH",
"0 104 OFFCURVE",
"35 73 OFFCURVE",
"83 73 CURVE SMOOTH",
"1231 73 LINE SMOOTH",
"1279 73 OFFCURVE",
"1314 104 OFFCURVE",
"1314 147 CURVE SMOOTH",
"1314 1313 LINE SMOOTH",
"1314 1356 OFFCURVE",
"1279 1387 OFFCURVE",
"1231 1387 CURVE SMOOTH",
"83 1387 LINE SMOOTH",
"35 1387 OFFCURVE",
"0 1356 OFFCURVE",
"0 1313 CURVE SMOOTH"
);
}
);
width = 1314;
}
);
unicode = 25A0;
},
{
color = 4;
glyphname = "triagdn";
lastChange = "2013-04-11 08:29:56 -0800";
layers = (
{
layerId = "ABCF47FB-41DD-418D-ADD0-B1CD0215F61B";
name = "Regular";
paths = (
{
closed = 1;
nodes = (
"645 38 LINE SMOOTH",
"664 -1 OFFCURVE",
"697 -20 OFFCURVE",
"730 -20 CURVE SMOOTH",
"763 -20 OFFCURVE",
"796 -1 OFFCURVE",
"815 38 CURVE SMOOTH",
"1449 1329 LINE SMOOTH",
"1456 1344 OFFCURVE",
"1460 1361 OFFCURVE",
"1460 1375 CURVE SMOOTH",
"1460 1422 OFFCURVE",
"1424 1460 OFFCURVE",
"1367 1460 CURVE SMOOTH",
"93 1460 LINE SMOOTH",
"36 1460 OFFCURVE",
"0 1422 OFFCURVE",
"0 1375 CURVE SMOOTH",
"0 1361 OFFCURVE",
"4 1344 OFFCURVE",
"11 1329 CURVE SMOOTH"
);
}
);
width = 1460;
}
);
unicode = 25BC;
},
{
color = 4;
glyphname = "uni25B4";
lastChange = "2013-04-11 08:30:29 -0800";
layers = (
{
layerId = "ABCF47FB-41DD-418D-ADD0-B1CD0215F61B";
name = "Regular";
paths = (
{
closed = 1;
nodes = (
"1036 572 OFFCURVE",
"1062 541 OFFCURVE",
"1062 511 CURVE SMOOTH",
"1062 468 OFFCURVE",
"1032 438 OFFCURVE",
"989 438 CURVE SMOOTH",
"71 438 LINE SMOOTH",
"28 438 OFFCURVE",
"0 468 OFFCURVE",
"0 511 CURVE SMOOTH",
"0 541 OFFCURVE",
"13 569 OFFCURVE",
"43 605 CURVE",
"458 1071 LINE",
"490 1106 OFFCURVE",
"505 1115 OFFCURVE",
"531 1115 CURVE SMOOTH",
"553 1115 OFFCURVE",
"568 1106 OFFCURVE",
"604 1071 CURVE",
"1001 613 LINE"
);
}
);
width = 1062;
}
);
unicode = 25B4;
},
{
color = 4;
glyphname = "uni25B6";
lastChange = "2013-04-11 08:29:56 -0800";
layers = (
{
layerId = "ABCF47FB-41DD-418D-ADD0-B1CD0215F61B";
name = "Regular";
paths = (
{
closed = 1;
nodes = (
"1422 645 LINE SMOOTH",
"1461 665 OFFCURVE",
"1480 697 OFFCURVE",
"1480 730 CURVE SMOOTH",
"1480 763 OFFCURVE",
"1461 795 OFFCURVE",
"1422 815 CURVE SMOOTH",
"131 1469 LINE SMOOTH",
"116 1477 OFFCURVE",
"99 1480 OFFCURVE",
"85 1480 CURVE SMOOTH",
"38 1480 OFFCURVE",
"0 1444 OFFCURVE",
"0 1387 CURVE SMOOTH",
"0 73 LINE SMOOTH",
"0 16 OFFCURVE",
"38 -20 OFFCURVE",
"85 -20 CURVE SMOOTH",
"99 -20 OFFCURVE",
"116 -16 OFFCURVE",
"131 -9 CURVE SMOOTH"
);
}
);
width = 1480;
}
);
unicode = 25B6;
},
{
color = 4;
glyphname = "uni25B8";
lastChange = "2013-04-11 08:29:56 -0800";
layers = (
{
layerId = "ABCF47FB-41DD-418D-ADD0-B1CD0215F61B";
name = "Regular";
paths = (
{
closed = 1;
nodes = (
"134 155 OFFCURVE",
"103 129 OFFCURVE",
"73 129 CURVE SMOOTH",
"30 129 OFFCURVE",
"0 159 OFFCURVE",
"0 202 CURVE SMOOTH",
"0 1120 LINE SMOOTH",
"0 1163 OFFCURVE",
"30 1191 OFFCURVE",
"73 1191 CURVE SMOOTH",
"103 1191 OFFCURVE",
"131 1178 OFFCURVE",
"167 1148 CURVE",
"633 733 LINE",
"668 701 OFFCURVE",
"677 686 OFFCURVE",
"677 660 CURVE SMOOTH",
"677 638 OFFCURVE",
"668 623 OFFCURVE",
"633 587 CURVE",
"175 190 LINE"
);
}
);
width = 677;
}
);
unicode = 25B8;
},
{
color = 4;
glyphname = "uni25BE";
lastChange = "2013-04-11 08:30:29 -0800";
layers = (
{
layerId = "ABCF47FB-41DD-418D-ADD0-B1CD0215F61B";
name = "Regular";
paths = (
{
closed = 1;
nodes = (
"26 982 OFFCURVE",
"0 1013 OFFCURVE",
"0 1043 CURVE SMOOTH",
"-1 1086 OFFCURVE",
"30 1116 OFFCURVE",
"73 1116 CURVE SMOOTH",
"991 1116 LINE SMOOTH",
"1034 1116 OFFCURVE",
"1062 1086 OFFCURVE",
"1062 1043 CURVE SMOOTH",
"1062 1013 OFFCURVE",
"1049 985 OFFCURVE",
"1019 949 CURVE",
"604 483 LINE",
"572 448 OFFCURVE",
"557 439 OFFCURVE",
"531 439 CURVE SMOOTH",
"509 439 OFFCURVE",
"494 448 OFFCURVE",
"458 483 CURVE",
"61 941 LINE"
);
}
);
width = 1062;
}
);
unicode = 25BE;
},
{
color = 4;
glyphname = "uni25C0";
lastChange = "2013-04-11 08:29:56 -0800";
layers = (
{
layerId = "ABCF47FB-41DD-418D-ADD0-B1CD0215F61B";
name = "Regular";
paths = (
{
closed = 1;
nodes = (
"1364 -16 OFFCURVE",
"1381 -20 OFFCURVE",
"1395 -20 CURVE SMOOTH",
"1442 -20 OFFCURVE",
"1480 16 OFFCURVE",
"1480 73 CURVE SMOOTH",
"1480 1387 LINE SMOOTH",
"1480 1444 OFFCURVE",
"1442 1480 OFFCURVE",
"1395 1480 CURVE SMOOTH",
"1381 1480 OFFCURVE",
"1364 1477 OFFCURVE",
"1349 1469 CURVE SMOOTH",
"58 815 LINE SMOOTH",
"19 795 OFFCURVE",
"0 763 OFFCURVE",
"0 730 CURVE SMOOTH",
"0 697 OFFCURVE",
"19 665 OFFCURVE",
"58 645 CURVE SMOOTH",
"1349 -9 LINE SMOOTH"
);
}
);
width = 1480;
}
);
unicode = 25C0;
},
{
color = 4;
glyphname = "uni25C2";
lastChange = "2013-04-11 08:29:56 -0800";
layers = (
{
layerId = "ABCF47FB-41DD-418D-ADD0-B1CD0215F61B";
name = "Regular";
paths = (
{
closed = 1;
nodes = (
"44 587 LINE",
"9 623 OFFCURVE",
"0 638 OFFCURVE",
"0 660 CURVE SMOOTH",
"0 686 OFFCURVE",
"9 701 OFFCURVE",
"44 733 CURVE",
"510 1148 LINE",
"546 1178 OFFCURVE",
"574 1191 OFFCURVE",
"604 1191 CURVE SMOOTH",
"647 1191 OFFCURVE",
"677 1163 OFFCURVE",
"677 1120 CURVE SMOOTH",
"677 202 LINE SMOOTH",
"677 159 OFFCURVE",
"647 129 OFFCURVE",
"604 129 CURVE SMOOTH",
"574 129 OFFCURVE",
"543 155 OFFCURVE",
"502 190 CURVE"
);
}
);
width = 677;
}
);
unicode = 25C2;
},
{
color = 4;
glyphname = "uni2301";
lastChange = "2013-04-11 08:29:56 -0800";
layers = (
{
layerId = "ABCF47FB-41DD-418D-ADD0-B1CD0215F61B";
name = "Regular";
paths = (
{
closed = 1;
nodes = (
"394 861 LINE SMOOTH",
"372 869 OFFCURVE",
"366 893 OFFCURVE",
"374 913 CURVE SMOOTH",
"554 1387 LINE SMOOTH",
"580 1455 OFFCURVE",
"535 1488 OFFCURVE",
"487 1438 CURVE",
"3 763 LINE",
"-4 744 OFFCURVE",
"4 725 OFFCURVE",
"23 717 CURVE SMOOTH",
"323 597 LINE SMOOTH",
"342 589 OFFCURVE",
"351 570 OFFCURVE",
"344 551 CURVE SMOOTH",
"162 56 LINE SMOOTH",
"151 27 OFFCURVE",
"166 0 OFFCURVE",
"194 0 CURVE SMOOTH",
"204 0 OFFCURVE",
"213 5 OFFCURVE",
"219 13 CURVE SMOOTH",
"692 689 LINE SMOOTH",
"708 711 OFFCURVE",
"700 738 OFFCURVE",
"674 749 CURVE SMOOTH"
);
}
);
width = 700;
}
);
unicode = 2301;
},
{
color = 4;
glyphname = "uni231A";
lastChange = "2013-04-11 08:30:29 -0800";
layers = (
{
layerId = "ABCF47FB-41DD-418D-ADD0-B1CD0215F61B";
name = "Regular";
paths = (
{
closed = 1;
nodes = (
"955 1480 OFFCURVE",
"1145 1399 OFFCURVE",
"1282 1262 CURVE SMOOTH",
"1414 1125 OFFCURVE",
"1500 935 OFFCURVE",
"1500 730 CURVE SMOOTH",
"1500 525 OFFCURVE",
"1414 335 OFFCURVE",
"1282 198 CURVE SMOOTH",
"1145 61 OFFCURVE",
"955 -20 OFFCURVE",
"750 -20 CURVE SMOOTH",
"545 -20 OFFCURVE",
"355 61 OFFCURVE",
"218 198 CURVE SMOOTH",
"81 335 OFFCURVE",
"0 525 OFFCURVE",
"0 730 CURVE SMOOTH",
"0 935 OFFCURVE",
"81 1125 OFFCURVE",
"218 1262 CURVE SMOOTH",
"355 1399 OFFCURVE",
"545 1480 OFFCURVE",
"750 1480 CURVE SMOOTH"
);
},
{
closed = 1;
nodes = (
"596 1295 OFFCURVE",
"453 1233 OFFCURVE",
"350 1130 CURVE SMOOTH",
"247 1027 OFFCURVE",
"186 884 OFFCURVE",
"186 730 CURVE SMOOTH",
"186 576 OFFCURVE",
"247 433 OFFCURVE",
"350 330 CURVE SMOOTH",
"453 227 OFFCURVE",
"596 166 OFFCURVE",
"750 166 CURVE SMOOTH",
"904 166 OFFCURVE",
"1047 227 OFFCURVE",
"1150 330 CURVE SMOOTH",
"1250 433 OFFCURVE",
"1315 576 OFFCURVE",
"1315 730 CURVE SMOOTH",
"1315 884 OFFCURVE",
"1250 1027 OFFCURVE",
"1150 1130 CURVE SMOOTH",
"1047 1233 OFFCURVE",
"904 1295 OFFCURVE",
"750 1295 CURVE SMOOTH"
);
},
{
closed = 1;
nodes = (
"1056 522 LINE",
"823 755 LINE",
"823 1168 LINE",
"677 1168 LINE",
"677 694 LINE",
"952 419 LINE"
);
}
);
width = 1500;
}
);
unicode = 231A;
},
{
color = 4;
glyphname = "uni2605";
lastChange = "2013-04-11 08:30:29 -0800";
layers = (
{
layerId = "ABCF47FB-41DD-418D-ADD0-B1CD0215F61B";
name = "Regular";
paths = (
{
closed = 1;
nodes = (
"977 972 LINE SMOOTH",
"984 956 OFFCURVE",
"997 947 OFFCURVE",
"1016 947 CURVE SMOOTH",
"1430 947 LINE SMOOTH",
"1474 947 OFFCURVE",
"1501 916 OFFCURVE",
"1501 883 CURVE SMOOTH",
"1501 863 OFFCURVE",
"1491 844 OFFCURVE",
"1471 828 CURVE SMOOTH",
"1127 574 LINE SMOOTH",
"1117 567 OFFCURVE",
"1112 556 OFFCURVE",
"1112 544 CURVE SMOOTH",
"1112 542 OFFCURVE",
"1112 539 OFFCURVE",
"1113 536 CURVE SMOOTH",
"1240 69 LINE SMOOTH",
"1242 62 OFFCURVE",
"1243 54 OFFCURVE",
"1243 48 CURVE SMOOTH",
"1243 11 OFFCURVE",
"1213 -16 OFFCURVE",
"1179 -16 CURVE SMOOTH",
"1177 -16 OFFCURVE",
"1176 -16 OFFCURVE",
"1174 -16 CURVE SMOOTH",
"1161 -15 OFFCURVE",
"1147 -11 OFFCURVE",
"1135 0 CURVE SMOOTH",
"776 270 LINE SMOOTH",
"769 276 OFFCURVE",
"759 279 OFFCURVE",
"751 279 CURVE SMOOTH",
"743 279 OFFCURVE",
"734 276 OFFCURVE",
"727 270 CURVE SMOOTH",
"362 -2 LINE SMOOTH",
"350 -13 OFFCURVE",
"336 -17 OFFCURVE",
"323 -18 CURVE SMOOTH",
"287 -20 OFFCURVE",
"255 7 OFFCURVE",
"255 47 CURVE SMOOTH",
"255 53 OFFCURVE",
"256 61 OFFCURVE",
"258 68 CURVE SMOOTH",
"385 536 LINE SMOOTH",
"386 539 OFFCURVE",
"386 543 OFFCURVE",
"386 546 CURVE SMOOTH",
"386 557 OFFCURVE",
"381 567 OFFCURVE",
"373 574 CURVE SMOOTH",
"30 829 LINE SMOOTH",
"10 844 OFFCURVE",
"0 863 OFFCURVE",
"0 883 CURVE SMOOTH",
"0 916 OFFCURVE",
"27 947 OFFCURVE",
"71 947 CURVE SMOOTH",
"484 947 LINE SMOOTH",
"501 947 OFFCURVE",
"515 956 OFFCURVE",
"522 972 CURVE SMOOTH",
"689 1433 LINE SMOOTH",
"700 1465 OFFCURVE",
"725 1480 OFFCURVE",
"750 1480 CURVE SMOOTH",
"776 1480 OFFCURVE",
"801 1465 OFFCURVE",
"812 1432 CURVE SMOOTH"
);
}
);
width = 1501;
}
);
unicode = 2605;
},
{
color = 4;
glyphname = "uni2610";
lastChange = "2013-04-11 08:29:56 -0800";
layers = (
{
layerId = "ABCF47FB-41DD-418D-ADD0-B1CD0215F61B";
name = "Regular";
paths = (
{
closed = 1;
nodes = (
"0 149 LINE SMOOTH",
"0 63 OFFCURVE",
"63 0 OFFCURVE",
"149 0 CURVE SMOOTH",
"1311 0 LINE SMOOTH",
"1397 0 OFFCURVE",
"1460 63 OFFCURVE",
"1460 149 CURVE SMOOTH",
"1460 1311 LINE SMOOTH",
"1460 1397 OFFCURVE",
"1397 1460 OFFCURVE",
"1311 1460 CURVE SMOOTH",
"149 1460 LINE SMOOTH",
"63 1460 OFFCURVE",
"0 1397 OFFCURVE",
"0 1311 CURVE SMOOTH"
);
},
{
closed = 1;
nodes = (
"219 1210 OFFCURVE",
"250 1241 OFFCURVE",
"293 1241 CURVE SMOOTH",
"1167 1241 LINE SMOOTH",
"1210 1241 OFFCURVE",
"1241 1210 OFFCURVE",
"1241 1167 CURVE SMOOTH",
"1241 293 LINE SMOOTH",
"1241 250 OFFCURVE",
"1210 219 OFFCURVE",
"1167 219 CURVE SMOOTH",
"293 219 LINE SMOOTH",
"250 219 OFFCURVE",
"219 250 OFFCURVE",
"219 293 CURVE SMOOTH",
"219 1167 LINE SMOOTH"
);
}
);
width = 1460;
}
);
unicode = 2610;
},
{
color = 4;
glyphname = "uni2611";
lastChange = "2013-04-11 08:29:56 -0800";
layers = (
{
guideLines = (
{
angle = 180;
position = "{-100, 1460}";
}
);
layerId = "ABCF47FB-41DD-418D-ADD0-B1CD0215F61B";
name = "Regular";
paths = (
{
closed = 1;
nodes = (
"0 149 LINE SMOOTH",
"0 63 OFFCURVE",
"63 0 OFFCURVE",
"149 0 CURVE SMOOTH",
"1311 0 LINE SMOOTH",
"1397 0 OFFCURVE",
"1460 63 OFFCURVE",
"1460 149 CURVE SMOOTH",
"1460 1311 LINE SMOOTH",
"1460 1397 OFFCURVE",
"1397 1460 OFFCURVE",
"1311 1460 CURVE SMOOTH",
"149 1460 LINE SMOOTH",
"63 1460 OFFCURVE",
"0 1397 OFFCURVE",
"0 1311 CURVE SMOOTH"
);
},
{
closed = 1;
nodes = (
"1113 1264 OFFCURVE",
"1189 1277 OFFCURVE",
"1251 1234 CURVE SMOOTH",
"1314 1190 OFFCURVE",
"1328 1114 OFFCURVE",
"1283 1049 CURVE SMOOTH",
"700 208 LINE SMOOTH",
"673 169 OFFCURVE",
"635 149 OFFCURVE",
"595 148 CURVE",
"558 145 OFFCURVE",
"519 160 OFFCURVE",
"489 190 CURVE SMOOTH",
"189 491 LINE SMOOTH",
"134 546 OFFCURVE",
"133 624 OFFCURVE",
"187 678 CURVE SMOOTH",
"241 732 OFFCURVE",
"320 731 OFFCURVE",
"374 676 CURVE SMOOTH",
"570 478 LINE",
"1068 1199 LINE"
);
}
);
width = 1460;
}
);
unicode = 2611;
},
{
color = 4;
glyphname = "uni2699";
lastChange = "2013-04-11 08:29:56 -0800";
layers = (
{
layerId = "ABCF47FB-41DD-418D-ADD0-B1CD0215F61B";
name = "Regular";
paths = (
{
closed = 1;
nodes = (
"1452 639 OFFCURVE",
"1460 650 OFFCURVE",
"1460 658 CURVE SMOOTH",
"1460 802 LINE SMOOTH",
"1460 810 OFFCURVE",
"1452 821 OFFCURVE",
"1444 821 CURVE SMOOTH",
"1281 867 LINE SMOOTH",
"1274 867 OFFCURVE",
"1262 878 OFFCURVE",
"1262 886 CURVE",
"1217 996 LINE",
"1213 1004 OFFCURVE",
"1213 1015 OFFCURVE",
"1217 1023 CURVE SMOOTH",
"1300 1171 LINE SMOOTH",
"1304 1179 OFFCURVE",
"1304 1190 OFFCURVE",
"1296 1194 CURVE SMOOTH",
"1194 1296 LINE SMOOTH",
"1190 1304 OFFCURVE",
"1179 1304 OFFCURVE",
"1171 1300 CURVE SMOOTH",
"1023 1217 LINE SMOOTH",
"1015 1213 OFFCURVE",
"1004 1213 OFFCURVE",
"996 1217 CURVE",
"886 1262 LINE",
"878 1262 OFFCURVE",
"867 1274 OFFCURVE",
"867 1281 CURVE SMOOTH",
"821 1444 LINE SMOOTH",
"821 1452 OFFCURVE",
"810 1460 OFFCURVE",
"802 1460 CURVE SMOOTH",
"658 1460 LINE SMOOTH",
"650 1460 OFFCURVE",
"639 1452 OFFCURVE",
"639 1444 CURVE SMOOTH",
"593 1281 LINE SMOOTH",
"593 1274 OFFCURVE",
"582 1262 OFFCURVE",
"574 1262 CURVE",
"460 1213 LINE",
"453 1209 OFFCURVE",
"441 1209 OFFCURVE",
"433 1213 CURVE SMOOTH",
"289 1300 LINE SMOOTH",
"281 1304 OFFCURVE",
"270 1304 OFFCURVE",
"266 1296 CURVE SMOOTH",
"164 1194 LINE SMOOTH",
"156 1190 OFFCURVE",
"156 1179 OFFCURVE",
"160 1171 CURVE SMOOTH",
"247 1027 LINE SMOOTH",
"251 1019 OFFCURVE",
"251 1007 OFFCURVE",
"247 1000 CURVE",
"198 882 LINE",
"194 874 OFFCURVE",
"186 863 OFFCURVE",
"179 863 CURVE SMOOTH",
"16 821 LINE SMOOTH",
"8 818 OFFCURVE",
"0 810 OFFCURVE",
"0 802 CURVE SMOOTH",
"0 658 LINE SMOOTH",
"0 650 OFFCURVE",
"8 642 OFFCURVE",
"16 639 CURVE SMOOTH",
"179 597 LINE SMOOTH",
"186 597 OFFCURVE",
"194 586 OFFCURVE",
"198 578 CURVE",
"247 460 LINE",
"251 453 OFFCURVE",
"251 441 OFFCURVE",
"247 433 CURVE SMOOTH",
"160 289 LINE SMOOTH",
"156 281 OFFCURVE",
"156 270 OFFCURVE",
"164 266 CURVE SMOOTH",
"266 164 LINE SMOOTH",
"270 156 OFFCURVE",
"281 156 OFFCURVE",
"289 160 CURVE SMOOTH",
"433 247 LINE SMOOTH",
"441 251 OFFCURVE",
"453 251 OFFCURVE",
"460 247 CURVE",
"578 198 LINE",
"586 194 OFFCURVE",
"597 186 OFFCURVE",
"597 179 CURVE SMOOTH",
"639 16 LINE SMOOTH",
"642 8 OFFCURVE",
"650 0 OFFCURVE",
"658 0 CURVE SMOOTH",
"802 0 LINE SMOOTH",
"810 0 OFFCURVE",
"821 8 OFFCURVE",
"821 16 CURVE SMOOTH",
"863 179 LINE SMOOTH",
"863 186 OFFCURVE",
"874 194 OFFCURVE",
"882 198 CURVE",
"996 243 LINE",
"1004 247 OFFCURVE",
"1015 247 OFFCURVE",
"1023 243 CURVE SMOOTH",
"1171 160 LINE SMOOTH",
"1179 156 OFFCURVE",
"1190 156 OFFCURVE",
"1194 164 CURVE SMOOTH",
"1296 266 LINE SMOOTH",
"1304 270 OFFCURVE",
"1304 281 OFFCURVE",
"1300 289 CURVE SMOOTH",
"1217 437 LINE SMOOTH",
"1213 445 OFFCURVE",
"1213 456 OFFCURVE",
"1217 464 CURVE",
"1262 574 LINE",
"1262 582 OFFCURVE",
"1274 593 OFFCURVE",
"1281 593 CURVE SMOOTH",
"1444 639 LINE SMOOTH"
);
},
{
closed = 1;
nodes = (
"572 438 OFFCURVE",
"438 572 OFFCURVE",
"438 730 CURVE SMOOTH",
"438 888 OFFCURVE",
"572 1022 OFFCURVE",
"730 1022 CURVE SMOOTH",
"888 1022 OFFCURVE",
"1022 888 OFFCURVE",
"1022 730 CURVE SMOOTH",
"1022 572 OFFCURVE",
"888 438 OFFCURVE",
"730 438 CURVE SMOOTH"
);
}
);
width = 1460;
}
);
unicode = 2699;
},
{
color = 4;
glyphname = "uni26A0";
lastChange = "2013-04-11 08:29:56 -0800";
layers = (
{
layerId = "ABCF47FB-41DD-418D-ADD0-B1CD0215F61B";
name = "Regular";
paths = (
{
closed = 1;
nodes = (
"3 116 OFFCURVE",
"0 99 OFFCURVE",
"0 85 CURVE SMOOTH",
"0 38 OFFCURVE",
"36 0 OFFCURVE",
"93 0 CURVE SMOOTH",
"1513 0 LINE SMOOTH",
"1570 0 OFFCURVE",
"1606 38 OFFCURVE",
"1606 85 CURVE SMOOTH",
"1606 99 OFFCURVE",
"1603 117 OFFCURVE",
"1595 131 CURVE SMOOTH",
"888 1422 LINE SMOOTH",
"866 1462 OFFCURVE",
"836 1480 OFFCURVE",
"803 1480 CURVE SMOOTH",
"770 1480 OFFCURVE",
"739 1460 OFFCURVE",
"718 1422 CURVE SMOOTH",
"11 131 LINE SMOOTH"
);
},
{
closed = 1;
nodes = (
"861 1023 LINE SMOOTH",
"919 1023 OFFCURVE",
"960 978 OFFCURVE",
"951 921 CURVE SMOOTH",
"904 498 LINE",
"898 462 OFFCURVE",
"870 438 OFFCURVE",
"833 438 CURVE",
"768 438 LINE",
"731 438 OFFCURVE",
"703 462 OFFCURVE",
"697 498 CURVE",
"653 921 LINE SMOOTH",
"643 978 OFFCURVE",
"684 1023 OFFCURVE",
"743 1023 CURVE SMOOTH"
);
},
{
closed = 1;
nodes = (
"743 146 OFFCURVE",
"694 195 OFFCURVE",
"694 256 CURVE SMOOTH",
"694 316 OFFCURVE",
"743 365 OFFCURVE",
"803 365 CURVE SMOOTH",
"863 365 OFFCURVE",
"913 318 OFFCURVE",
"913 256 CURVE SMOOTH",
"913 195 OFFCURVE",
"863 146 OFFCURVE",
"803 146 CURVE SMOOTH"
);
}
);
width = 1606;
}
);
unicode = 26A0;
},
{
color = 4;
glyphname = "uni2709";
lastChange = "2013-04-11 08:29:56 -0800";
layers = (
{
layerId = "ABCF47FB-41DD-418D-ADD0-B1CD0215F61B";
name = "Regular";
paths = (
{
closed = 1;
nodes = (
"0 293 LINE SMOOTH",
"0 250 OFFCURVE",
"31 219 OFFCURVE",
"74 219 CURVE SMOOTH",
"1386 219 LINE SMOOTH",
"1429 219 OFFCURVE",
"1460 250 OFFCURVE",
"1460 293 CURVE SMOOTH",
"1460 949 LINE",
"752 666 LINE SMOOTH",
"738 660 OFFCURVE",
"722 660 OFFCURVE",
"708 666 CURVE SMOOTH",
"0 949 LINE"
);
},
{
closed = 1;
nodes = (
"0 1095 LINE",
"707 812 LINE SMOOTH",
"721 806 OFFCURVE",
"737 806 OFFCURVE",
"751 812 CURVE SMOOTH",
"1460 1095 LINE",
"1460 1167 LINE SMOOTH",
"1460 1210 OFFCURVE",
"1429 1241 OFFCURVE",
"1386 1241 CURVE SMOOTH",
"74 1241 LINE SMOOTH",
"31 1241 OFFCURVE",
"0 1210 OFFCURVE",
"0 1168 CURVE SMOOTH"
);
}
);
width = 1460;
}
);
unicode = 2709;
},
{
color = 4;
glyphname = "uni270F";
lastChange = "2013-04-11 08:29:56 -0800";
layers = (
{
guideLines = (
{
angle = 9.22581;
position = "{-77, 74}";
},
{
angle = 80.5422;
position = "{85, 0}";
}
);
layerId = "ABCF47FB-41DD-418D-ADD0-B1CD0215F61B";
name = "Regular";
paths = (
{
closed = 1;
nodes = (
"1439 1285 OFFCURVE",
"1460 1168 OFFCURVE",
"1460 1095 CURVE",
"438 73 LINE",
"0 0 LINE",
"73 438 LINE SMOOTH",
"1095 1460 LINE",
"1168 1460 OFFCURVE",
"1275 1451 OFFCURVE",
"1366 1357 CURVE SMOOTH"
);
},
{
closed = 1;
nodes = (
"365 146 LINE",
"360 205 OFFCURVE",
"340 244 OFFCURVE",
"292 292 CURVE",
"246 336 OFFCURVE",
"207 357 OFFCURVE",
"146 365 CURVE",
"121 219 LINE",
"162 196 OFFCURVE",
"194 162 OFFCURVE",
"219 122 CURVE"
);
}
);
width = 1460;
}
);
unicode = 270F;
},
{
color = 4;
glyphname = "uni2713";
lastChange = "2013-04-11 08:29:56 -0800";
layers = (
{
layerId = "ABCF47FB-41DD-418D-ADD0-B1CD0215F61B";
name = "Regular";
paths = (
{
closed = 1;
nodes = (
"1220 1399 LINE SMOOTH",
"1270 1471 OFFCURVE",
"1355 1486 OFFCURVE",
"1424 1438 CURVE SMOOTH",
"1494 1389 OFFCURVE",
"1509 1305 OFFCURVE",
"1459 1233 CURVE SMOOTH",
"638 63 LINE SMOOTH",
"589 -6 OFFCURVE",
"503 -24 OFFCURVE",
"434 24 CURVE SMOOTH",
"364 73 OFFCURVE",
"351 160 OFFCURVE",
"399 229 CURVE SMOOTH"
);
},
{
closed = 1;
nodes = (
"610 249 LINE SMOOTH",
"671 188 OFFCURVE",
"672 101 OFFCURVE",
"612 41 CURVE SMOOTH",
"552 -19 OFFCURVE",
"465 -18 OFFCURVE",
"404 43 CURVE SMOOTH",
"46 401 LINE SMOOTH",
"-15 462 OFFCURVE",
"-16 549 OFFCURVE",
"44 609 CURVE SMOOTH",
"104 669 OFFCURVE",
"191 668 OFFCURVE",
"252 607 CURVE SMOOTH"
);
}
);
width = 1488;
}
);
unicode = 2713;
},
{
color = 4;
glyphname = "uni2717";
lastChange = "2013-04-11 08:30:29 -0800";
layers = (
{
layerId = "ABCF47FB-41DD-418D-ADD0-B1CD0215F61B";
name = "Regular";
paths = (
{
closed = 1;
nodes = (
"862 730 LINE",
"1266 1134 LINE SMOOTH",
"1327 1195 OFFCURVE",
"1328 1282 OFFCURVE",
"1268 1342 CURVE SMOOTH",
"1208 1402 OFFCURVE",
"1121 1401 OFFCURVE",
"1060 1340 CURVE SMOOTH",
"656 936 LINE",
"252 1340 LINE SMOOTH",
"192 1400 OFFCURVE",
"104 1402 OFFCURVE",
"44 1342 CURVE SMOOTH",
"-16 1282 OFFCURVE",
"-14 1194 OFFCURVE",
"46 1134 CURVE SMOOTH",
"450 730 LINE",
"46 326 LINE SMOOTH",
"-14 266 OFFCURVE",
"-16 178 OFFCURVE",
"44 118 CURVE SMOOTH",
"104 58 OFFCURVE",
"192 60 OFFCURVE",
"252 120 CURVE SMOOTH",
"656 524 LINE",
"1060 120 LINE SMOOTH",
"1121 59 OFFCURVE",
"1208 58 OFFCURVE",
"1268 118 CURVE SMOOTH",
"1328 178 OFFCURVE",
"1327 265 OFFCURVE",
"1266 326 CURVE SMOOTH"
);
}
);
width = 1312;
}
);
unicode = 2717;
},
{
color = 4;
glyphname = "uni27A1";
lastChange = "2013-04-11 08:30:29 -0800";
layers = (
{
layerId = "ABCF47FB-41DD-418D-ADD0-B1CD0215F61B";
name = "Regular";
paths = (
{
closed = 1;
nodes = (
"730 365 LINE",
"0 365 LINE",
"0 1097 LINE",
"730 1092 LINE",
"730 1480 LINE",
"1460 730 LINE",
"730 -20 LINE"
);
}
);
width = 1460;
}
);
unicode = 27A1;
},
{
glyphname = "uni27A6";
lastChange = "2013-03-11 10:59:43 -0800";
layers = (
{
layerId = "ABCF47FB-41DD-418D-ADD0-B1CD0215F61B";
name = "Regular";
paths = (
{
closed = 1;
nodes = (
"750 563 OFFCURVE",
"580 553 OFFCURVE",
"430 499 CURVE SMOOTH",
"281 446 OFFCURVE",
"158 346 OFFCURVE",
"51 163 CURVE",
"88 313 OFFCURVE",
"148 446 OFFCURVE",
"224 566 CURVE SMOOTH",
"291 669 OFFCURVE",
"381 769 OFFCURVE",
"500 846 CURVE SMOOTH",
"620 922 OFFCURVE",
"767 972 OFFCURVE",
"950 972 CURVE",
"950 1295 LINE",
"1549 759 LINE",
"950 200 LINE",
"950 563 LINE"
);
}
);
width = 1600;
}
);
unicode = 27A6;
},
{
export = 0;
glyphname = "uni2601";
lastChange = "2013-03-11 14:58:52 -0800";
layers = (
{
layerId = "ABCF47FB-41DD-418D-ADD0-B1CD0215F61B";
name = "Regular";
paths = (
{
closed = 1;
nodes = (
"1099.88 948 OFFCURVE",
"1085.94 947.196 OFFCURVE",
"1072.23 945.63 CURVE",
"1012.24 1115.98 OFFCURVE",
"849.939 1238 OFFCURVE",
"659 1238 CURVE SMOOTH",
"417 1238 OFFCURVE",
"221 1042 OFFCURVE",
"221 800 CURVE SMOOTH",
"221 775.094 OFFCURVE",
"223.077 750.675 OFFCURVE",
"227.065 726.906 CURVE",
"90.255 723.216 OFFCURVE",
"-20 610.681 OFFCURVE",
"-20 473 CURVE SMOOTH",
"-20 333 OFFCURVE",
"94 219 OFFCURVE",
"234 219 CURVE SMOOTH",
"234 219 OFFCURVE",
"1114 219 OFFCURVE",
"1114 219 CURVE SMOOTH",
"1315 219 OFFCURVE",
"1478 382 OFFCURVE",
"1478 584 CURVE SMOOTH",
"1478 785 OFFCURVE",
"1315 948 OFFCURVE",
"1114 948 CURVE SMOOTH"
);
}
);
width = 1458;
}
);
unicode = 2601;
},
{
export = 0;
glyphname = "uni2691";
lastChange = "2013-03-11 12:42:42 -0800";
layers = (
{
layerId = "ABCF47FB-41DD-418D-ADD0-B1CD0215F61B";
name = "Regular";
paths = (
{
closed = 1;
nodes = (
"1565 1199 OFFCURVE",
"1588 1178 OFFCURVE",
"1572 1150 CURVE SMOOTH",
"1473 1003 OFFCURVE",
"1386 894 OFFCURVE",
"1319 818 CURVE SMOOTH",
"1250 740 OFFCURVE",
"1191 688 OFFCURVE",
"1143 658 CURVE SMOOTH",
"1044 596 OFFCURVE",
"979 616 OFFCURVE",
"924 658 CURVE",
"894 674 OFFCURVE",
"867 699 OFFCURVE",
"835 722 CURVE SMOOTH",
"778 770 OFFCURVE",
"695 788 OFFCURVE",
"583 747 CURVE",
"524 722 OFFCURVE",
"456 678 OFFCURVE",
"370 606 CURVE",
"524 0 LINE",
"349 0 LINE",
"39 1235 LINE",
"196 1290 LINE",
"383 1428 OFFCURVE",
"503 1470 OFFCURVE",
"589 1455 CURVE",
"672 1438 OFFCURVE",
"723 1369 OFFCURVE",
"781 1300 CURVE SMOOTH",
"839 1229 OFFCURVE",
"908 1150 OFFCURVE",
"1021 1116 CURVE SMOOTH",
"1129 1081 OFFCURVE",
"1287 1089 OFFCURVE",
"1534 1185 CURVE"
);
}
);
width = 1600;
}
);
unicode = 2691;
},
{
color = 4;
glyphname = "uniEC00";
lastChange = "2013-03-12 10:05:08 -0800";
layers = (
{
layerId = "ABCF47FB-41DD-418D-ADD0-B1CD0215F61B";
name = "Regular";
paths = (
{
closed = 1;
nodes = (
"0 730 LINE",
"730 1480 LINE",
"730 1092 LINE",
"1460 1097 LINE",
"1460 365 LINE",
"730 365 LINE",
"730 -20 LINE"
);
}
);
width = 1460;
}
);
unicode = EC00;
},
{
color = 4;
glyphname = "uniEC01";
lastChange = "2013-04-11 08:30:36 -0800";
layers = (
{
guideLines = (
{
angle = 180;
position = "{-80, 219}";
}
);
layerId = "ABCF47FB-41DD-418D-ADD0-B1CD0215F61B";
name = "Regular";
paths = (
{
closed = 1;
nodes = (
"750 1460 LINE",
"1500 730 LINE",
"1112 730 LINE",
"1117 0 LINE",
"385 0 LINE",
"385 730 LINE",
"0 730 LINE"
);
}
);
width = 1500;
}
);
unicode = EC01;
},
{
color = 4;
glyphname = "uniEC02";
lastChange = "2013-04-11 08:30:36 -0800";
layers = (
{
layerId = "ABCF47FB-41DD-418D-ADD0-B1CD0215F61B";
name = "Regular";
paths = (
{
closed = 1;
nodes = (
"385 730 LINE",
"385 1460 LINE",
"1117 1460 LINE",
"1112 730 LINE",
"1500 730 LINE",
"750 0 LINE",
"0 730 LINE"
);
}
);
width = 1500;
}
);
unicode = EC02;
},
{
color = 4;
glyphname = "uniEC12";
lastChange = "2013-04-11 08:30:34 -0800";
layers = (
{
layerId = "ABCF47FB-41DD-418D-ADD0-B1CD0215F61B";
name = "Regular";
paths = (
{
closed = 1;
nodes = (
"730 362 LINE",
"949 146 LINE",
"257 143 LINE SMOOTH",
"213 143 OFFCURVE",
"182 174 OFFCURVE",
"182 218 CURVE SMOOTH",
"182 946 LINE",
"0 946 LINE",
"292 1238 LINE",
"584 946 LINE",
"401 949 LINE",
"401 359 LINE"
);
},
{
closed = 1;
nodes = (
"1460 435 LINE",
"1168 143 LINE",
"876 435 LINE",
"1058 435 LINE",
"1058 1019 LINE",
"730 1019 LINE",
"511 1238 LINE",
"1202 1239 LINE SMOOTH",
"1246 1239 OFFCURVE",
"1277 1208 OFFCURVE",
"1277 1164 CURVE SMOOTH",
"1277 435 LINE"
);
}
);
width = 1460;
}
);
unicode = EC12;
},
{
color = 4;
glyphname = "uniEC13";
lastChange = "2013-04-11 08:30:34 -0800";
layers = (
{
annotations = (
{
position = "{1777.912, 1530.031}";
text = "This glyph is wider than the others as it's expected to be inline with many links. It looks better this way.";
type = "Text";
},
{
position = "{2722.171, 1125.663}";
type = "Text";
}
);
hints = (
{
place = "{1184.000000, -25.000000}";
}
);
layerId = "ABCF47FB-41DD-418D-ADD0-B1CD0215F61B";
name = "Regular";
paths = (
{
closed = 1;
nodes = (
"1168 513 LINE",
"1752 1024 LINE",
"1168 1535 LINE",
"1168 1170 LINE",
"1015 1170 OFFCURVE",
"914 1148 OFFCURVE",
"830 1091 CURVE SMOOTH",
"746 1034 OFFCURVE",
"693 965 OFFCURVE",
"657 890 CURVE SMOOTH",
"612 803 OFFCURVE",
"590 697 OFFCURVE",
"584 586 CURVE",
"668 727 OFFCURVE",
"716 772 OFFCURVE",
"803 820 CURVE SMOOTH",
"890 868 OFFCURVE",
"1003 876 OFFCURVE",
"1168 876 CURVE"
);
},
{
closed = 1;
nodes = (
"1314 219 LINE",
"219 219 LINE",
"219 1095 LINE",
"562 1095 LINE",
"594 1168 OFFCURVE",
"765 1314 OFFCURVE",
"876 1314 CURVE",
"0 1314 LINE",
"0 0 LINE",
"1533 0 LINE",
"1533 556 LINE",
"1314 337 LINE"
);
}
);
width = 1752;
}
);
unicode = EC13;
},
{
color = 4;
glyphname = "uniEC50";
lastChange = "2013-04-11 08:30:34 -0800";
layers = (
{
layerId = "ABCF47FB-41DD-418D-ADD0-B1CD0215F61B";
name = "Regular";
paths = (
{
closed = 1;
nodes = (
"0 146 LINE SMOOTH",
"0 103 OFFCURVE",
"31 72 OFFCURVE",
"74 72 CURVE SMOOTH",
"291 72 LINE SMOOTH",
"334 72 OFFCURVE",
"365 103 OFFCURVE",
"365 146 CURVE SMOOTH",
"365 1314 LINE SMOOTH",
"365 1357 OFFCURVE",
"334 1388 OFFCURVE",
"291 1388 CURVE SMOOTH",
"74 1388 LINE SMOOTH",
"31 1388 OFFCURVE",
"0 1357 OFFCURVE",
"0 1314 CURVE SMOOTH"
);
},
{
closed = 1;
nodes = (
"730 146 LINE SMOOTH",
"730 103 OFFCURVE",
"761 72 OFFCURVE",
"804 72 CURVE SMOOTH",
"1021 72 LINE SMOOTH",
"1064 72 OFFCURVE",
"1095 103 OFFCURVE",
"1095 146 CURVE SMOOTH",
"1095 1314 LINE SMOOTH",
"1095 1357 OFFCURVE",
"1064 1388 OFFCURVE",
"1021 1388 CURVE SMOOTH",
"804 1388 LINE SMOOTH",
"761 1388 OFFCURVE",
"730 1357 OFFCURVE",
"730 1314 CURVE SMOOTH"
);
}
);
width = 1095;
}
);
unicode = EC50;
},
{
color = 4;
glyphname = "uniEC56";
lastChange = "2013-04-11 08:30:34 -0800";
layers = (
{
layerId = "ABCF47FB-41DD-418D-ADD0-B1CD0215F61B";
name = "Regular";
paths = (
{
closed = 1;
nodes = (
"0 293 LINE SMOOTH",
"0 250 OFFCURVE",
"31 219 OFFCURVE",
"74 219 CURVE SMOOTH",
"1386 219 LINE SMOOTH",
"1429 219 OFFCURVE",
"1460 250 OFFCURVE",
"1460 293 CURVE SMOOTH",
"1460 364 LINE SMOOTH",
"1460 407 OFFCURVE",
"1429 438 OFFCURVE",
"1386 438 CURVE SMOOTH",
"74 438 LINE SMOOTH",
"31 438 OFFCURVE",
"0 407 OFFCURVE",
"0 364 CURVE SMOOTH"
);
},
{
closed = 1;
nodes = (
"0 731 LINE SMOOTH",
"0 688 OFFCURVE",
"31 657 OFFCURVE",
"74 657 CURVE SMOOTH",
"1386 657 LINE SMOOTH",
"1429 657 OFFCURVE",
"1460 688 OFFCURVE",
"1460 731 CURVE SMOOTH",
"1460 802 LINE SMOOTH",
"1460 845 OFFCURVE",
"1429 876 OFFCURVE",
"1386 876 CURVE SMOOTH",
"74 876 LINE SMOOTH",
"31 876 OFFCURVE",
"0 845 OFFCURVE",
"0 802 CURVE SMOOTH"
);
},
{
closed = 1;
nodes = (
"0 1169 LINE SMOOTH",
"0 1126 OFFCURVE",
"31 1095 OFFCURVE",
"74 1095 CURVE SMOOTH",
"1386 1095 LINE SMOOTH",
"1429 1095 OFFCURVE",
"1460 1126 OFFCURVE",
"1460 1169 CURVE SMOOTH",
"1460 1240 LINE SMOOTH",
"1460 1283 OFFCURVE",
"1429 1314 OFFCURVE",
"1386 1314 CURVE SMOOTH",
"74 1314 LINE SMOOTH",
"31 1314 OFFCURVE",
"0 1283 OFFCURVE",
"0 1240 CURVE SMOOTH"
);
}
);
width = 1460;
}
);
unicode = EC56;
},
{
color = 4;
glyphname = "uniEC66";
lastChange = "2013-04-11 08:30:34 -0800";
layers = (
{
layerId = "ABCF47FB-41DD-418D-ADD0-B1CD0215F61B";
name = "Regular";
paths = (
{
closed = 1;
nodes = (
"0 1095 LINE",
"1314 1095 LINE",
"1314 1240 LINE SMOOTH",
"1314 1283 OFFCURVE",
"1283 1314 OFFCURVE",
"1240 1314 CURVE SMOOTH",
"74 1314 LINE SMOOTH",
"31 1314 OFFCURVE",
"0 1283 OFFCURVE",
"0 1241 CURVE SMOOTH"
);
},
{
closed = 1;
nodes = (
"146 74 LINE SMOOTH",
"146 31 OFFCURVE",
"177 0 OFFCURVE",
"220 0 CURVE SMOOTH",
"1094 0 LINE SMOOTH",
"1137 0 OFFCURVE",
"1168 31 OFFCURVE",
"1168 74 CURVE SMOOTH",
"1168 950 LINE",
"146 950 LINE"
);
},
{
closed = 1;
nodes = (
"438 1314 LINE",
"876 1314 LINE",
"876 1386 LINE SMOOTH",
"876 1429 OFFCURVE",
"845 1460 OFFCURVE",
"802 1460 CURVE SMOOTH",
"512 1460 LINE SMOOTH",
"469 1460 OFFCURVE",
"438 1429 OFFCURVE",
"438 1386 CURVE SMOOTH"
);
}
);
width = 1314;
}
);
unicode = EC66;
},
{
color = 4;
glyphname = "uniEC68";
lastChange = "2013-06-19 18:08:12 -0800";
layers = (
{
hints = (
{
horizontal = 1;
place = "{265.000000, 30.000000}";
}
);
layerId = "ABCF47FB-41DD-418D-ADD0-B1CD0215F61B";
name = "Regular";
paths = (
{
closed = 1;
nodes = (
"730 365 LINE",
"146 949 LINE",
"471 949 LINE",
"471 1460 LINE",
"982 1456 LINE",
"982 949 LINE",
"1314 949 LINE SMOOTH"
);
},
{
closed = 1;
nodes = (
"1460 219 LINE SMOOTH",
"1460 262 OFFCURVE",
"1429 293 OFFCURVE",
"1386 293 CURVE",
"74 293 LINE",
"31 293 OFFCURVE",
"0 262 OFFCURVE",
"0 219 CURVE SMOOTH",
"0 74 LINE SMOOTH",
"0 31 OFFCURVE",
"31 0 OFFCURVE",
"74 0 CURVE",
"1386 0 LINE",
"1429 0 OFFCURVE",
"1460 31 OFFCURVE",
"1460 74 CURVE SMOOTH"
);
}
);
width = 1460;
}
);
unicode = EC68;
},
{
color = 4;
glyphname = "uniEC80";
lastChange = "2013-04-11 08:30:34 -0800";
layers = (
{
layerId = "ABCF47FB-41DD-418D-ADD0-B1CD0215F61B";
name = "Regular";
paths = (
{
closed = 1;
nodes = (
"608 1480 OFFCURVE",
"722 1428 OFFCURVE",
"809 1339 CURVE SMOOTH",
"896 1252 OFFCURVE",
"949 1139 OFFCURVE",
"949 1005 CURVE SMOOTH",
"949 777 OFFCURVE",
"827 523 OFFCURVE",
"710 313 CURVE SMOOTH",
"642 192 OFFCURVE",
"562 93 OFFCURVE",
"475 -20 CURVE",
"292 208 OFFCURVE",
"174 410 OFFCURVE",
"76 653 CURVE SMOOTH",
"26 773 OFFCURVE",
"0 892 OFFCURVE",
"0 1005 CURVE SMOOTH",
"0 1139 OFFCURVE",
"53 1252 OFFCURVE",
"141 1339 CURVE SMOOTH",
"228 1428 OFFCURVE",
"341 1480 OFFCURVE",
"475 1480 CURVE SMOOTH"
);
},
{
closed = 1;
nodes = (
"616 743 OFFCURVE",
"729 857 OFFCURVE",
"729 997 CURVE SMOOTH",
"729 1146 OFFCURVE",
"616 1256 OFFCURVE",
"475 1256 CURVE SMOOTH",
"326 1256 OFFCURVE",
"216 1146 OFFCURVE",
"216 997 CURVE SMOOTH",
"216 857 OFFCURVE",
"326 743 OFFCURVE",
"475 743 CURVE SMOOTH"
);
}
);
width = 949;
}
);
unicode = EC80;
},
{
color = 4;
glyphname = "uniEC84";
lastChange = "2013-04-11 08:30:34 -0800";
layers = (
{
layerId = "ABCF47FB-41DD-418D-ADD0-B1CD0215F61B";
name = "Regular";
paths = (
{
closed = 1;
nodes = (
"584 728 LINE",
"584 584 LINE",
"584 462 OFFCURVE",
"548 428 OFFCURVE",
"365 365 CURVE SMOOTH",
"273 332 OFFCURVE",
"163 281 OFFCURVE",
"106 248 CURVE",
"50 215 OFFCURVE",
"0 184 OFFCURVE",
"0 146 CURVE SMOOTH",
"0 0 LINE",
"730 0 LINE",
"1460 0 LINE",
"1460 146 LINE SMOOTH",
"1460 184 OFFCURVE",
"1424 226 OFFCURVE",
"1370 259 CURVE SMOOTH",
"1313 292 OFFCURVE",
"1188 332 OFFCURVE",
"1095 365 CURVE SMOOTH",
"914 434 OFFCURVE",
"876 462 OFFCURVE",
"876 584 CURVE",
"876 728 LINE"
);
},
{
closed = 1;
nodes = (
"511 1460 OFFCURVE",
"365 1314 OFFCURVE",
"365 1022 CURVE SMOOTH",
"365 803 OFFCURVE",
"584 511 OFFCURVE",
"730 511 CURVE SMOOTH",
"876 511 OFFCURVE",
"1095 803 OFFCURVE",
"1095 1022 CURVE SMOOTH",
"1095 1314 OFFCURVE",
"949 1460 OFFCURVE",
"730 1460 CURVE SMOOTH"
);
}
);
width = 1460;
}
);
unicode = EC84;
},
{
color = 4;
glyphname = "uniEC89";
lastChange = "2013-04-11 08:30:34 -0800";
layers = (
{
layerId = "ABCF47FB-41DD-418D-ADD0-B1CD0215F61B";
name = "Regular";
paths = (
{
closed = 1;
nodes = (
"365 949 LINE",
"1095 949 LINE",
"1095 1386 LINE SMOOTH",
"1095 1429 OFFCURVE",
"1064 1460 OFFCURVE",
"1021 1460 CURVE SMOOTH",
"439 1460 LINE SMOOTH",
"396 1460 OFFCURVE",
"365 1429 OFFCURVE",
"365 1386 CURVE SMOOTH"
);
},
{
closed = 1;
nodes = (
"1022 511 LINE",
"1022 146 LINE",
"438 146 LINE",
"438 511 LINE"
);
},
{
closed = 1;
nodes = (
"74 949 LINE SMOOTH",
"31 949 OFFCURVE",
"0 918 OFFCURVE",
"0 876 CURVE SMOOTH",
"0 366 LINE SMOOTH",
"0 323 OFFCURVE",
"31 292 OFFCURVE",
"74 292 CURVE SMOOTH",
"292 292 LINE",
"292 74 LINE SMOOTH",
"292 31 OFFCURVE",
"323 0 OFFCURVE",
"366 0 CURVE SMOOTH",
"1094 0 LINE SMOOTH",
"1137 0 OFFCURVE",
"1168 31 OFFCURVE",
"1168 74 CURVE SMOOTH",
"1168 292 LINE",
"1386 292 LINE SMOOTH",
"1429 292 OFFCURVE",
"1460 323 OFFCURVE",
"1460 366 CURVE SMOOTH",
"1460 875 LINE SMOOTH",
"1460 918 OFFCURVE",
"1429 949 OFFCURVE",
"1386 949 CURVE SMOOTH"
);
},
{
closed = 1;
nodes = (
"1314 803 LINE",
"1314 657 LINE",
"1168 657 LINE",
"1168 803 LINE"
);
},
{
closed = 1;
nodes = (
"1022 803 LINE",
"1022 657 LINE",
"876 657 LINE",
"876 803 LINE"
);
}
);
width = 1460;
}
);
unicode = EC89;
},
{
color = 4;
glyphname = "uniEC98";
lastChange = "2013-04-11 08:30:36 -0800";
layers = (
{
hints = (
{
horizontal = 1;
place = "{192.000000, 30.000000}";
},
{
horizontal = 1;
place = "{392.000000, -30.000000}";
}
);
layerId = "ABCF47FB-41DD-418D-ADD0-B1CD0215F61B";
name = "Regular";
paths = (
{
closed = 1;
nodes = (
"277 74 LINE SMOOTH",
"277 31 OFFCURVE",
"308 0 OFFCURVE",
"351 0 CURVE SMOOTH",
"566 0 LINE SMOOTH",
"609 0 OFFCURVE",
"640 31 OFFCURVE",
"640 74 CURVE SMOOTH",
"640 219 LINE",
"277 219 LINE"
);
},
{
closed = 1;
nodes = (
"206 646 LINE",
"301 540 OFFCURVE",
"280 365 OFFCURVE",
"280 365 CURVE",
"638 365 LINE",
"638 365 OFFCURVE",
"646 578 OFFCURVE",
"710 634 CURVE SMOOTH",
"760 678 LINE",
"850 758 OFFCURVE",
"916 885 OFFCURVE",
"916 1022 CURVE SMOOTH",
"916 1275 OFFCURVE",
"711 1480 OFFCURVE",
"458 1480 CURVE SMOOTH",
"205 1480 OFFCURVE",
"0 1275 OFFCURVE",
"0 1022 CURVE SMOOTH",
"0 925 OFFCURVE",
"41 835 OFFCURVE",
"93 761 CURVE"
);
}
);
width = 916;
}
);
unicode = EC98;
},
{
color = 4;
glyphname = "uniEC99";
lastChange = "2013-04-11 08:30:34 -0800";
layers = (
{
layerId = "ABCF47FB-41DD-418D-ADD0-B1CD0215F61B";
name = "Regular";
paths = (
{
closed = 1;
nodes = (
"884 309 LINE",
"764 -24 LINE",
"1222 309 LINE"
);
},
{
closed = 1;
nodes = (
"0 441 LINE SMOOTH",
"0 355 OFFCURVE",
"63 292 OFFCURVE",
"149 292 CURVE SMOOTH",
"1311 292 LINE SMOOTH",
"1397 292 OFFCURVE",
"1460 355 OFFCURVE",
"1460 441 CURVE SMOOTH",
"1460 1311 LINE SMOOTH",
"1460 1397 OFFCURVE",
"1397 1460 OFFCURVE",
"1311 1460 CURVE SMOOTH",
"149 1460 LINE SMOOTH",
"63 1460 OFFCURVE",
"0 1397 OFFCURVE",
"0 1311 CURVE SMOOTH"
);
},
{
closed = 1;
nodes = (
"1241 1241 LINE",
"1241 1095 LINE",
"219 1095 LINE",
"219 1241 LINE"
);
},
{
closed = 1;
nodes = (
"1241 949 LINE",
"1241 803 LINE",
"219 803 LINE",
"219 949 LINE"
);
},
{
closed = 1;
nodes = (
"1095 657 LINE",
"1095 511 LINE",
"219 511 LINE",
"219 657 LINE"
);
}
);
width = 1460;
}
);
unicode = EC99;
},
{
color = 4;
glyphname = "uniEC9A";
lastChange = "2013-04-11 08:30:34 -0800";
layers = (
{
layerId = "ABCF47FB-41DD-418D-ADD0-B1CD0215F61B";
name = "Regular";
paths = (
{
closed = 1;
nodes = (
"1386 1241 LINE SMOOTH",
"1429 1241 OFFCURVE",
"1460 1210 OFFCURVE",
"1460 1167 CURVE SMOOTH",
"1460 74 LINE SMOOTH",
"1460 31 OFFCURVE",
"1429 0 OFFCURVE",
"1386 0 CURVE SMOOTH",
"74 0 LINE SMOOTH",
"31 0 OFFCURVE",
"0 31 OFFCURVE",
"0 74 CURVE SMOOTH",
"0 1167 LINE SMOOTH",
"0 1210 OFFCURVE",
"31 1241 OFFCURVE",
"74 1241 CURVE SMOOTH",
"219 1241 LINE",
"219 1096 LINE SMOOTH",
"219 1053 OFFCURVE",
"250 1022 OFFCURVE",
"293 1022 CURVE SMOOTH",
"437 1022 LINE SMOOTH",
"480 1022 OFFCURVE",
"511 1053 OFFCURVE",
"511 1096 CURVE SMOOTH",
"511 1241 LINE",
"949 1241 LINE",
"949 1096 LINE SMOOTH",
"949 1053 OFFCURVE",
"980 1022 OFFCURVE",
"1023 1022 CURVE SMOOTH",
"1167 1022 LINE SMOOTH",
"1210 1022 OFFCURVE",
"1241 1053 OFFCURVE",
"1241 1096 CURVE SMOOTH",
"1241 1241 LINE"
);
},
{
closed = 1;
nodes = (
"1241 876 LINE",
"219 876 LINE",
"219 219 LINE",
"1241 219 LINE"
);
},
{
closed = 1;
nodes = (
"438 1169 LINE SMOOTH",
"438 1126 OFFCURVE",
"407 1095 OFFCURVE",
"365 1095 CURVE SMOOTH",
"323 1095 OFFCURVE",
"292 1126 OFFCURVE",
"292 1169 CURVE SMOOTH",
"292 1386 LINE SMOOTH",
"292 1429 OFFCURVE",
"323 1460 OFFCURVE",
"365 1460 CURVE SMOOTH",
"407 1460 OFFCURVE",
"438 1429 OFFCURVE",
"438 1386 CURVE SMOOTH"
);
},
{
closed = 1;
nodes = (
"1168 1169 LINE SMOOTH",
"1168 1126 OFFCURVE",
"1137 1095 OFFCURVE",
"1095 1095 CURVE SMOOTH",
"1053 1095 OFFCURVE",
"1022 1126 OFFCURVE",
"1022 1169 CURVE SMOOTH",
"1022 1383 LINE SMOOTH",
"1022 1427 OFFCURVE",
"1053 1459 OFFCURVE",
"1096 1458 CURVE SMOOTH",
"1138 1458 OFFCURVE",
"1168 1427 OFFCURVE",
"1168 1385 CURVE SMOOTH"
);
}
);
width = 1460;
}
);
unicode = EC9A;
},
{
color = 4;
glyphname = "uniEC9B";
lastChange = "2013-04-11 08:30:36 -0800";
layers = (
{
layerId = "ABCF47FB-41DD-418D-ADD0-B1CD0215F61B";
name = "Regular";
paths = (
{
closed = 1;
nodes = (
"935 272 OFFCURVE",
"1208 545 OFFCURVE",
"1208 876 CURVE",
"1208 1207 OFFCURVE",
"935 1480 OFFCURVE",
"604 1480 CURVE",
"273 1480 OFFCURVE",
"0 1207 OFFCURVE",
"0 876 CURVE",
"0 545 OFFCURVE",
"273 272 OFFCURVE",
"604 272 CURVE"
);
},
{
closed = 1;
nodes = (
"394 491 OFFCURVE",
"219 666 OFFCURVE",
"219 876 CURVE",
"219 1086 OFFCURVE",
"394 1261 OFFCURVE",
"604 1261 CURVE",
"814 1261 OFFCURVE",
"989 1086 OFFCURVE",
"989 876 CURVE",
"989 666 OFFCURVE",
"814 491 OFFCURVE",
"604 491 CURVE"
);
},
{
closed = 1;
nodes = (
"1251 23 LINE SMOOTH",
"1281 -7 OFFCURVE",
"1325 -7 OFFCURVE",
"1355 23 CURVE SMOOTH",
"1457 125 LINE SMOOTH",
"1487 155 OFFCURVE",
"1487 199 OFFCURVE",
"1457 229 CURVE SMOOTH",
"1045 641 LINE SMOOTH",
"1015 671 OFFCURVE",
"971 671 OFFCURVE",
"941 641 CURVE SMOOTH",
"839 539 LINE SMOOTH",
"809 509 OFFCURVE",
"809 465 OFFCURVE",
"839 435 CURVE SMOOTH"
);
}
);
width = 1480;
}
);
unicode = EC9B;
},
{
color = 4;
glyphname = "uniEC9C";
lastChange = "2013-04-11 08:30:36 -0800";
layers = (
{
layerId = "ABCF47FB-41DD-418D-ADD0-B1CD0215F61B";
name = "Regular";
paths = (
{
closed = 1;
nodes = (
"685 401 OFFCURVE",
"699 404 OFFCURVE",
"710 402 CURVE SMOOTH",
"718 404 OFFCURVE",
"730 402 OFFCURVE",
"741 401 CURVE",
"740 399 LINE",
"738 308 OFFCURVE",
"642 243 OFFCURVE",
"512 241 CURVE SMOOTH",
"408 236 OFFCURVE",
"326 277 OFFCURVE",
"297 340 CURVE",
"383 374 OFFCURVE",
"507 399 OFFCURVE",
"677 401 CURVE SMOOTH"
);
},
{
closed = 1;
nodes = (
"370 90 OFFCURVE",
"121 180 OFFCURVE",
"121 292 CURVE SMOOTH",
"121 404 OFFCURVE",
"370 494 OFFCURVE",
"677 494 CURVE SMOOTH",
"984 494 OFFCURVE",
"1233 404 OFFCURVE",
"1233 292 CURVE SMOOTH",
"1233 180 OFFCURVE",
"984 90 OFFCURVE",
"677 90 CURVE SMOOTH"
);
},
{
closed = 1;
nodes = (
"823 1386 LINE",
"823 1429 OFFCURVE",
"792 1460 OFFCURVE",
"749 1460 CURVE SMOOTH",
"605 1460 LINE SMOOTH",
"562 1460 OFFCURVE",
"531 1429 OFFCURVE",
"531 1386 CURVE SMOOTH",
"531 1314 LINE",
"361 1270 OFFCURVE",
"260 1153 OFFCURVE",
"239 1015 CURVE",
"166 604 LINE SMOOTH",
"155 541 OFFCURVE",
"134 516 OFFCURVE",
"103 481 CURVE SMOOTH",
"38 409 OFFCURVE",
"0 351 OFFCURVE",
"0 292 CURVE SMOOTH",
"0 126 OFFCURVE",
"303 -8 OFFCURVE",
"677 -8 CURVE SMOOTH",
"1051 -8 OFFCURVE",
"1354 126 OFFCURVE",
"1354 292 CURVE SMOOTH",
"1354 350 OFFCURVE",
"1317 409 OFFCURVE",
"1252 481 CURVE SMOOTH",
"1221 515 OFFCURVE",
"1199 552 OFFCURVE",
"1188 614 CURVE SMOOTH",
"1115 1015 LINE",
"1094 1153 OFFCURVE",
"993 1270 OFFCURVE",
"823 1314 CURVE"
);
}
);
width = 1354;
}
);
unicode = EC9C;
},
{
color = 4;
glyphname = "uniEC9D";
lastChange = "2013-04-11 08:30:36 -0800";
layers = (
{
layerId = "ABCF47FB-41DD-418D-ADD0-B1CD0215F61B";
name = "Regular";
paths = (
{
closed = 1;
nodes = (
"528 1474 OFFCURVE",
"342 1389 OFFCURVE",
"212 1253 CURVE SMOOTH",
"78 1117 OFFCURVE",
"-3 928 OFFCURVE",
"0 720 CURVE",
"0 513 OFFCURVE",
"91 327 OFFCURVE",
"228 194 CURVE SMOOTH",
"365 61 OFFCURVE",
"550 -20 OFFCURVE",
"759 -17 CURVE SMOOTH",
"966 -14 OFFCURVE",
"1152 74 OFFCURVE",
"1285 210 CURVE SMOOTH",
"1416 346 OFFCURVE",
"1497 532 OFFCURVE",
"1497 740 CURVE SMOOTH",
"1494 947 OFFCURVE",
"1409 1133 OFFCURVE",
"1269 1266 CURVE SMOOTH",
"1129 1399 OFFCURVE",
"944 1480 OFFCURVE",
"735 1477 CURVE SMOOTH"
);
},
{
closed = 1;
nodes = (
"859 728 OFFCURVE",
"859 585 CURVE SMOOTH",
"859 542 OFFCURVE",
"828 511 OFFCURVE",
"785 511 CURVE SMOOTH",
"714 511 LINE SMOOTH",
"671 511 OFFCURVE",
"640 542 OFFCURVE",
"640 585 CURVE SMOOTH",
"640 657 LINE",
"640 803 OFFCURVE",
"859 828 OFFCURVE",
"859 949 CURVE",
"859 991 OFFCURVE",
"832 1022 OFFCURVE",
"785 1022 CURVE SMOOTH",
"714 1022 LINE SMOOTH",
"671 1022 OFFCURVE",
"640 991 OFFCURVE",
"640 948 CURVE SMOOTH",
"640 906 OFFCURVE",
"609 876 OFFCURVE",
"566 876 CURVE SMOOTH",
"495 876 LINE SMOOTH",
"452 876 OFFCURVE",
"421 907 OFFCURVE",
"421 950 CURVE SMOOTH",
"421 949 LINE SMOOTH",
"421 1142 OFFCURVE",
"494 1241 OFFCURVE",
"713 1241 CURVE SMOOTH",
"786 1241 LINE SMOOTH",
"1005 1241 OFFCURVE",
"1078 1149 OFFCURVE",
"1078 949 CURVE",
"1078 728 OFFCURVE"
);
},
{
closed = 1;
nodes = (
"689 183 OFFCURVE",
"640 232 OFFCURVE",
"640 293 CURVE SMOOTH",
"640 353 OFFCURVE",
"689 402 OFFCURVE",
"750 402 CURVE SMOOTH",
"810 402 OFFCURVE",
"859 355 OFFCURVE",
"859 293 CURVE SMOOTH",
"859 232 OFFCURVE",
"810 183 OFFCURVE",
"750 183 CURVE SMOOTH"
);
}
);
width = 1497;
}
);
unicode = EC9D;
},
{
color = 4;
glyphname = "uniEC9E";
lastChange = "2013-04-11 08:30:36 -0800";
layers = (
{
layerId = "ABCF47FB-41DD-418D-ADD0-B1CD0215F61B";
name = "Regular";
paths = (
{
closed = 1;
nodes = (
"955 1480 OFFCURVE",
"1145 1399 OFFCURVE",
"1282 1262 CURVE SMOOTH",
"1414 1125 OFFCURVE",
"1500 935 OFFCURVE",
"1500 730 CURVE SMOOTH",
"1500 525 OFFCURVE",
"1414 335 OFFCURVE",
"1282 198 CURVE SMOOTH",
"1145 61 OFFCURVE",
"955 -20 OFFCURVE",
"750 -20 CURVE SMOOTH",
"545 -20 OFFCURVE",
"355 61 OFFCURVE",
"218 198 CURVE SMOOTH",
"81 335 OFFCURVE",
"0 525 OFFCURVE",
"0 730 CURVE SMOOTH",
"0 935 OFFCURVE",
"81 1125 OFFCURVE",
"218 1262 CURVE SMOOTH",
"355 1399 OFFCURVE",
"545 1480 OFFCURVE",
"750 1480 CURVE SMOOTH"
);
},
{
closed = 1;
nodes = (
"603 1261 OFFCURVE",
"470 1205 OFFCURVE",
"373 1107 CURVE",
"275 1010 OFFCURVE",
"219 877 OFFCURVE",
"219 730 CURVE",
"219 583 OFFCURVE",
"275 450 OFFCURVE",
"373 353 CURVE",
"470 255 OFFCURVE",
"603 199 OFFCURVE",
"750 199 CURVE",
"896 199 OFFCURVE",
"1028 255 OFFCURVE",
"1126 351 CURVE",
"1221 451 OFFCURVE",
"1281 586 OFFCURVE",
"1281 730 CURVE",
"1281 874 OFFCURVE",
"1221 1009 OFFCURVE",
"1126 1109 CURVE",
"1028 1205 OFFCURVE",
"896 1261 OFFCURVE",
"750 1261 CURVE"
);
},
{
closed = 1;
nodes = (
"1297 1189 LINE",
"307 199 LINE",
"203 303 LINE",
"1193 1293 LINE"
);
}
);
width = 1500;
}
);
unicode = EC9E;
},
{
color = 4;
glyphname = "uniEC9F";
lastChange = "2013-04-11 08:30:34 -0800";
layers = (
{
layerId = "ABCF47FB-41DD-418D-ADD0-B1CD0215F61B";
name = "Regular";
paths = (
{
closed = 1;
nodes = (
"1115 803 LINE",
"1115 1022 LINE SMOOTH",
"1115 1272 OFFCURVE",
"907 1480 OFFCURVE",
"657 1480 CURVE SMOOTH",
"407 1480 OFFCURVE",
"199 1272 OFFCURVE",
"199 1022 CURVE",
"199 803 LINE",
"74 803 LINE SMOOTH",
"31 803 OFFCURVE",
"0 772 OFFCURVE",
"0 729 CURVE SMOOTH",
"0 74 LINE SMOOTH",
"0 31 OFFCURVE",
"31 0 OFFCURVE",
"74 0 CURVE SMOOTH",
"1240 0 LINE SMOOTH",
"1283 0 OFFCURVE",
"1314 31 OFFCURVE",
"1314 74 CURVE SMOOTH",
"1314 729 LINE SMOOTH",
"1314 772 OFFCURVE",
"1283 803 OFFCURVE",
"1240 803 CURVE SMOOTH"
);
},
{
closed = 1;
nodes = (
"418 803 LINE",
"418 1022 LINE",
"418 1151.02 OFFCURVE",
"527.98 1261 OFFCURVE",
"657 1261 CURVE",
"786.168 1261 OFFCURVE",
"896.762 1151.05 OFFCURVE",
"896 1022.43 CURVE",
"895 803 LINE"
);
}
);
width = 1314;
}
);
unicode = EC9F;
},
{
color = 4;
glyphname = "uniECA0";
lastChange = "2013-04-11 08:30:34 -0800";
layers = (
{
layerId = "ABCF47FB-41DD-418D-ADD0-B1CD0215F61B";
name = "Regular";
paths = (
{
closed = 1;
nodes = (
"418 999 LINE",
"418 1022 LINE",
"418 1151.02 OFFCURVE",
"527.98 1261 OFFCURVE",
"657 1261 CURVE",
"786.168 1261 OFFCURVE",
"896.762 1151.05 OFFCURVE",
"896 1022.43 CURVE",
"895 803 LINE",
"74 803 LINE",
"31 803 OFFCURVE",
"0 772 OFFCURVE",
"0 729 CURVE SMOOTH",
"0 74 LINE SMOOTH",
"0 31 OFFCURVE",
"31 0 OFFCURVE",
"74 0 CURVE SMOOTH",
"1240 0 LINE SMOOTH",
"1283 0 OFFCURVE",
"1314 31 OFFCURVE",
"1314 74 CURVE SMOOTH",
"1314 729 LINE SMOOTH",
"1314 772 OFFCURVE",
"1283 803 OFFCURVE",
"1240 803 CURVE SMOOTH",
"1115 803 LINE",
"1115 1022 LINE SMOOTH",
"1115 1272 OFFCURVE",
"907 1480 OFFCURVE",
"657 1480 CURVE SMOOTH",
"407 1480 OFFCURVE",
"199 1272 OFFCURVE",
"199 1022 CURVE",
"199 999 LINE"
);
}
);
width = 1314;
}
);
unicode = ECA0;
},
{
color = 4;
glyphname = "uniECA1";
lastChange = "2013-04-11 08:30:34 -0800";
layers = (
{
layerId = "ABCF47FB-41DD-418D-ADD0-B1CD0215F61B";
name = "Regular";
paths = (
{
closed = 1;
nodes = (
"0 -15 LINE",
"292 277 LINE",
"584 -15 LINE",
"584 1386 LINE SMOOTH",
"584 1429 OFFCURVE",
"553 1460 OFFCURVE",
"510 1460 CURVE SMOOTH",
"74 1460 LINE SMOOTH",
"31 1460 OFFCURVE",
"0 1429 OFFCURVE",
"0 1386 CURVE SMOOTH"
);
}
);
width = 584;
}
);
unicode = ECA1;
},
{
color = 4;
glyphname = "uniECA2";
lastChange = "2013-04-11 08:30:36 -0800";
layers = (
{
layerId = "ABCF47FB-41DD-418D-ADD0-B1CD0215F61B";
name = "Regular";
paths = (
{
closed = 1;
nodes = (
"824 579 OFFCURVE",
"1434 1045 OFFCURVE",
"1432 1043 CURVE",
"1407 1086 LINE",
"717 761 LINE",
"708 756 OFFCURVE",
"700 752 OFFCURVE",
"696 750 CURVE SMOOTH",
"664 730 OFFCURVE",
"647 696 OFFCURVE",
"647 661 CURVE SMOOTH",
"647 641 OFFCURVE",
"652 621 OFFCURVE",
"664 603 CURVE SMOOTH",
"685 572 OFFCURVE",
"719 555 OFFCURVE",
"755 555 CURVE SMOOTH",
"774 555 OFFCURVE",
"794 560 OFFCURVE",
"811 571 CURVE"
);
},
{
closed = 1;
nodes = (
"1336 1201 LINE",
"1319 1222 OFFCURVE",
"1300 1242 OFFCURVE",
"1281 1261 CURVE SMOOTH",
"1145 1398 OFFCURVE",
"959 1480 OFFCURVE",
"749 1480 CURVE SMOOTH",
"541 1480 OFFCURVE",
"358 1398 OFFCURVE",
"220 1261 CURVE SMOOTH",
"84 1123 OFFCURVE",
"0 938 OFFCURVE",
"0 730 CURVE SMOOTH",
"0 521 OFFCURVE",
"84 339 OFFCURVE",
"220 201 CURVE SMOOTH",
"232 189 OFFCURVE",
"244 178 OFFCURVE",
"256 167 CURVE",
"412 319 LINE",
"399 330 OFFCURVE",
"386 342 OFFCURVE",
"374 354 CURVE SMOOTH",
"276 452 OFFCURVE",
"217 580 OFFCURVE",
"217 728 CURVE SMOOTH",
"217 875 OFFCURVE",
"276 1006 OFFCURVE",
"374 1104 CURVE SMOOTH",
"472 1202 OFFCURVE",
"601 1261 OFFCURVE",
"749 1261 CURVE SMOOTH",
"897 1261 OFFCURVE",
"1029 1202 OFFCURVE",
"1125 1104 CURVE"
);
},
{
closed = 1;
nodes = (
"1281 755 LINE",
"1282 746 OFFCURVE",
"1282 737 OFFCURVE",
"1282 728 CURVE SMOOTH",
"1282 580 OFFCURVE",
"1223 452 OFFCURVE",
"1125 354 CURVE SMOOTH",
"1113 342 OFFCURVE",
"1101 330 OFFCURVE",
"1088 319 CURVE",
"1242 165 LINE SMOOTH",
"1255 176 OFFCURVE",
"1268 188 OFFCURVE",
"1281 201 CURVE SMOOTH",
"1420 339 OFFCURVE",
"1500 521 OFFCURVE",
"1500 730 CURVE SMOOTH",
"1500 792 OFFCURVE",
"1493 852 OFFCURVE",
"1479 909 CURVE SMOOTH"
);
}
);
width = 1500;
}
);
unicode = ECA2;
},
{
color = 4;
glyphname = "uniECA3";
lastChange = "2013-04-11 08:30:34 -0800";
layers = (
{
layerId = "ABCF47FB-41DD-418D-ADD0-B1CD0215F61B";
name = "Regular";
paths = (
{
closed = 1;
nodes = (
"336 1469 OFFCURVE",
"9 1361 OFFCURVE",
"9 1241 CURVE SMOOTH",
"9 1121 OFFCURVE",
"336 1015 OFFCURVE",
"730 1015 CURVE SMOOTH",
"1124 1015 OFFCURVE",
"1452 1121 OFFCURVE",
"1452 1241 CURVE SMOOTH",
"1452 1361 OFFCURVE",
"1125 1469 OFFCURVE",
"730 1469 CURVE SMOOTH"
);
},
{
closed = 1;
nodes = (
"1456 981 OFFCURVE",
"1211 894 OFFCURVE",
"876 876 CURVE",
"876 657 LINE",
"1095 657 LINE",
"730 292 LINE",
"365 657 LINE",
"585 657 LINE",
"585 877 LINE",
"254 897 OFFCURVE",
"0 984 OFFCURVE",
"0 1090 CURVE",
"2 219 LINE SMOOTH",
"2 100 OFFCURVE",
"327 -11 OFFCURVE",
"730 -11 CURVE SMOOTH",
"1133 -11 OFFCURVE",
"1460 100 OFFCURVE",
"1460 219 CURVE SMOOTH",
"1460 1090 LINE",
"1460 1089 OFFCURVE",
"1460 1089 OFFCURVE",
"1460 1088 CURVE SMOOTH"
);
}
);
width = 1460;
}
);
unicode = ECA3;
},
{
color = 4;
glyphname = "uniECA4";
lastChange = "2013-04-11 08:30:34 -0800";
layers = (
{
layerId = "ABCF47FB-41DD-418D-ADD0-B1CD0215F61B";
name = "Regular";
paths = (
{
closed = 1;
nodes = (
"336 1469 OFFCURVE",
"9 1361 OFFCURVE",
"9 1241 CURVE SMOOTH",
"9 1121 OFFCURVE",
"336 1015 OFFCURVE",
"730 1015 CURVE SMOOTH",
"1124 1015 OFFCURVE",
"1452 1121 OFFCURVE",
"1452 1241 CURVE SMOOTH",
"1452 1361 OFFCURVE",
"1125 1469 OFFCURVE",
"730 1469 CURVE SMOOTH"
);
},
{
closed = 1;
nodes = (
"1456 981 OFFCURVE",
"1211 894 OFFCURVE",
"876 876 CURVE",
"585 877 LINE",
"254 897 OFFCURVE",
"0 984 OFFCURVE",
"0 1090 CURVE",
"2 219 LINE SMOOTH",
"2 100 OFFCURVE",
"327 -11 OFFCURVE",
"730 -11 CURVE SMOOTH",
"1133 -11 OFFCURVE",
"1460 100 OFFCURVE",
"1460 219 CURVE SMOOTH",
"1460 1090 LINE",
"1460 1089 OFFCURVE",
"1460 1089 OFFCURVE",
"1460 1088 CURVE SMOOTH"
);
}
);
width = 1460;
}
);
unicode = ECA4;
},
{
color = 4;
glyphname = "uniECA5";
lastChange = "2013-04-11 08:30:34 -0800";
layers = (
{
layerId = "ABCF47FB-41DD-418D-ADD0-B1CD0215F61B";
name = "Regular";
paths = (
{
closed = 1;
nodes = (
"667 217 OFFCURVE",
"585 299 OFFCURVE",
"585 400 CURVE SMOOTH",
"585 500 OFFCURVE",
"667 582 OFFCURVE",
"768 582 CURVE SMOOTH",
"868 582 OFFCURVE",
"950 500 OFFCURVE",
"950 400 CURVE SMOOTH",
"950 299 OFFCURVE",
"868 217 OFFCURVE",
"768 217 CURVE SMOOTH"
);
},
{
closed = 1;
nodes = (
"877 1349 LINE SMOOTH",
"877 1413 OFFCURVE",
"832 1460 OFFCURVE",
"769 1460 CURVE SMOOTH",
"705 1460 OFFCURVE",
"658 1413 OFFCURVE",
"658 1349 CURVE SMOOTH",
"658 631 LINE",
"571 590 OFFCURVE",
"511 502 OFFCURVE",
"511 400 CURVE SMOOTH",
"511 297 OFFCURVE",
"571 209 OFFCURVE",
"658 168 CURVE",
"658 111 LINE SMOOTH",
"658 47 OFFCURVE",
"703 0 OFFCURVE",
"766 0 CURVE SMOOTH",
"830 0 OFFCURVE",
"877 47 OFFCURVE",
"877 111 CURVE SMOOTH",
"877 169 LINE",
"963 210 OFFCURVE",
"1022 298 OFFCURVE",
"1022 400 CURVE SMOOTH",
"1022 501 OFFCURVE",
"963 589 OFFCURVE",
"877 630 CURVE"
);
},
{
closed = 1;
nodes = (
"155 728 OFFCURVE",
"73 810 OFFCURVE",
"73 911 CURVE SMOOTH",
"73 1011 OFFCURVE",
"155 1093 OFFCURVE",
"256 1093 CURVE SMOOTH",
"356 1093 OFFCURVE",
"438 1011 OFFCURVE",
"438 911 CURVE SMOOTH",
"438 810 OFFCURVE",
"356 728 OFFCURVE",
"256 728 CURVE SMOOTH"
);
},
{
closed = 1;
nodes = (
"366 1349 LINE SMOOTH",
"366 1413 OFFCURVE",
"321 1460 OFFCURVE",
"258 1460 CURVE SMOOTH",
"194 1460 OFFCURVE",
"147 1413 OFFCURVE",
"147 1349 CURVE SMOOTH",
"147 1142 LINE",
"60 1101 OFFCURVE",
"0 1013 OFFCURVE",
"0 911 CURVE SMOOTH",
"0 808 OFFCURVE",
"60 720 OFFCURVE",
"147 679 CURVE",
"147 111 LINE SMOOTH",
"147 47 OFFCURVE",
"192 0 OFFCURVE",
"255 0 CURVE SMOOTH",
"319 0 OFFCURVE",
"366 47 OFFCURVE",
"366 111 CURVE SMOOTH",
"366 680 LINE",
"452 721 OFFCURVE",
"511 809 OFFCURVE",
"511 911 CURVE SMOOTH",
"511 1012 OFFCURVE",
"452 1100 OFFCURVE",
"366 1141 CURVE"
);
},
{
closed = 1;
nodes = (
"1178 876 OFFCURVE",
"1096 958 OFFCURVE",
"1096 1059 CURVE SMOOTH",
"1096 1159 OFFCURVE",
"1178 1241 OFFCURVE",
"1279 1241 CURVE SMOOTH",
"1379 1241 OFFCURVE",
"1461 1159 OFFCURVE",
"1461 1059 CURVE SMOOTH",
"1461 958 OFFCURVE",
"1379 876 OFFCURVE",
"1279 876 CURVE SMOOTH"
);
},
{
closed = 1;
nodes = (
"1388 1349 LINE SMOOTH",
"1388 1413 OFFCURVE",
"1343 1460 OFFCURVE",
"1280 1460 CURVE SMOOTH",
"1216 1460 OFFCURVE",
"1169 1413 OFFCURVE",
"1169 1349 CURVE SMOOTH",
"1169 1290 LINE",
"1082 1249 OFFCURVE",
"1022 1161 OFFCURVE",
"1022 1059 CURVE SMOOTH",
"1022 956 OFFCURVE",
"1082 868 OFFCURVE",
"1169 827 CURVE",
"1169 111 LINE SMOOTH",
"1169 47 OFFCURVE",
"1214 0 OFFCURVE",
"1277 0 CURVE SMOOTH",
"1341 0 OFFCURVE",
"1388 47 OFFCURVE",
"1388 111 CURVE SMOOTH",
"1388 828 LINE",
"1474 869 OFFCURVE",
"1533 957 OFFCURVE",
"1533 1059 CURVE SMOOTH",
"1533 1160 OFFCURVE",
"1474 1248 OFFCURVE",
"1388 1289 CURVE"
);
}
);
width = 1533;
}
);
unicode = ECA5;
},
{
color = 4;
glyphname = "uniECA6";
lastChange = "2013-04-11 08:30:34 -0800";
layers = (
{
layerId = "ABCF47FB-41DD-418D-ADD0-B1CD0215F61B";
name = "Regular";
paths = (
{
closed = 1;
nodes = (
"156 219 OFFCURVE",
"75 301 OFFCURVE",
"75 402 CURVE SMOOTH",
"75 502 OFFCURVE",
"156 584 OFFCURVE",
"257 584 CURVE SMOOTH",
"358 584 OFFCURVE",
"440 502 OFFCURVE",
"440 402 CURVE SMOOTH",
"440 301 OFFCURVE",
"358 219 OFFCURVE",
"257 219 CURVE SMOOTH"
);
},
{
closed = 1;
nodes = (
"629 1020 OFFCURVE",
"548 1102 OFFCURVE",
"548 1203 CURVE SMOOTH",
"548 1303 OFFCURVE",
"629 1385 OFFCURVE",
"730 1385 CURVE SMOOTH",
"831 1385 OFFCURVE",
"913 1303 OFFCURVE",
"913 1203 CURVE SMOOTH",
"913 1102 OFFCURVE",
"831 1020 OFFCURVE",
"730 1020 CURVE SMOOTH"
);
},
{
closed = 1;
nodes = (
"1103 219 OFFCURVE",
"1022 301 OFFCURVE",
"1022 402 CURVE SMOOTH",
"1022 502 OFFCURVE",
"1103 584 OFFCURVE",
"1204 584 CURVE SMOOTH",
"1305 584 OFFCURVE",
"1387 502 OFFCURVE",
"1387 402 CURVE SMOOTH",
"1387 301 OFFCURVE",
"1305 219 OFFCURVE",
"1204 219 CURVE SMOOTH"
);
},
{
closed = 1;
nodes = (
"1385.66 608.415 OFFCURVE",
"1387 632.551 OFFCURVE",
"1387 657 CURVE SMOOTH",
"1387 933.476 OFFCURVE",
"1216.24 1170.06 OFFCURVE",
"974.426 1267.03 CURVE",
"946.773 1377.98 OFFCURVE",
"846.6 1460 OFFCURVE",
"727 1460 CURVE SMOOTH",
"605.407 1460 OFFCURVE",
"504.344 1376.41 OFFCURVE",
"477.808 1263.86 CURVE",
"240.116 1164.97 OFFCURVE",
"73 930.506 OFFCURVE",
"73 657 CURVE SMOOTH",
"73 632.512 OFFCURVE",
"74.3406 608.336 OFFCURVE",
"76.9508 584.543 CURVE",
"29.4059 538.258 OFFCURVE",
"0 473.611 OFFCURVE",
"0 402 CURVE SMOOTH",
"0 260 OFFCURVE",
"114 146 OFFCURVE",
"256 146 CURVE SMOOTH",
"274.547 146 OFFCURVE",
"292.626 147.973 OFFCURVE",
"310.04 151.722 CURVE",
"423.903 56.9811 OFFCURVE",
"570.296 0 OFFCURVE",
"730 0 CURVE SMOOTH",
"889.769 0 OFFCURVE",
"1036.21 57.0258 OFFCURVE",
"1150.1 151.833 CURVE",
"1167.77 148.011 OFFCURVE",
"1186.14 146 OFFCURVE",
"1205 146 CURVE SMOOTH",
"1346 146 OFFCURVE",
"1460 260 OFFCURVE",
"1460 402 CURVE SMOOTH",
"1460 473.671 OFFCURVE",
"1430.55 538.365 OFFCURVE",
"1383.06 584.658 CURVE"
);
},
{
closed = 1;
nodes = (
"502.328 325.8 OFFCURVE",
"511 362.835 OFFCURVE",
"511 402 CURVE SMOOTH",
"511 530.775 OFFCURVE",
"415.91 637.03 OFFCURVE",
"292.008 654.486 CURVE",
"292 657 LINE",
"292 825.468 OFFCURVE",
"387.199 971.775 OFFCURVE",
"526.717 1045.04 CURVE",
"573.518 986.4 OFFCURVE",
"645.666 949 OFFCURVE",
"727 949 CURVE SMOOTH",
"808.924 949 OFFCURVE",
"881.732 987.484 OFFCURVE",
"928.362 1047.58 CURVE",
"1070.56 975.2 OFFCURVE",
"1168 827.442 OFFCURVE",
"1168 657 CURVE SMOOTH",
"1167.99 654.378 LINE",
"1043.7 636.596 OFFCURVE",
"949 530.513 OFFCURVE",
"949 402 CURVE SMOOTH",
"949 362.839 OFFCURVE",
"957.671 325.808 OFFCURVE",
"973.207 292.71 CURVE",
"903.626 246.154 OFFCURVE",
"819.974 219 OFFCURVE",
"730 219 CURVE SMOOTH",
"640.033 219 OFFCURVE",
"556.387 246.15 OFFCURVE",
"486.809 292.7 CURVE"
);
}
);
width = 1460;
}
);
unicode = ECA6;
},
{
color = 4;
glyphname = "uniECA7";
lastChange = "2013-04-11 08:30:34 -0800";
layers = (
{
layerId = "ABCF47FB-41DD-418D-ADD0-B1CD0215F61B";
name = "Regular";
paths = (
{
closed = 1;
nodes = (
"510 293 LINE SMOOTH",
"510 250 OFFCURVE",
"541 219 OFFCURVE",
"584 219 CURVE SMOOTH",
"1386 219 LINE SMOOTH",
"1429 219 OFFCURVE",
"1460 250 OFFCURVE",
"1460 293 CURVE SMOOTH",
"1460 364 LINE SMOOTH",
"1460 407 OFFCURVE",
"1429 438 OFFCURVE",
"1386 438 CURVE SMOOTH",
"584 438 LINE SMOOTH",
"541 438 OFFCURVE",
"510 407 OFFCURVE",
"510 364 CURVE SMOOTH"
);
},
{
closed = 1;
nodes = (
"510 731 LINE SMOOTH",
"510 688 OFFCURVE",
"541 657 OFFCURVE",
"584 657 CURVE SMOOTH",
"1386 657 LINE SMOOTH",
"1429 657 OFFCURVE",
"1460 688 OFFCURVE",
"1460 731 CURVE SMOOTH",
"1460 802 LINE SMOOTH",
"1460 845 OFFCURVE",
"1429 876 OFFCURVE",
"1386 876 CURVE SMOOTH",
"584 876 LINE SMOOTH",
"541 876 OFFCURVE",
"510 845 OFFCURVE",
"510 802 CURVE SMOOTH"
);
},
{
closed = 1;
nodes = (
"510 1169 LINE SMOOTH",
"510 1126 OFFCURVE",
"541 1095 OFFCURVE",
"584 1095 CURVE SMOOTH",
"1386 1095 LINE SMOOTH",
"1429 1095 OFFCURVE",
"1460 1126 OFFCURVE",
"1460 1169 CURVE SMOOTH",
"1460 1240 LINE SMOOTH",
"1460 1283 OFFCURVE",
"1429 1314 OFFCURVE",
"1386 1314 CURVE SMOOTH",
"584 1314 LINE SMOOTH",
"541 1314 OFFCURVE",
"510 1283 OFFCURVE",
"510 1240 CURVE SMOOTH"
);
},
{
closed = 1;
nodes = (
"0 293 LINE SMOOTH",
"0 250 OFFCURVE",
"31 219 OFFCURVE",
"74 219 CURVE SMOOTH",
"218 219 LINE SMOOTH",
"261 219 OFFCURVE",
"292 250 OFFCURVE",
"292 293 CURVE SMOOTH",
"292 364 LINE SMOOTH",
"292 407 OFFCURVE",
"261 438 OFFCURVE",
"218 438 CURVE SMOOTH",
"74 438 LINE SMOOTH",
"31 438 OFFCURVE",
"0 407 OFFCURVE",
"0 364 CURVE SMOOTH"
);
},
{
closed = 1;
nodes = (
"0 731 LINE SMOOTH",
"0 688 OFFCURVE",
"31 657 OFFCURVE",
"74 657 CURVE SMOOTH",
"218 657 LINE SMOOTH",
"261 657 OFFCURVE",
"292 688 OFFCURVE",
"292 731 CURVE SMOOTH",
"292 802 LINE SMOOTH",
"292 845 OFFCURVE",
"261 876 OFFCURVE",
"218 876 CURVE SMOOTH",
"74 876 LINE SMOOTH",
"31 876 OFFCURVE",
"0 845 OFFCURVE",
"0 802 CURVE SMOOTH"
);
},
{
closed = 1;
nodes = (
"0 1169 LINE SMOOTH",
"0 1126 OFFCURVE",
"31 1095 OFFCURVE",
"74 1095 CURVE SMOOTH",
"218 1095 LINE SMOOTH",
"261 1095 OFFCURVE",
"292 1126 OFFCURVE",
"292 1169 CURVE SMOOTH",
"292 1240 LINE SMOOTH",
"292 1283 OFFCURVE",
"261 1314 OFFCURVE",
"218 1314 CURVE SMOOTH",
"74 1314 LINE SMOOTH",
"31 1314 OFFCURVE",
"0 1283 OFFCURVE",
"0 1240 CURVE SMOOTH"
);
}
);
width = 1460;
}
);
unicode = ECA7;
},
{
color = 4;
glyphname = "uniECA8";
lastChange = "2013-04-11 08:30:34 -0800";
layers = (
{
layerId = "ABCF47FB-41DD-418D-ADD0-B1CD0215F61B";
name = "Regular";
paths = (
{
closed = 1;
nodes = (
"586 949 LINE",
"220 949 LINE",
"219 1242 LINE",
"586 1242 LINE"
);
},
{
closed = 1;
nodes = (
"0 74 LINE SMOOTH",
"0 31 OFFCURVE",
"31 0 OFFCURVE",
"74 0 CURVE SMOOTH",
"1607 0 LINE SMOOTH",
"1650 0 OFFCURVE",
"1681 31 OFFCURVE",
"1681 74 CURVE SMOOTH",
"1681 1386 LINE SMOOTH",
"1681 1429 OFFCURVE",
"1650 1460 OFFCURVE",
"1607 1460 CURVE SMOOTH",
"74 1460 LINE SMOOTH",
"31 1460 OFFCURVE",
"0 1429 OFFCURVE",
"0 1386 CURVE SMOOTH"
);
},
{
closed = 1;
nodes = (
"586 584 LINE",
"220 584 LINE",
"219 877 LINE",
"586 877 LINE"
);
},
{
closed = 1;
nodes = (
"586 219 LINE",
"220 219 LINE",
"219 512 LINE",
"586 512 LINE"
);
},
{
closed = 1;
nodes = (
"1024 949 LINE",
"659 949 LINE",
"658 1242 LINE",
"1024 1242 LINE"
);
},
{
closed = 1;
nodes = (
"1024 584 LINE",
"659 584 LINE",
"658 877 LINE",
"1024 877 LINE"
);
},
{
closed = 1;
nodes = (
"1024 219 LINE",
"659 219 LINE",
"658 512 LINE",
"1024 512 LINE"
);
},
{
closed = 1;
nodes = (
"1462 949 LINE",
"1097 949 LINE",
"1096 1242 LINE",
"1462 1242 LINE"
);
},
{
closed = 1;
nodes = (
"1462 584 LINE",
"1097 584 LINE",
"1096 877 LINE",
"1462 877 LINE"
);
},
{
closed = 1;
nodes = (
"1462 219 LINE",
"1097 219 LINE",
"1096 512 LINE",
"1462 512 LINE"
);
}
);
width = 1681;
}
);
unicode = ECA8;
},
{
color = 4;
glyphname = "uniECA9";
lastChange = "2013-04-11 08:30:34 -0800";
layers = (
{
layerId = "ABCF47FB-41DD-418D-ADD0-B1CD0215F61B";
name = "Regular";
paths = (
{
closed = 1;
nodes = (
"0 74 LINE SMOOTH",
"0 31 OFFCURVE",
"31 0 OFFCURVE",
"74 0 CURVE SMOOTH",
"1386 0 LINE SMOOTH",
"1429 0 OFFCURVE",
"1460 31 OFFCURVE",
"1460 74 CURVE SMOOTH",
"1460 1460 LINE",
"1095 949 LINE",
"803 949 LINE",
"511 438 LINE",
"146 511 LINE",
"0 125 LINE"
);
}
);
width = 1460;
}
);
unicode = ECA9;
},
{
color = 4;
glyphname = "uniECAA";
lastChange = "2013-04-11 08:30:34 -0800";
layers = (
{
layerId = "ABCF47FB-41DD-418D-ADD0-B1CD0215F61B";
name = "Regular";
paths = (
{
closed = 1;
nodes = (
"0 3 LINE",
"656 3 LINE SMOOTH",
"699 3 OFFCURVE",
"730 34 OFFCURVE",
"730 77 CURVE SMOOTH",
"730 291 LINE SMOOTH",
"730 334 OFFCURVE",
"699 365 OFFCURVE",
"656 365 CURVE SMOOTH",
"0 365 LINE"
);
},
{
closed = 1;
nodes = (
"0 507 LINE",
"1022 507 LINE SMOOTH",
"1065 507 OFFCURVE",
"1096 538 OFFCURVE",
"1096 581 CURVE SMOOTH",
"1096 799 LINE SMOOTH",
"1096 842 OFFCURVE",
"1065 873 OFFCURVE",
"1022 873 CURVE SMOOTH",
"0 873 LINE"
);
},
{
closed = 1;
nodes = (
"0 1018 LINE",
"1386 1018 LINE SMOOTH",
"1429 1018 OFFCURVE",
"1460 1049 OFFCURVE",
"1460 1237 CURVE SMOOTH",
"1460 1312 LINE SMOOTH",
"1460 1355 OFFCURVE",
"1429 1383 OFFCURVE",
"1386 1383 CURVE SMOOTH",
"0 1383 LINE"
);
}
);
width = 1460;
}
);
unicode = ECAA;
},
{
color = 4;
glyphname = "uniECAB";
lastChange = "2013-04-11 08:30:34 -0800";
layers = (
{
layerId = "ABCF47FB-41DD-418D-ADD0-B1CD0215F61B";
name = "Regular";
paths = (
{
closed = 1;
nodes = (
"362 654 LINE SMOOTH",
"362 697 OFFCURVE",
"331 728 OFFCURVE",
"288 728 CURVE SMOOTH",
"74 728 LINE SMOOTH",
"31 728 OFFCURVE",
"0 697 OFFCURVE",
"0 654 CURVE SMOOTH",
"0 0 LINE",
"362 0 LINE"
);
},
{
closed = 1;
nodes = (
"870 1022 LINE SMOOTH",
"870 1065 OFFCURVE",
"839 1096 OFFCURVE",
"796 1096 CURVE SMOOTH",
"578 1096 LINE SMOOTH",
"535 1096 OFFCURVE",
"504 1065 OFFCURVE",
"504 1022 CURVE SMOOTH",
"504 0 LINE",
"870 0 LINE"
);
},
{
closed = 1;
nodes = (
"1380 1386 LINE SMOOTH",
"1380 1429 OFFCURVE",
"1352 1460 OFFCURVE",
"1309 1460 CURVE",
"1089 1460 LINE SMOOTH",
"1046 1460 OFFCURVE",
"1015 1429 OFFCURVE",
"1015 1386 CURVE SMOOTH",
"1015 0 LINE",
"1380 0 LINE"
);
}
);
width = 1380;
}
);
unicode = ECAB;
},
{
color = 4;
glyphname = "uniECAC";
lastChange = "2013-04-11 08:30:34 -0800";
layers = (
{
layerId = "ABCF47FB-41DD-418D-ADD0-B1CD0215F61B";
name = "Regular";
paths = (
{
closed = 1;
nodes = (
"673 666 LINE",
"1342 664 LINE",
"1342 478 OFFCURVE",
"1269 310 OFFCURVE",
"1153 188 CURVE SMOOTH",
"1034 65 OFFCURVE",
"858 -13 OFFCURVE",
"673 -16 CURVE SMOOTH",
"487 -20 OFFCURVE",
"329 54 OFFCURVE",
"205 176 CURVE SMOOTH",
"81 294 OFFCURVE",
"0 459 OFFCURVE",
"0 645 CURVE",
"-4 834 OFFCURVE",
"70 1001 OFFCURVE",
"191 1124 CURVE SMOOTH",
"306 1247 OFFCURVE",
"488 1324 OFFCURVE",
"673 1326 CURVE"
);
},
{
closed = 1;
nodes = (
"1007 1473 OFFCURVE",
"1173 1401 OFFCURVE",
"1298 1281 CURVE SMOOTH",
"1425 1163 OFFCURVE",
"1501 994 OFFCURVE",
"1503 809 CURVE",
"820 810 LINE",
"819 1470 LINE"
);
}
);
width = 1503;
}
);
unicode = ECAC;
},
{
color = 4;
glyphname = "uniECAD";
lastChange = "2013-04-11 08:30:36 -0800";
layers = (
{
layerId = "ABCF47FB-41DD-418D-ADD0-B1CD0215F61B";
name = "Regular";
paths = (
{
closed = 1;
nodes = (
"0 1460 LINE",
"0 74 LINE SMOOTH",
"0 31 OFFCURVE",
"31 0 OFFCURVE",
"74 0 CURVE SMOOTH",
"1460 0 LINE",
"1460 146 LINE",
"146 146 LINE",
"146 1460 LINE"
);
},
{
closed = 1;
nodes = (
"270 438 OFFCURVE",
"221 389 OFFCURVE",
"221 328 CURVE SMOOTH",
"221 268 OFFCURVE",
"270 219 OFFCURVE",
"331 219 CURVE SMOOTH",
"391 219 OFFCURVE",
"440 268 OFFCURVE",
"440 328 CURVE SMOOTH",
"440 389 OFFCURVE",
"391 438 OFFCURVE",
"331 438 CURVE SMOOTH"
);
},
{
closed = 1;
nodes = (
"560 474 OFFCURVE",
"511 425 OFFCURVE",
"511 364 CURVE SMOOTH",
"511 304 OFFCURVE",
"560 255 OFFCURVE",
"621 255 CURVE SMOOTH",
"681 255 OFFCURVE",
"730 304 OFFCURVE",
"730 364 CURVE SMOOTH",
"730 425 OFFCURVE",
"681 474 OFFCURVE",
"621 474 CURVE SMOOTH"
);
},
{
closed = 1;
nodes = (
"343 839 OFFCURVE",
"294 790 OFFCURVE",
"294 729 CURVE SMOOTH",
"294 669 OFFCURVE",
"343 620 OFFCURVE",
"404 620 CURVE SMOOTH",
"464 620 OFFCURVE",
"513 669 OFFCURVE",
"513 729 CURVE SMOOTH",
"513 790 OFFCURVE",
"464 839 OFFCURVE",
"404 839 CURVE SMOOTH"
);
},
{
closed = 1;
nodes = (
"560 1058 OFFCURVE",
"511 1009 OFFCURVE",
"511 948 CURVE SMOOTH",
"511 888 OFFCURVE",
"560 839 OFFCURVE",
"621 839 CURVE SMOOTH",
"681 839 OFFCURVE",
"730 888 OFFCURVE",
"730 948 CURVE SMOOTH",
"730 1009 OFFCURVE",
"681 1058 OFFCURVE",
"621 1058 CURVE SMOOTH"
);
},
{
closed = 1;
nodes = (
"779 839 OFFCURVE",
"730 790 OFFCURVE",
"730 729 CURVE SMOOTH",
"730 669 OFFCURVE",
"779 620 OFFCURVE",
"840 620 CURVE SMOOTH",
"900 620 OFFCURVE",
"949 669 OFFCURVE",
"949 729 CURVE SMOOTH",
"949 790 OFFCURVE",
"900 839 OFFCURVE",
"840 839 CURVE SMOOTH"
);
},
{
closed = 1;
nodes = (
"1071 950 OFFCURVE",
"1022 901 OFFCURVE",
"1022 840 CURVE SMOOTH",
"1022 780 OFFCURVE",
"1071 731 OFFCURVE",
"1132 731 CURVE SMOOTH",
"1192 731 OFFCURVE",
"1241 780 OFFCURVE",
"1241 840 CURVE SMOOTH",
"1241 901 OFFCURVE",
"1192 950 OFFCURVE",
"1132 950 CURVE SMOOTH"
);
},
{
closed = 1;
nodes = (
"998 1242 OFFCURVE",
"949 1193 OFFCURVE",
"949 1132 CURVE SMOOTH",
"949 1072 OFFCURVE",
"998 1023 OFFCURVE",
"1059 1023 CURVE SMOOTH",
"1119 1023 OFFCURVE",
"1168 1072 OFFCURVE",
"1168 1132 CURVE SMOOTH",
"1168 1193 OFFCURVE",
"1119 1242 OFFCURVE",
"1059 1242 CURVE SMOOTH"
);
},
{
closed = 1;
nodes = (
"1217 1387 OFFCURVE",
"1168 1338 OFFCURVE",
"1168 1277 CURVE SMOOTH",
"1168 1217 OFFCURVE",
"1217 1168 OFFCURVE",
"1278 1168 CURVE SMOOTH",
"1338 1168 OFFCURVE",
"1387 1217 OFFCURVE",
"1387 1277 CURVE SMOOTH",
"1387 1338 OFFCURVE",
"1338 1387 OFFCURVE",
"1278 1387 CURVE SMOOTH"
);
}
);
width = 1460;
}
);
unicode = ECAD;
},
{
color = 4;
glyphname = "uniECAE";
lastChange = "2013-04-11 08:30:34 -0800";
layers = (
{
guideLines = (
{
position = "{-100, 0}";
},
{
position = "{-100, 0}";
}
);
layerId = "ABCF47FB-41DD-418D-ADD0-B1CD0215F61B";
name = "Regular";
paths = (
{
closed = 1;
nodes = (
"0 578 LINE",
"640 737 LINE",
"920 1096 LINE",
"1193 1095 LINE",
"1460 1292 LINE",
"1460 1464 LINE",
"1148 1241 LINE",
"845 1242 LINE",
"547 872 LINE",
"0 732 LINE"
);
},
{
closed = 1;
nodes = (
"862 582 LINE",
"560 582 LINE",
"268 365 LINE",
"0 365 LINE",
"0 219 LINE",
"318 219 LINE",
"606 436 LINE",
"901 436 LINE",
"1460 652 LINE",
"1460 818 LINE"
);
},
{
closed = 1;
nodes = (
"861.714 321.621 LINE",
"578.191 146 LINE",
"0 146 LINE",
"0 0 LINE",
"618.835 0 LINE",
"881.313 161.736 LINE",
"1151.83 73 LINE",
"1460 73 LINE",
"1460 219 LINE",
"1175.28 219 LINE"
);
}
);
width = 1460;
}
);
unicode = ECAE;
},
{
color = 4;
glyphname = "uniECAF";
lastChange = "2013-04-11 08:30:34 -0800";
layers = (
{
layerId = "ABCF47FB-41DD-418D-ADD0-B1CD0215F61B";
name = "Regular";
paths = (
{
closed = 1;
nodes = (
"0 564 LINE",
"424 1243 LINE",
"631 1243 LINE",
"631 599 LINE",
"746 599 LINE",
"746 442 LINE",
"631 442 LINE",
"631 219 LINE",
"427 219 LINE",
"427 442 LINE",
"9 442 LINE"
);
},
{
closed = 1;
nodes = (
"186 599 LINE",
"427 599 LINE",
"427 971 LINE",
"424 973 LINE",
"401 927 LINE"
);
},
{
closed = 1;
nodes = (
"764 921 LINE",
"760 1101 OFFCURVE",
"892 1243 OFFCURVE",
"1099 1243 CURVE SMOOTH",
"1307 1243 OFFCURVE",
"1427 1128 OFFCURVE",
"1427 950 CURVE SMOOTH",
"1427 828 OFFCURVE",
"1370 755 OFFCURVE",
"1213 578 CURVE SMOOTH",
"1048 379 LINE",
"1048 373 LINE",
"1460 373 LINE",
"1460 219 LINE",
"784 219 LINE",
"784 352 LINE",
"1096 704 LINE SMOOTH",
"1190 815 OFFCURVE",
"1224 886 OFFCURVE",
"1224 950 CURVE SMOOTH",
"1224 1032 OFFCURVE",
"1182 1086 OFFCURVE",
"1099 1086 CURVE SMOOTH",
"1011 1086 OFFCURVE",
"963 1015 OFFCURVE",
"963 916 CURVE",
"767 916 LINE"
);
}
);
width = 1460;
}
);
unicode = ECAF;
},
{
color = 4;
glyphname = "uniECB0";
lastChange = "2013-04-11 08:30:34 -0800";
layers = (
{
layerId = "ABCF47FB-41DD-418D-ADD0-B1CD0215F61B";
name = "Regular";
paths = (
{
closed = 1;
nodes = (
"74 1460 LINE SMOOTH",
"31 1460 OFFCURVE",
"0 1429 OFFCURVE",
"0 1386 CURVE SMOOTH",
"0 73 LINE SMOOTH",
"0 30 OFFCURVE",
"31 -1 OFFCURVE",
"74 -1 CURVE SMOOTH",
"510 -1 LINE SMOOTH",
"553 -1 OFFCURVE",
"584 30 OFFCURVE",
"584 73 CURVE SMOOTH",
"584 1386 LINE SMOOTH",
"584 1429 OFFCURVE",
"553 1460 OFFCURVE",
"510 1460 CURVE SMOOTH"
);
},
{
closed = 1;
nodes = (
"364 1355 OFFCURVE",
"395 1386 OFFCURVE",
"438 1386 CURVE SMOOTH",
"584 1386 LINE",
"584 1240 LINE",
"438 1240 LINE SMOOTH",
"395 1240 OFFCURVE",
"364 1271 OFFCURVE",
"364 1313 CURVE SMOOTH"
);
},
{
closed = 0;
nodes = (
"584 1094 LINE"
);
},
{
closed = 1;
nodes = (
"292 1063 OFFCURVE",
"323 1094 OFFCURVE",
"366 1094 CURVE SMOOTH",
"584 1094 LINE",
"584 948 LINE",
"366 948 LINE SMOOTH",
"323 948 OFFCURVE",
"292 979 OFFCURVE",
"292 1021 CURVE SMOOTH"
);
},
{
closed = 1;
nodes = (
"364 771 OFFCURVE",
"395 802 OFFCURVE",
"438 802 CURVE",
"584 802 LINE",
"584 656 LINE",
"438 656 LINE SMOOTH",
"395 656 OFFCURVE",
"364 687 OFFCURVE",
"364 729 CURVE SMOOTH"
);
},
{
closed = 1;
nodes = (
"292 479 OFFCURVE",
"323 510 OFFCURVE",
"366 510 CURVE SMOOTH",
"584 510 LINE",
"584 364 LINE",
"366 364 LINE SMOOTH",
"323 364 OFFCURVE",
"292 395 OFFCURVE",
"292 437 CURVE SMOOTH"
);
},
{
closed = 1;
nodes = (
"364 188 OFFCURVE",
"395 219 OFFCURVE",
"438 219 CURVE",
"584 219 LINE",
"584 73 LINE",
"438 73 LINE SMOOTH",
"395 73 OFFCURVE",
"364 104 OFFCURVE",
"364 146 CURVE SMOOTH"
);
}
);
width = 584;
}
);
unicode = ECB0;
},
{
color = 4;
glyphname = "uniECB1";
lastChange = "2013-04-11 08:30:34 -0800";
layers = (
{
layerId = "ABCF47FB-41DD-418D-ADD0-B1CD0215F61B";
name = "Regular";
paths = (
{
closed = 1;
nodes = (
"584 1313 LINE SMOOTH",
"584 1399 OFFCURVE",
"521 1462 OFFCURVE",
"435 1462 CURVE SMOOTH",
"294 1462 LINE SMOOTH",
"208 1462 OFFCURVE",
"145 1399 OFFCURVE",
"145 1313 CURVE SMOOTH",
"145 656.531 LINE",
"56.8462 589.98 OFFCURVE",
"0 484.291 OFFCURVE",
"0 365 CURVE SMOOTH",
"0 163 OFFCURVE",
"163 0 OFFCURVE",
"365 0 CURVE SMOOTH",
"567 0 OFFCURVE",
"730 163 OFFCURVE",
"730 365 CURVE SMOOTH",
"730 484.741 OFFCURVE",
"672.724 590.778 OFFCURVE",
"584 657.283 CURVE"
);
},
{
closed = 1;
nodes = (
"523.06 541.475 OFFCURVE",
"584 460.356 OFFCURVE",
"584 365 CURVE SMOOTH",
"584 244.048 OFFCURVE",
"485.952 146 OFFCURVE",
"365 146 CURVE SMOOTH",
"244.048 146 OFFCURVE",
"146 244.048 OFFCURVE",
"146 365 CURVE SMOOTH",
"146 460.356 OFFCURVE",
"206.94 541.475 OFFCURVE",
"292 571.539 CURVE",
"292 949 LINE SMOOTH",
"292 992 OFFCURVE",
"323 1023 OFFCURVE",
"365 1023 CURVE SMOOTH",
"407 1023 OFFCURVE",
"438 992 OFFCURVE",
"438 949 CURVE SMOOTH",
"438 571.539 LINE"
);
}
);
width = 730;
}
);
unicode = ECB1;
},
{
color = 4;
glyphname = "uniECB2";
lastChange = "2013-04-11 08:30:34 -0800";
layers = (
{
layerId = "ABCF47FB-41DD-418D-ADD0-B1CD0215F61B";
name = "Regular";
paths = (
{
closed = 1;
nodes = (
"0 74 LINE SMOOTH",
"0 31 OFFCURVE",
"31 0 OFFCURVE",
"74 0 CURVE SMOOTH",
"257 0 LINE SMOOTH",
"300 0 OFFCURVE",
"331 31 OFFCURVE",
"331 74 CURVE SMOOTH",
"331 437 LINE SMOOTH",
"331 480 OFFCURVE",
"300 511 OFFCURVE",
"257 511 CURVE SMOOTH",
"74 511 LINE SMOOTH",
"31 511 OFFCURVE",
"0 480 OFFCURVE",
"0 437 CURVE SMOOTH"
);
},
{
closed = 1;
nodes = (
"331 74 LINE SMOOTH",
"331 31 OFFCURVE",
"362 0 OFFCURVE",
"405 0 CURVE SMOOTH",
"583 0 LINE SMOOTH",
"626 0 OFFCURVE",
"657 31 OFFCURVE",
"657 74 CURVE SMOOTH",
"657 875 LINE SMOOTH",
"657 918 OFFCURVE",
"626 949 OFFCURVE",
"583 949 CURVE SMOOTH",
"405 949 LINE SMOOTH",
"362 949 OFFCURVE",
"331 918 OFFCURVE",
"331 875 CURVE SMOOTH"
);
},
{
closed = 1;
nodes = (
"803 74 LINE SMOOTH",
"803 31 OFFCURVE",
"834 0 OFFCURVE",
"877 0 CURVE SMOOTH",
"1058 0 LINE SMOOTH",
"1101 0 OFFCURVE",
"1132 31 OFFCURVE",
"1132 74 CURVE SMOOTH",
"1132 1386 LINE SMOOTH",
"1132 1429 OFFCURVE",
"1101 1460 OFFCURVE",
"1058 1460 CURVE SMOOTH",
"877 1460 LINE SMOOTH",
"834 1460 OFFCURVE",
"803 1429 OFFCURVE",
"803 1386 CURVE SMOOTH"
);
},
{
closed = 1;
nodes = (
"1132 74 LINE SMOOTH",
"1132 31 OFFCURVE",
"1163 0 OFFCURVE",
"1206 0 CURVE SMOOTH",
"1386 0 LINE SMOOTH",
"1429 0 OFFCURVE",
"1460 31 OFFCURVE",
"1460 74 CURVE SMOOTH",
"1460 1094 LINE SMOOTH",
"1460 1137 OFFCURVE",
"1429 1168 OFFCURVE",
"1386 1168 CURVE SMOOTH",
"1206 1168 LINE SMOOTH",
"1163 1168 OFFCURVE",
"1132 1137 OFFCURVE",
"1132 1094 CURVE SMOOTH"
);
},
{
closed = 1;
nodes = (
"257 438 LINE",
"257 73 LINE",
"72 73 LINE",
"72 438 LINE"
);
},
{
closed = 1;
nodes = (
"1059 1387 LINE",
"1059 73 LINE",
"876 73 LINE",
"876 1387 LINE"
);
}
);
width = 1460;
}
);
unicode = ECB2;
},
{
color = 4;
glyphname = "uniECB3";
lastChange = "2013-04-11 08:30:34 -0800";
layers = (
{
layerId = "ABCF47FB-41DD-418D-ADD0-B1CD0215F61B";
name = "Regular";
paths = (
{
closed = 1;
nodes = (
"0 74 LINE SMOOTH",
"0 31 OFFCURVE",
"31 0 OFFCURVE",
"74 0 CURVE SMOOTH",
"437 0 LINE SMOOTH",
"480 0 OFFCURVE",
"511 31 OFFCURVE",
"511 74 CURVE SMOOTH",
"511 875 LINE SMOOTH",
"511 918 OFFCURVE",
"480 949 OFFCURVE",
"437 949 CURVE SMOOTH",
"74 949 LINE SMOOTH",
"31 949 OFFCURVE",
"0 918 OFFCURVE",
"0 875 CURVE SMOOTH"
);
},
{
closed = 1;
nodes = (
"657 74 LINE SMOOTH",
"657 31 OFFCURVE",
"688 0 OFFCURVE",
"731 0 CURVE SMOOTH",
"1094 0 LINE SMOOTH",
"1137 0 OFFCURVE",
"1168 31 OFFCURVE",
"1168 74 CURVE SMOOTH",
"1168 1386 LINE SMOOTH",
"1168 1429 OFFCURVE",
"1137 1460 OFFCURVE",
"1094 1460 CURVE SMOOTH",
"731 1460 LINE SMOOTH",
"688 1460 OFFCURVE",
"657 1429 OFFCURVE",
"657 1386 CURVE SMOOTH"
);
},
{
closed = 1;
nodes = (
"438 438 LINE",
"438 73 LINE",
"73 73 LINE",
"73 438 LINE"
);
},
{
closed = 1;
nodes = (
"1095 949 LINE",
"1095 73 LINE",
"730 73 LINE",
"730 949 LINE"
);
}
);
width = 1168;
}
);
unicode = ECB3;
},
{
color = 4;
glyphname = "uniECB4";
lastChange = "2013-04-11 08:30:34 -0800";
layers = (
{
layerId = "ABCF47FB-41DD-418D-ADD0-B1CD0215F61B";
name = "Regular";
paths = (
{
closed = 1;
nodes = (
"0 74 LINE SMOOTH",
"0 31 OFFCURVE",
"31 0 OFFCURVE",
"74 0 CURVE SMOOTH",
"437 0 LINE SMOOTH",
"480 0 OFFCURVE",
"511 31 OFFCURVE",
"511 74 CURVE SMOOTH",
"511 1386 LINE SMOOTH",
"511 1429 OFFCURVE",
"480 1460 OFFCURVE",
"437 1460 CURVE SMOOTH",
"74 1460 LINE SMOOTH",
"31 1460 OFFCURVE",
"0 1429 OFFCURVE",
"0 1386 CURVE SMOOTH"
);
},
{
closed = 1;
nodes = (
"657 74 LINE SMOOTH",
"657 31 OFFCURVE",
"688 0 OFFCURVE",
"731 0 CURVE SMOOTH",
"1094 0 LINE SMOOTH",
"1137 0 OFFCURVE",
"1168 31 OFFCURVE",
"1168 74 CURVE SMOOTH",
"1168 1386 LINE SMOOTH",
"1168 1429 OFFCURVE",
"1137 1460 OFFCURVE",
"1094 1460 CURVE SMOOTH",
"731 1460 LINE SMOOTH",
"688 1460 OFFCURVE",
"657 1429 OFFCURVE",
"657 1386 CURVE SMOOTH"
);
},
{
closed = 1;
nodes = (
"438 657 LINE",
"438 73 LINE",
"73 73 LINE",
"73 657 LINE"
);
},
{
closed = 1;
nodes = (
"1095 949 LINE",
"1095 73 LINE",
"730 73 LINE",
"730 949 LINE"
);
}
);
width = 1168;
}
);
unicode = ECB4;
},
{
color = 4;
glyphname = "uniECB5";
lastChange = "2013-04-11 08:30:34 -0800";
layers = (
{
layerId = "ABCF47FB-41DD-418D-ADD0-B1CD0215F61B";
name = "Regular";
paths = (
{
closed = 1;
nodes = (
"259 1241 OFFCURVE",
"292 1274 OFFCURVE",
"292 1314 CURVE SMOOTH",
"292 1354 OFFCURVE",
"259 1387 OFFCURVE",
"219 1387 CURVE SMOOTH",
"179 1387 OFFCURVE",
"146 1354 OFFCURVE",
"146 1314 CURVE SMOOTH",
"146 1274 OFFCURVE",
"179 1241 OFFCURVE",
"219 1241 CURVE SMOOTH"
);
},
{
closed = 1;
nodes = (
"259 949 OFFCURVE",
"292 982 OFFCURVE",
"292 1022 CURVE SMOOTH",
"292 1062 OFFCURVE",
"259 1095 OFFCURVE",
"219 1095 CURVE SMOOTH",
"179 1095 OFFCURVE",
"146 1062 OFFCURVE",
"146 1022 CURVE SMOOTH",
"146 982 OFFCURVE",
"179 949 OFFCURVE",
"219 949 CURVE SMOOTH"
);
},
{
closed = 1;
nodes = (
"259 657 OFFCURVE",
"292 690 OFFCURVE",
"292 730 CURVE SMOOTH",
"292 770 OFFCURVE",
"259 803 OFFCURVE",
"219 803 CURVE SMOOTH",
"179 803 OFFCURVE",
"146 770 OFFCURVE",
"146 730 CURVE SMOOTH",
"146 690 OFFCURVE",
"179 657 OFFCURVE",
"219 657 CURVE SMOOTH"
);
},
{
closed = 1;
nodes = (
"259 365 OFFCURVE",
"292 398 OFFCURVE",
"292 438 CURVE SMOOTH",
"292 478 OFFCURVE",
"259 511 OFFCURVE",
"219 511 CURVE SMOOTH",
"179 511 OFFCURVE",
"146 478 OFFCURVE",
"146 438 CURVE SMOOTH",
"146 398 OFFCURVE",
"179 365 OFFCURVE",
"219 365 CURVE SMOOTH"
);
},
{
closed = 1;
nodes = (
"259 73 OFFCURVE",
"292 106 OFFCURVE",
"292 146 CURVE SMOOTH",
"292 186 OFFCURVE",
"259 219 OFFCURVE",
"219 219 CURVE SMOOTH",
"179 219 OFFCURVE",
"146 186 OFFCURVE",
"146 146 CURVE SMOOTH",
"146 106 OFFCURVE",
"179 73 OFFCURVE",
"219 73 CURVE SMOOTH"
);
},
{
closed = 1;
nodes = (
"770 1241 OFFCURVE",
"803 1274 OFFCURVE",
"803 1314 CURVE SMOOTH",
"803 1354 OFFCURVE",
"770 1387 OFFCURVE",
"730 1387 CURVE SMOOTH",
"690 1387 OFFCURVE",
"657 1354 OFFCURVE",
"657 1314 CURVE SMOOTH",
"657 1274 OFFCURVE",
"690 1241 OFFCURVE",
"730 1241 CURVE SMOOTH"
);
},
{
closed = 1;
nodes = (
"770 949 OFFCURVE",
"803 982 OFFCURVE",
"803 1022 CURVE SMOOTH",
"803 1062 OFFCURVE",
"770 1095 OFFCURVE",
"730 1095 CURVE SMOOTH",
"690 1095 OFFCURVE",
"657 1062 OFFCURVE",
"657 1022 CURVE SMOOTH",
"657 982 OFFCURVE",
"690 949 OFFCURVE",
"730 949 CURVE SMOOTH"
);
},
{
closed = 1;
nodes = (
"770 657 OFFCURVE",
"803 690 OFFCURVE",
"803 730 CURVE SMOOTH",
"803 770 OFFCURVE",
"770 803 OFFCURVE",
"730 803 CURVE SMOOTH",
"690 803 OFFCURVE",
"657 770 OFFCURVE",
"657 730 CURVE SMOOTH",
"657 690 OFFCURVE",
"690 657 OFFCURVE",
"730 657 CURVE SMOOTH"
);
},
{
closed = 1;
nodes = (
"770 365 OFFCURVE",
"803 398 OFFCURVE",
"803 438 CURVE SMOOTH",
"803 478 OFFCURVE",
"770 511 OFFCURVE",
"730 511 CURVE SMOOTH",
"690 511 OFFCURVE",
"657 478 OFFCURVE",
"657 438 CURVE SMOOTH",
"657 398 OFFCURVE",
"690 365 OFFCURVE",
"730 365 CURVE SMOOTH"
);
},
{
closed = 1;
nodes = (
"770 73 OFFCURVE",
"803 106 OFFCURVE",
"803 146 CURVE SMOOTH",
"803 186 OFFCURVE",
"770 219 OFFCURVE",
"730 219 CURVE SMOOTH",
"690 219 OFFCURVE",
"657 186 OFFCURVE",
"657 146 CURVE SMOOTH",
"657 106 OFFCURVE",
"690 73 OFFCURVE",
"730 73 CURVE SMOOTH"
);
},
{
closed = 1;
nodes = (
"1281 1241 OFFCURVE",
"1314 1274 OFFCURVE",
"1314 1314 CURVE SMOOTH",
"1314 1354 OFFCURVE",
"1281 1387 OFFCURVE",
"1241 1387 CURVE SMOOTH",
"1201 1387 OFFCURVE",
"1168 1354 OFFCURVE",
"1168 1314 CURVE SMOOTH",
"1168 1274 OFFCURVE",
"1201 1241 OFFCURVE",
"1241 1241 CURVE SMOOTH"
);
},
{
closed = 1;
nodes = (
"1281 949 OFFCURVE",
"1314 982 OFFCURVE",
"1314 1022 CURVE SMOOTH",
"1314 1062 OFFCURVE",
"1281 1095 OFFCURVE",
"1241 1095 CURVE SMOOTH",
"1201 1095 OFFCURVE",
"1168 1062 OFFCURVE",
"1168 1022 CURVE SMOOTH",
"1168 982 OFFCURVE",
"1201 949 OFFCURVE",
"1241 949 CURVE SMOOTH"
);
},
{
closed = 1;
nodes = (
"1281 657 OFFCURVE",
"1314 690 OFFCURVE",
"1314 730 CURVE SMOOTH",
"1314 770 OFFCURVE",
"1281 803 OFFCURVE",
"1241 803 CURVE SMOOTH",
"1201 803 OFFCURVE",
"1168 770 OFFCURVE",
"1168 730 CURVE SMOOTH",
"1168 690 OFFCURVE",
"1201 657 OFFCURVE",
"1241 657 CURVE SMOOTH"
);
},
{
closed = 1;
nodes = (
"1281 365 OFFCURVE",
"1314 398 OFFCURVE",
"1314 438 CURVE SMOOTH",
"1314 478 OFFCURVE",
"1281 511 OFFCURVE",
"1241 511 CURVE SMOOTH",
"1201 511 OFFCURVE",
"1168 478 OFFCURVE",
"1168 438 CURVE SMOOTH",
"1168 398 OFFCURVE",
"1201 365 OFFCURVE",
"1241 365 CURVE SMOOTH"
);
},
{
closed = 1;
nodes = (
"1281 73 OFFCURVE",
"1314 106 OFFCURVE",
"1314 146 CURVE SMOOTH",
"1314 186 OFFCURVE",
"1281 219 OFFCURVE",
"1241 219 CURVE SMOOTH",
"1201 219 OFFCURVE",
"1168 186 OFFCURVE",
"1168 146 CURVE SMOOTH",
"1168 106 OFFCURVE",
"1201 73 OFFCURVE",
"1241 73 CURVE SMOOTH"
);
},
{
closed = 1;
nodes = (
"1362 949 OFFCURVE",
"1460 1047 OFFCURVE",
"1460 1168 CURVE SMOOTH",
"1460 1289 OFFCURVE",
"1362 1387 OFFCURVE",
"1241 1387 CURVE SMOOTH",
"1120 1387 OFFCURVE",
"1022 1289 OFFCURVE",
"1022 1168 CURVE SMOOTH",
"1022 1047 OFFCURVE",
"1120 949 OFFCURVE",
"1241 949 CURVE SMOOTH"
);
},
{
closed = 1;
nodes = (
"340 362 OFFCURVE",
"438 460 OFFCURVE",
"438 581 CURVE SMOOTH",
"438 702 OFFCURVE",
"340 800 OFFCURVE",
"219 800 CURVE SMOOTH",
"98 800 OFFCURVE",
"0 702 OFFCURVE",
"0 581 CURVE SMOOTH",
"0 460 OFFCURVE",
"98 362 OFFCURVE",
"219 362 CURVE SMOOTH"
);
}
);
width = 1460;
}
);
unicode = ECB5;
},
{
color = 4;
glyphname = "uniECB6";
lastChange = "2013-04-11 08:30:34 -0800";
layers = (
{
layerId = "ABCF47FB-41DD-418D-ADD0-B1CD0215F61B";
name = "Regular";
paths = (
{
closed = 1;
nodes = (
"259 1241 OFFCURVE",
"292 1274 OFFCURVE",
"292 1314 CURVE SMOOTH",
"292 1354 OFFCURVE",
"259 1387 OFFCURVE",
"219 1387 CURVE SMOOTH",
"179 1387 OFFCURVE",
"146 1354 OFFCURVE",
"146 1314 CURVE SMOOTH",
"146 1274 OFFCURVE",
"179 1241 OFFCURVE",
"219 1241 CURVE SMOOTH"
);
},
{
closed = 1;
nodes = (
"259 949 OFFCURVE",
"292 982 OFFCURVE",
"292 1022 CURVE SMOOTH",
"292 1062 OFFCURVE",
"259 1095 OFFCURVE",
"219 1095 CURVE SMOOTH",
"179 1095 OFFCURVE",
"146 1062 OFFCURVE",
"146 1022 CURVE SMOOTH",
"146 982 OFFCURVE",
"179 949 OFFCURVE",
"219 949 CURVE SMOOTH"
);
},
{
closed = 1;
nodes = (
"259 657 OFFCURVE",
"292 690 OFFCURVE",
"292 730 CURVE SMOOTH",
"292 770 OFFCURVE",
"259 803 OFFCURVE",
"219 803 CURVE SMOOTH",
"179 803 OFFCURVE",
"146 770 OFFCURVE",
"146 730 CURVE SMOOTH",
"146 690 OFFCURVE",
"179 657 OFFCURVE",
"219 657 CURVE SMOOTH"
);
},
{
closed = 1;
nodes = (
"259 365 OFFCURVE",
"292 398 OFFCURVE",
"292 438 CURVE SMOOTH",
"292 478 OFFCURVE",
"259 511 OFFCURVE",
"219 511 CURVE SMOOTH",
"179 511 OFFCURVE",
"146 478 OFFCURVE",
"146 438 CURVE SMOOTH",
"146 398 OFFCURVE",
"179 365 OFFCURVE",
"219 365 CURVE SMOOTH"
);
},
{
closed = 1;
nodes = (
"259 73 OFFCURVE",
"292 106 OFFCURVE",
"292 146 CURVE SMOOTH",
"292 186 OFFCURVE",
"259 219 OFFCURVE",
"219 219 CURVE SMOOTH",
"179 219 OFFCURVE",
"146 186 OFFCURVE",
"146 146 CURVE SMOOTH",
"146 106 OFFCURVE",
"179 73 OFFCURVE",
"219 73 CURVE SMOOTH"
);
},
{
closed = 1;
nodes = (
"770 1241 OFFCURVE",
"803 1274 OFFCURVE",
"803 1314 CURVE SMOOTH",
"803 1354 OFFCURVE",
"770 1387 OFFCURVE",
"730 1387 CURVE SMOOTH",
"690 1387 OFFCURVE",
"657 1354 OFFCURVE",
"657 1314 CURVE SMOOTH",
"657 1274 OFFCURVE",
"690 1241 OFFCURVE",
"730 1241 CURVE SMOOTH"
);
},
{
closed = 1;
nodes = (
"770 949 OFFCURVE",
"803 982 OFFCURVE",
"803 1022 CURVE SMOOTH",
"803 1062 OFFCURVE",
"770 1095 OFFCURVE",
"730 1095 CURVE SMOOTH",
"690 1095 OFFCURVE",
"657 1062 OFFCURVE",
"657 1022 CURVE SMOOTH",
"657 982 OFFCURVE",
"690 949 OFFCURVE",
"730 949 CURVE SMOOTH"
);
},
{
closed = 1;
nodes = (
"770 657 OFFCURVE",
"803 690 OFFCURVE",
"803 730 CURVE SMOOTH",
"803 770 OFFCURVE",
"770 803 OFFCURVE",
"730 803 CURVE SMOOTH",
"690 803 OFFCURVE",
"657 770 OFFCURVE",
"657 730 CURVE SMOOTH",
"657 690 OFFCURVE",
"690 657 OFFCURVE",
"730 657 CURVE SMOOTH"
);
},
{
closed = 1;
nodes = (
"770 365 OFFCURVE",
"803 398 OFFCURVE",
"803 438 CURVE SMOOTH",
"803 478 OFFCURVE",
"770 511 OFFCURVE",
"730 511 CURVE SMOOTH",
"690 511 OFFCURVE",
"657 478 OFFCURVE",
"657 438 CURVE SMOOTH",
"657 398 OFFCURVE",
"690 365 OFFCURVE",
"730 365 CURVE SMOOTH"
);
},
{
closed = 1;
nodes = (
"770 73 OFFCURVE",
"803 106 OFFCURVE",
"803 146 CURVE SMOOTH",
"803 186 OFFCURVE",
"770 219 OFFCURVE",
"730 219 CURVE SMOOTH",
"690 219 OFFCURVE",
"657 186 OFFCURVE",
"657 146 CURVE SMOOTH",
"657 106 OFFCURVE",
"690 73 OFFCURVE",
"730 73 CURVE SMOOTH"
);
},
{
closed = 1;
nodes = (
"1281 1241 OFFCURVE",
"1314 1274 OFFCURVE",
"1314 1314 CURVE SMOOTH",
"1314 1354 OFFCURVE",
"1281 1387 OFFCURVE",
"1241 1387 CURVE SMOOTH",
"1201 1387 OFFCURVE",
"1168 1354 OFFCURVE",
"1168 1314 CURVE SMOOTH",
"1168 1274 OFFCURVE",
"1201 1241 OFFCURVE",
"1241 1241 CURVE SMOOTH"
);
},
{
closed = 1;
nodes = (
"1281 949 OFFCURVE",
"1314 982 OFFCURVE",
"1314 1022 CURVE SMOOTH",
"1314 1062 OFFCURVE",
"1281 1095 OFFCURVE",
"1241 1095 CURVE SMOOTH",
"1201 1095 OFFCURVE",
"1168 1062 OFFCURVE",
"1168 1022 CURVE SMOOTH",
"1168 982 OFFCURVE",
"1201 949 OFFCURVE",
"1241 949 CURVE SMOOTH"
);
},
{
closed = 1;
nodes = (
"1281 657 OFFCURVE",
"1314 690 OFFCURVE",
"1314 730 CURVE SMOOTH",
"1314 770 OFFCURVE",
"1281 803 OFFCURVE",
"1241 803 CURVE SMOOTH",
"1201 803 OFFCURVE",
"1168 770 OFFCURVE",
"1168 730 CURVE SMOOTH",
"1168 690 OFFCURVE",
"1201 657 OFFCURVE",
"1241 657 CURVE SMOOTH"
);
},
{
closed = 1;
nodes = (
"1281 365 OFFCURVE",
"1314 398 OFFCURVE",
"1314 438 CURVE SMOOTH",
"1314 478 OFFCURVE",
"1281 511 OFFCURVE",
"1241 511 CURVE SMOOTH",
"1201 511 OFFCURVE",
"1168 478 OFFCURVE",
"1168 438 CURVE SMOOTH",
"1168 398 OFFCURVE",
"1201 365 OFFCURVE",
"1241 365 CURVE SMOOTH"
);
},
{
closed = 1;
nodes = (
"1281 73 OFFCURVE",
"1314 106 OFFCURVE",
"1314 146 CURVE SMOOTH",
"1314 186 OFFCURVE",
"1281 219 OFFCURVE",
"1241 219 CURVE SMOOTH",
"1201 219 OFFCURVE",
"1168 186 OFFCURVE",
"1168 146 CURVE SMOOTH",
"1168 106 OFFCURVE",
"1201 73 OFFCURVE",
"1241 73 CURVE SMOOTH"
);
},
{
closed = 1;
nodes = (
"851 73 OFFCURVE",
"949 171 OFFCURVE",
"949 292 CURVE SMOOTH",
"949 413 OFFCURVE",
"851 511 OFFCURVE",
"730 511 CURVE SMOOTH",
"609 511 OFFCURVE",
"511 413 OFFCURVE",
"511 292 CURVE SMOOTH",
"511 171 OFFCURVE",
"609 73 OFFCURVE",
"730 73 CURVE SMOOTH"
);
},
{
closed = 1;
nodes = (
"340 657 OFFCURVE",
"438 755 OFFCURVE",
"438 876 CURVE SMOOTH",
"438 997 OFFCURVE",
"340 1095 OFFCURVE",
"219 1095 CURVE SMOOTH",
"98 1095 OFFCURVE",
"0 997 OFFCURVE",
"0 876 CURVE SMOOTH",
"0 755 OFFCURVE",
"98 657 OFFCURVE",
"219 657 CURVE SMOOTH"
);
},
{
closed = 1;
nodes = (
"1362 949 OFFCURVE",
"1460 1047 OFFCURVE",
"1460 1168 CURVE SMOOTH",
"1460 1289 OFFCURVE",
"1362 1387 OFFCURVE",
"1241 1387 CURVE SMOOTH",
"1120 1387 OFFCURVE",
"1022 1289 OFFCURVE",
"1022 1168 CURVE SMOOTH",
"1022 1047 OFFCURVE",
"1120 949 OFFCURVE",
"1241 949 CURVE SMOOTH"
);
},
{
closed = 1;
nodes = (
"164 833 LINE",
"674 244 LINE",
"785 338 LINE",
"275 927 LINE"
);
},
{
closed = 1;
nodes = (
"1180 1213 LINE",
"664 331 LINE",
"790 258 LINE",
"1306 1140 LINE"
);
}
);
width = 1460;
}
);
unicode = ECB6;
},
{
color = 4;
glyphname = "uniECB7";
lastChange = "2013-04-11 08:30:34 -0800";
layers = (
{
layerId = "ABCF47FB-41DD-418D-ADD0-B1CD0215F61B";
name = "Regular";
paths = (
{
closed = 1;
nodes = (
"259 1241 OFFCURVE",
"292 1274 OFFCURVE",
"292 1314 CURVE SMOOTH",
"292 1354 OFFCURVE",
"259 1387 OFFCURVE",
"219 1387 CURVE SMOOTH",
"179 1387 OFFCURVE",
"146 1354 OFFCURVE",
"146 1314 CURVE SMOOTH",
"146 1274 OFFCURVE",
"179 1241 OFFCURVE",
"219 1241 CURVE SMOOTH"
);
},
{
closed = 1;
nodes = (
"259 949 OFFCURVE",
"292 982 OFFCURVE",
"292 1022 CURVE SMOOTH",
"292 1062 OFFCURVE",
"259 1095 OFFCURVE",
"219 1095 CURVE SMOOTH",
"179 1095 OFFCURVE",
"146 1062 OFFCURVE",
"146 1022 CURVE SMOOTH",
"146 982 OFFCURVE",
"179 949 OFFCURVE",
"219 949 CURVE SMOOTH"
);
},
{
closed = 1;
nodes = (
"259 657 OFFCURVE",
"292 690 OFFCURVE",
"292 730 CURVE SMOOTH",
"292 770 OFFCURVE",
"259 803 OFFCURVE",
"219 803 CURVE SMOOTH",
"179 803 OFFCURVE",
"146 770 OFFCURVE",
"146 730 CURVE SMOOTH",
"146 690 OFFCURVE",
"179 657 OFFCURVE",
"219 657 CURVE SMOOTH"
);
},
{
closed = 1;
nodes = (
"259 365 OFFCURVE",
"292 398 OFFCURVE",
"292 438 CURVE SMOOTH",
"292 478 OFFCURVE",
"259 511 OFFCURVE",
"219 511 CURVE SMOOTH",
"179 511 OFFCURVE",
"146 478 OFFCURVE",
"146 438 CURVE SMOOTH",
"146 398 OFFCURVE",
"179 365 OFFCURVE",
"219 365 CURVE SMOOTH"
);
},
{
closed = 1;
nodes = (
"259 73 OFFCURVE",
"292 106 OFFCURVE",
"292 146 CURVE SMOOTH",
"292 186 OFFCURVE",
"259 219 OFFCURVE",
"219 219 CURVE SMOOTH",
"179 219 OFFCURVE",
"146 186 OFFCURVE",
"146 146 CURVE SMOOTH",
"146 106 OFFCURVE",
"179 73 OFFCURVE",
"219 73 CURVE SMOOTH"
);
},
{
closed = 1;
nodes = (
"770 1241 OFFCURVE",
"803 1274 OFFCURVE",
"803 1314 CURVE SMOOTH",
"803 1354 OFFCURVE",
"770 1387 OFFCURVE",
"730 1387 CURVE SMOOTH",
"690 1387 OFFCURVE",
"657 1354 OFFCURVE",
"657 1314 CURVE SMOOTH",
"657 1274 OFFCURVE",
"690 1241 OFFCURVE",
"730 1241 CURVE SMOOTH"
);
},
{
closed = 1;
nodes = (
"770 949 OFFCURVE",
"803 982 OFFCURVE",
"803 1022 CURVE SMOOTH",
"803 1062 OFFCURVE",
"770 1095 OFFCURVE",
"730 1095 CURVE SMOOTH",
"690 1095 OFFCURVE",
"657 1062 OFFCURVE",
"657 1022 CURVE SMOOTH",
"657 982 OFFCURVE",
"690 949 OFFCURVE",
"730 949 CURVE SMOOTH"
);
},
{
closed = 1;
nodes = (
"770 657 OFFCURVE",
"803 690 OFFCURVE",
"803 730 CURVE SMOOTH",
"803 770 OFFCURVE",
"770 803 OFFCURVE",
"730 803 CURVE SMOOTH",
"690 803 OFFCURVE",
"657 770 OFFCURVE",
"657 730 CURVE SMOOTH",
"657 690 OFFCURVE",
"690 657 OFFCURVE",
"730 657 CURVE SMOOTH"
);
},
{
closed = 1;
nodes = (
"770 365 OFFCURVE",
"803 398 OFFCURVE",
"803 438 CURVE SMOOTH",
"803 478 OFFCURVE",
"770 511 OFFCURVE",
"730 511 CURVE SMOOTH",
"690 511 OFFCURVE",
"657 478 OFFCURVE",
"657 438 CURVE SMOOTH",
"657 398 OFFCURVE",
"690 365 OFFCURVE",
"730 365 CURVE SMOOTH"
);
},
{
closed = 1;
nodes = (
"770 73 OFFCURVE",
"803 106 OFFCURVE",
"803 146 CURVE SMOOTH",
"803 186 OFFCURVE",
"770 219 OFFCURVE",
"730 219 CURVE SMOOTH",
"690 219 OFFCURVE",
"657 186 OFFCURVE",
"657 146 CURVE SMOOTH",
"657 106 OFFCURVE",
"690 73 OFFCURVE",
"730 73 CURVE SMOOTH"
);
},
{
closed = 1;
nodes = (
"1281 1241 OFFCURVE",
"1314 1274 OFFCURVE",
"1314 1314 CURVE SMOOTH",
"1314 1354 OFFCURVE",
"1281 1387 OFFCURVE",
"1241 1387 CURVE SMOOTH",
"1201 1387 OFFCURVE",
"1168 1354 OFFCURVE",
"1168 1314 CURVE SMOOTH",
"1168 1274 OFFCURVE",
"1201 1241 OFFCURVE",
"1241 1241 CURVE SMOOTH"
);
},
{
closed = 1;
nodes = (
"1281 949 OFFCURVE",
"1314 982 OFFCURVE",
"1314 1022 CURVE SMOOTH",
"1314 1062 OFFCURVE",
"1281 1095 OFFCURVE",
"1241 1095 CURVE SMOOTH",
"1201 1095 OFFCURVE",
"1168 1062 OFFCURVE",
"1168 1022 CURVE SMOOTH",
"1168 982 OFFCURVE",
"1201 949 OFFCURVE",
"1241 949 CURVE SMOOTH"
);
},
{
closed = 1;
nodes = (
"1281 657 OFFCURVE",
"1314 690 OFFCURVE",
"1314 730 CURVE SMOOTH",
"1314 770 OFFCURVE",
"1281 803 OFFCURVE",
"1241 803 CURVE SMOOTH",
"1201 803 OFFCURVE",
"1168 770 OFFCURVE",
"1168 730 CURVE SMOOTH",
"1168 690 OFFCURVE",
"1201 657 OFFCURVE",
"1241 657 CURVE SMOOTH"
);
},
{
closed = 1;
nodes = (
"1281 365 OFFCURVE",
"1314 398 OFFCURVE",
"1314 438 CURVE SMOOTH",
"1314 478 OFFCURVE",
"1281 511 OFFCURVE",
"1241 511 CURVE SMOOTH",
"1201 511 OFFCURVE",
"1168 478 OFFCURVE",
"1168 438 CURVE SMOOTH",
"1168 398 OFFCURVE",
"1201 365 OFFCURVE",
"1241 365 CURVE SMOOTH"
);
},
{
closed = 1;
nodes = (
"1281 73 OFFCURVE",
"1314 106 OFFCURVE",
"1314 146 CURVE SMOOTH",
"1314 186 OFFCURVE",
"1281 219 OFFCURVE",
"1241 219 CURVE SMOOTH",
"1201 219 OFFCURVE",
"1168 186 OFFCURVE",
"1168 146 CURVE SMOOTH",
"1168 106 OFFCURVE",
"1201 73 OFFCURVE",
"1241 73 CURVE SMOOTH"
);
},
{
closed = 1;
nodes = (
"340 657 OFFCURVE",
"438 755 OFFCURVE",
"438 876 CURVE SMOOTH",
"438 997 OFFCURVE",
"340 1095 OFFCURVE",
"219 1095 CURVE SMOOTH",
"98 1095 OFFCURVE",
"0 997 OFFCURVE",
"0 876 CURVE SMOOTH",
"0 755 OFFCURVE",
"98 657 OFFCURVE",
"219 657 CURVE SMOOTH"
);
},
{
closed = 1;
nodes = (
"1362 949 OFFCURVE",
"1460 1047 OFFCURVE",
"1460 1168 CURVE SMOOTH",
"1460 1289 OFFCURVE",
"1362 1387 OFFCURVE",
"1241 1387 CURVE SMOOTH",
"1120 1387 OFFCURVE",
"1022 1289 OFFCURVE",
"1022 1168 CURVE SMOOTH",
"1022 1047 OFFCURVE",
"1120 949 OFFCURVE",
"1241 949 CURVE SMOOTH"
);
},
{
closed = 1;
nodes = (
"240 802 LINE",
"1221 1089 LINE",
"1180 1228 LINE",
"199 942 LINE"
);
}
);
width = 1460;
}
);
unicode = ECB7;
},
{
color = 4;
glyphname = "uniECC0";
lastChange = "2013-04-11 08:30:34 -0800";
layers = (
{
layerId = "ABCF47FB-41DD-418D-ADD0-B1CD0215F61B";
name = "Regular";
paths = (
{
closed = 1;
nodes = (
"532 362 OFFCURVE",
"368 526 OFFCURVE",
"368 726 CURVE SMOOTH",
"368 928 OFFCURVE",
"532 1092 OFFCURVE",
"733 1092 CURVE SMOOTH",
"934 1092 OFFCURVE",
"1098 928 OFFCURVE",
"1098 726 CURVE SMOOTH",
"1098 526 OFFCURVE",
"934 362 OFFCURVE",
"733 362 CURVE SMOOTH"
);
},
{
closed = 1;
nodes = (
"1095 292 OFFCURVE",
"1460 511 OFFCURVE",
"1460 728 CURVE SMOOTH",
"1460 949 OFFCURVE",
"1095 1168 OFFCURVE",
"730 1168 CURVE SMOOTH",
"365 1168 OFFCURVE",
"0 949 OFFCURVE",
"0 728 CURVE SMOOTH",
"0 511 OFFCURVE",
"365 292 OFFCURVE",
"730 292 CURVE SMOOTH"
);
},
{
closed = 1;
nodes = (
"835 545 OFFCURVE",
"915 626 OFFCURVE",
"915 726 CURVE SMOOTH",
"915 787 OFFCURVE",
"800 692 OFFCURVE",
"756 724 CURVE SMOOTH",
"725 747 OFFCURVE",
"774 909 OFFCURVE",
"733 909 CURVE SMOOTH",
"633 909 OFFCURVE",
"550 828 OFFCURVE",
"550 726 CURVE SMOOTH",
"550 626 OFFCURVE",
"633 545 OFFCURVE",
"733 545 CURVE SMOOTH"
);
}
);
width = 1460;
}
);
unicode = ECC0;
},
{
color = 4;
glyphname = "uniECC1";
lastChange = "2013-04-11 08:30:34 -0800";
layers = (
{
layerId = "ABCF47FB-41DD-418D-ADD0-B1CD0215F61B";
name = "Regular";
paths = (
{
closed = 1;
nodes = (
"1022 1460 LINE",
"866.56 1158.06 LINE",
"821.7 1164.03 OFFCURVE",
"775.85 1168 OFFCURVE",
"730 1168 CURVE SMOOTH",
"365 1168 OFFCURVE",
"0 949 OFFCURVE",
"0 728 CURVE SMOOTH",
"0 569.028 OFFCURVE",
"194.931 409.057 OFFCURVE",
"442.869 335.039 CURVE",
"309 74.9999 LINE",
"438 8.99991 LINE",
"1151 1394 LINE"
);
},
{
closed = 1;
nodes = (
"737.878 908.095 LINE",
"736.415 908.689 OFFCURVE",
"734.794 909 OFFCURVE",
"733 909 CURVE SMOOTH",
"633 909 OFFCURVE",
"550 828 OFFCURVE",
"550 726 CURVE SMOOTH",
"550 684.556 OFFCURVE",
"564.274 646.813 OFFCURVE",
"587.824 616.614 CURVE",
"499.994 446.005 LINE",
"419.997 513.005 OFFCURVE",
"368 614.003 OFFCURVE",
"368 726 CURVE SMOOTH",
"368 928 OFFCURVE",
"532 1092 OFFCURVE",
"733 1092 CURVE SMOOTH",
"764.805 1092 OFFCURVE",
"796.609 1088.05 OFFCURVE",
"826.45 1080.15 CURVE"
);
},
{
closed = 1;
nodes = (
"727 292 LINE",
"1095 292.002 OFFCURVE",
"1460 511.002 OFFCURVE",
"1460 728.002 CURVE SMOOTH",
"1460 863.063 OFFCURVE",
"1323.08 997.269 OFFCURVE",
"1133.94 1081.53 CURVE",
"1047 913 LINE",
"1079 858 OFFCURVE",
"1098 794 OFFCURVE",
"1098 726 CURVE SMOOTH",
"1098 536 OFFCURVE",
"951 379 OFFCURVE",
"764 363 CURVE"
);
}
);
width = 1460;
}
);
unicode = ECC1;
},
{
color = 4;
glyphname = "uniECC2";
lastChange = "2013-04-11 08:30:36 -0800";
layers = (
{
layerId = "ABCF47FB-41DD-418D-ADD0-B1CD0215F61B";
name = "Regular";
paths = (
{
closed = 1;
nodes = (
"935 272 OFFCURVE",
"1208 545 OFFCURVE",
"1208 876 CURVE",
"1208 1207 OFFCURVE",
"935 1480 OFFCURVE",
"604 1480 CURVE",
"273 1480 OFFCURVE",
"0 1207 OFFCURVE",
"0 876 CURVE",
"0 545 OFFCURVE",
"273 272 OFFCURVE",
"604 272 CURVE"
);
},
{
closed = 1;
nodes = (
"354 418 OFFCURVE",
"146 626 OFFCURVE",
"146 876 CURVE",
"146 1126 OFFCURVE",
"354 1335 OFFCURVE",
"604 1335 CURVE",
"832 1335 OFFCURVE",
"1063 1104 OFFCURVE",
"1063 876 CURVE",
"1063 648 OFFCURVE",
"832 418 OFFCURVE",
"604 418 CURVE"
);
},
{
closed = 1;
nodes = (
"1301 23 LINE SMOOTH",
"1331 -7 OFFCURVE",
"1375 -7 OFFCURVE",
"1405 23 CURVE SMOOTH",
"1456 74 LINE SMOOTH",
"1486 104 OFFCURVE",
"1486 148 OFFCURVE",
"1457 178 CURVE SMOOTH",
"1044 590 LINE SMOOTH",
"1015 620 OFFCURVE",
"1018 563 OFFCURVE",
"988 533 CURVE",
"937 482 LINE",
"907 452 OFFCURVE",
"859 465 OFFCURVE",
"889 435 CURVE SMOOTH"
);
}
);
width = 1479;
}
);
unicode = ECC2;
},
{
color = 4;
glyphname = "uniECC4";
lastChange = "2013-04-11 08:30:34 -0800";
layers = (
{
components = (
{
name = "Document";
transform = "{1, 0, 0, 1, 0, 0}";
}
);
layerId = "ABCF47FB-41DD-418D-ADD0-B1CD0215F61B";
name = "Regular";
paths = (
{
closed = 1;
nodes = (
"744 395 OFFCURVE",
"876 527 OFFCURVE",
"876 687 CURVE",
"876 847 OFFCURVE",
"744 979 OFFCURVE",
"584 979 CURVE",
"424 979 OFFCURVE",
"292 847 OFFCURVE",
"292 687 CURVE",
"292 527 OFFCURVE",
"424 395 OFFCURVE",
"584 395 CURVE"
);
},
{
closed = 1;
nodes = (
"477 494 OFFCURVE",
"390 582 OFFCURVE",
"390 689 CURVE",
"390 795 OFFCURVE",
"477 883 OFFCURVE",
"584 883 CURVE",
"691 883 OFFCURVE",
"780 795 OFFCURVE",
"780 689 CURVE",
"780 582 OFFCURVE",
"691 494 OFFCURVE",
"584 494 CURVE"
);
},
{
closed = 1;
nodes = (
"844 272 LINE SMOOTH",
"862 248 OFFCURVE",
"892 246 OFFCURVE",
"913 263 CURVE SMOOTH",
"935 280 OFFCURVE",
"938 308 OFFCURVE",
"921 330 CURVE SMOOTH",
"786 508 LINE SMOOTH",
"768 531 OFFCURVE",
"738 534 OFFCURVE",
"717 517 CURVE SMOOTH",
"695 500 OFFCURVE",
"690 473 OFFCURVE",
"709 449 CURVE SMOOTH"
);
}
);
width = 1241;
}
);
unicode = ECC4;
},
{
color = 4;
glyphname = "uniECC5";
lastChange = "2013-04-11 08:30:34 -0800";
layers = (
{
components = (
{
name = "Document";
transform = "{1, 0, 0, 1, 0, 0}";
}
);
layerId = "ABCF47FB-41DD-418D-ADD0-B1CD0215F61B";
name = "Regular";
paths = (
{
closed = 1;
nodes = (
"617 833 LINE",
"810 833 LINE",
"810 548 LINE",
"662 548 LINE",
"860 356 LINE",
"1053 548 LINE",
"906 548 LINE",
"906 932 LINE",
"521 932 LINE"
);
},
{
closed = 1;
nodes = (
"425 452 LINE",
"425 738 LINE",
"570 738 LINE",
"381 932 LINE",
"187 738 LINE",
"329 738 LINE",
"329 356 LINE",
"713 356 LINE",
"617 452 LINE"
);
}
);
width = 1241;
}
);
unicode = ECC5;
},
{
color = 4;
glyphname = "uniECC6";
lastChange = "2013-04-11 08:30:34 -0800";
layers = (
{
components = (
{
name = "Panel";
transform = "{1, 0, 0, 1, 0, 0}";
}
);
layerId = "ABCF47FB-41DD-418D-ADD0-B1CD0215F61B";
name = "Regular";
paths = (
{
closed = 1;
nodes = (
"438 146 LINE",
"511 146 LINE",
"511 1095 LINE",
"438 1095 LINE"
);
}
);
width = 1460;
}
);
unicode = ECC6;
},
{
color = 4;
glyphname = "uniECC8";
lastChange = "2013-04-11 08:30:34 -0800";
layers = (
{
components = (
{
name = "Panel";
transform = "{1, 0, 0, 1, 0, 0}";
}
);
layerId = "ABCF47FB-41DD-418D-ADD0-B1CD0215F61B";
name = "Regular";
paths = (
{
closed = 1;
nodes = (
"859 395 OFFCURVE",
"991 527 OFFCURVE",
"991 687 CURVE",
"991 847 OFFCURVE",
"859 979 OFFCURVE",
"699 979 CURVE",
"539 979 OFFCURVE",
"407 847 OFFCURVE",
"407 687 CURVE",
"407 527 OFFCURVE",
"539 395 OFFCURVE",
"699 395 CURVE"
);
},
{
closed = 1;
nodes = (
"592 494 OFFCURVE",
"505 582 OFFCURVE",
"505 689 CURVE",
"505 795 OFFCURVE",
"592 883 OFFCURVE",
"699 883 CURVE",
"806 883 OFFCURVE",
"895 795 OFFCURVE",
"895 689 CURVE",
"895 582 OFFCURVE",
"806 494 OFFCURVE",
"699 494 CURVE"
);
},
{
closed = 1;
nodes = (
"959 272 LINE SMOOTH",
"977 248 OFFCURVE",
"1007 246 OFFCURVE",
"1028 263 CURVE SMOOTH",
"1050 280 OFFCURVE",
"1053 308 OFFCURVE",
"1036 330 CURVE SMOOTH",
"901 508 LINE SMOOTH",
"883 531 OFFCURVE",
"853 534 OFFCURVE",
"832 517 CURVE SMOOTH",
"810 500 OFFCURVE",
"805 473 OFFCURVE",
"824 449 CURVE SMOOTH"
);
}
);
width = 1460;
}
);
unicode = ECC8;
},
{
color = 4;
glyphname = "uniECC9";
lastChange = "2013-04-11 08:30:34 -0800";
layers = (
{
components = (
{
name = "Panel";
transform = "{1, 0, 0, 1, 0, 0}";
}
);
layerId = "ABCF47FB-41DD-418D-ADD0-B1CD0215F61B";
name = "Regular";
paths = (
{
closed = 1;
nodes = (
"725 807 LINE",
"918 807 LINE",
"918 522 LINE",
"770 522 LINE",
"968 330 LINE",
"1161 522 LINE",
"1014 522 LINE",
"1014 906 LINE",
"629 906 LINE"
);
},
{
closed = 1;
nodes = (
"533 426 LINE",
"533 712 LINE",
"678 712 LINE",
"489 906 LINE",
"295 712 LINE",
"437 712 LINE",
"437 330 LINE",
"821 330 LINE",
"725 426 LINE"
);
}
);
width = 1460;
}
);
unicode = ECC9;
},
{
color = 4;
glyphname = "uniECCA";
lastChange = "2013-04-11 08:30:34 -0800";
layers = (
{
guideLines = (
{
angle = 45;
position = "{20, -93}";
}
);
layerId = "ABCF47FB-41DD-418D-ADD0-B1CD0215F61B";
name = "Regular";
paths = (
{
closed = 1;
nodes = (
"462 57 OFFCURVE",
"584 175 OFFCURVE",
"584 292 CURVE SMOOTH",
"584 422 OFFCURVE",
"494 511 OFFCURVE",
"365 511 CURVE SMOOTH",
"211 511 OFFCURVE",
"166 393 OFFCURVE",
"146 292 CURVE SMOOTH",
"112 117 OFFCURVE",
"0 140 OFFCURVE",
"0 32 CURVE SMOOTH",
"0 3 OFFCURVE",
"48 0 OFFCURVE",
"73 0 CURVE SMOOTH",
"134 0 OFFCURVE",
"262 -1 OFFCURVE",
"365 29 CURVE SMOOTH"
);
},
{
closed = 1;
nodes = (
"1451 1267 LINE",
"1469 1282 OFFCURVE",
"1473 1300 OFFCURVE",
"1473 1319 CURVE SMOOTH",
"1472 1338 OFFCURVE",
"1469 1357 OFFCURVE",
"1451 1373 CURVE SMOOTH",
"1402 1420 LINE SMOOTH",
"1388 1439 OFFCURVE",
"1368 1446 OFFCURVE",
"1350 1445 CURVE SMOOTH",
"1330 1446 OFFCURVE",
"1313 1439 OFFCURVE",
"1296 1420 CURVE",
"619 858 LINE SMOOTH",
"551 802 OFFCURVE",
"487 688 OFFCURVE",
"477 628 CURVE",
"549 628 OFFCURVE",
"664 516 OFFCURVE",
"667 437 CURVE",
"726 453 OFFCURVE",
"837 514 OFFCURVE",
"894 583 CURVE SMOOTH"
);
}
);
width = 1473;
}
);
unicode = ECCA;
},
{
color = 4;
glyphname = "uniECD0";
lastChange = "2013-04-11 08:30:36 -0800";
layers = (
{
layerId = "ABCF47FB-41DD-418D-ADD0-B1CD0215F61B";
name = "Regular";
paths = (
{
closed = 1;
nodes = (
"955 1480 OFFCURVE",
"1145 1399 OFFCURVE",
"1282 1262 CURVE SMOOTH",
"1414 1125 OFFCURVE",
"1500 935 OFFCURVE",
"1500 730 CURVE SMOOTH",
"1500 525 OFFCURVE",
"1414 335 OFFCURVE",
"1282 198 CURVE SMOOTH",
"1145 61 OFFCURVE",
"955 -20 OFFCURVE",
"750 -20 CURVE SMOOTH",
"545 -20 OFFCURVE",
"355 61 OFFCURVE",
"218 198 CURVE SMOOTH",
"81 335 OFFCURVE",
"0 525 OFFCURVE",
"0 730 CURVE SMOOTH",
"0 935 OFFCURVE",
"81 1125 OFFCURVE",
"218 1262 CURVE SMOOTH",
"355 1399 OFFCURVE",
"545 1480 OFFCURVE",
"750 1480 CURVE SMOOTH"
);
},
{
closed = 1;
nodes = (
"605 1261 OFFCURVE",
"471 1204 OFFCURVE",
"374 1106 CURVE SMOOTH",
"276 1009 OFFCURVE",
"219 875 OFFCURVE",
"219 730 CURVE SMOOTH",
"219 585 OFFCURVE",
"276 451 OFFCURVE",
"374 354 CURVE SMOOTH",
"471 256 OFFCURVE",
"605 199 OFFCURVE",
"750 199 CURVE SMOOTH",
"895 199 OFFCURVE",
"1029 256 OFFCURVE",
"1126 354 CURVE SMOOTH",
"1220 451 OFFCURVE",
"1281 585 OFFCURVE",
"1281 730 CURVE SMOOTH",
"1281 875 OFFCURVE",
"1220 1009 OFFCURVE",
"1126 1106 CURVE SMOOTH",
"1029 1204 OFFCURVE",
"895 1261 OFFCURVE",
"750 1261 CURVE SMOOTH"
);
}
);
width = 1500;
}
);
unicode = ECD0;
},
{
color = 4;
glyphname = "uniECD1";
lastChange = "2013-04-11 08:30:36 -0800";
layers = (
{
layerId = "ABCF47FB-41DD-418D-ADD0-B1CD0215F61B";
name = "Regular";
paths = (
{
closed = 1;
nodes = (
"955 1480 OFFCURVE",
"1145 1399 OFFCURVE",
"1282 1262 CURVE SMOOTH",
"1414 1125 OFFCURVE",
"1500 935 OFFCURVE",
"1500 730 CURVE SMOOTH",
"1500 525 OFFCURVE",
"1414 335 OFFCURVE",
"1282 198 CURVE SMOOTH",
"1145 61 OFFCURVE",
"955 -20 OFFCURVE",
"750 -20 CURVE SMOOTH",
"545 -20 OFFCURVE",
"355 61 OFFCURVE",
"218 198 CURVE SMOOTH",
"81 335 OFFCURVE",
"0 525 OFFCURVE",
"0 730 CURVE SMOOTH",
"0 935 OFFCURVE",
"81 1125 OFFCURVE",
"218 1262 CURVE SMOOTH",
"355 1399 OFFCURVE",
"545 1480 OFFCURVE",
"750 1480 CURVE SMOOTH"
);
},
{
closed = 1;
nodes = (
"605 1261 OFFCURVE",
"471 1204 OFFCURVE",
"374 1106 CURVE SMOOTH",
"276 1009 OFFCURVE",
"219 875 OFFCURVE",
"219 730 CURVE",
"1281 730 LINE",
"1281 875 OFFCURVE",
"1220 1009 OFFCURVE",
"1126 1106 CURVE SMOOTH",
"1029 1204 OFFCURVE",
"895 1261 OFFCURVE",
"750 1261 CURVE SMOOTH"
);
}
);
width = 1500;
}
);
unicode = ECD1;
},
{
color = 4;
glyphname = "uniECD2";
lastChange = "2013-04-11 08:30:36 -0800";
layers = (
{
layerId = "ABCF47FB-41DD-418D-ADD0-B1CD0215F61B";
name = "Regular";
paths = (
{
closed = 1;
nodes = (
"955 1480 OFFCURVE",
"1145 1399 OFFCURVE",
"1282 1262 CURVE SMOOTH",
"1414 1125 OFFCURVE",
"1500 935 OFFCURVE",
"1500 730 CURVE SMOOTH",
"1500 525 OFFCURVE",
"1414 335 OFFCURVE",
"1282 198 CURVE SMOOTH",
"1145 61 OFFCURVE",
"955 -20 OFFCURVE",
"750 -20 CURVE SMOOTH",
"545 -20 OFFCURVE",
"355 61 OFFCURVE",
"218 198 CURVE SMOOTH",
"81 335 OFFCURVE",
"0 525 OFFCURVE",
"0 730 CURVE SMOOTH",
"0 935 OFFCURVE",
"81 1125 OFFCURVE",
"218 1262 CURVE SMOOTH",
"355 1399 OFFCURVE",
"545 1480 OFFCURVE",
"750 1480 CURVE SMOOTH"
);
},
{
closed = 1;
nodes = (
"605 1261 OFFCURVE",
"471 1204 OFFCURVE",
"374 1106 CURVE SMOOTH",
"276 1009 OFFCURVE",
"219 875 OFFCURVE",
"219 730 CURVE SMOOTH",
"219 585 OFFCURVE",
"276 451 OFFCURVE",
"374 354 CURVE SMOOTH",
"471 256 OFFCURVE",
"605 199 OFFCURVE",
"750 199 CURVE SMOOTH",
"895 199 OFFCURVE",
"1029 256 OFFCURVE",
"1126 354 CURVE SMOOTH",
"1220 451 OFFCURVE",
"1281 585 OFFCURVE",
"1281 730 CURVE SMOOTH",
"1281 875 OFFCURVE",
"1220 1009 OFFCURVE",
"1126 1106 CURVE SMOOTH",
"1029 1204 OFFCURVE",
"895 1261 OFFCURVE",
"750 1261 CURVE SMOOTH"
);
},
{
closed = 1;
nodes = (
"911 438 OFFCURVE",
"1042 569 OFFCURVE",
"1042 730 CURVE SMOOTH",
"1042 891 OFFCURVE",
"911 1022 OFFCURVE",
"750 1022 CURVE SMOOTH",
"589 1022 OFFCURVE",
"458 891 OFFCURVE",
"458 730 CURVE SMOOTH",
"458 569 OFFCURVE",
"589 438 OFFCURVE",
"750 438 CURVE SMOOTH"
);
}
);
width = 1500;
}
);
unicode = ECD2;
},
{
color = 4;
glyphname = "uniECD3";
lastChange = "2013-04-11 08:30:36 -0800";
layers = (
{
layerId = "ABCF47FB-41DD-418D-ADD0-B1CD0215F61B";
name = "Regular";
paths = (
{
closed = 1;
nodes = (
"540 1480 OFFCURVE",
"357 1398 OFFCURVE",
"221 1262 CURVE SMOOTH",
"86 1127 OFFCURVE",
"0 933 OFFCURVE",
"0 730 CURVE SMOOTH",
"0 520 OFFCURVE",
"86 337 OFFCURVE",
"221 201 CURVE SMOOTH",
"357 66 OFFCURVE",
"540 -20 OFFCURVE",
"750 -20 CURVE SMOOTH",
"953 -20 OFFCURVE",
"1147 66 OFFCURVE",
"1282 201 CURVE SMOOTH",
"1418 337 OFFCURVE",
"1500 520 OFFCURVE",
"1500 730 CURVE SMOOTH",
"1500 933 OFFCURVE",
"1418 1127 OFFCURVE",
"1282 1262 CURVE SMOOTH",
"1147 1398 OFFCURVE",
"953 1480 OFFCURVE",
"750 1480 CURVE SMOOTH"
);
},
{
closed = 1;
nodes = (
"1050 1125 OFFCURVE",
"1126 1138 OFFCURVE",
"1188 1095 CURVE SMOOTH",
"1251 1051 OFFCURVE",
"1265 975 OFFCURVE",
"1220 910 CURVE SMOOTH",
"752 235 LINE SMOOTH",
"725 196 OFFCURVE",
"687 176 OFFCURVE",
"647 175 CURVE",
"610 172 OFFCURVE",
"571 187 OFFCURVE",
"541 217 CURVE SMOOTH",
"241 518 LINE SMOOTH",
"186 573 OFFCURVE",
"185 651 OFFCURVE",
"239 705 CURVE SMOOTH",
"293 759 OFFCURVE",
"372 758 OFFCURVE",
"426 703 CURVE SMOOTH",
"622 505 LINE",
"1005 1060 LINE SMOOTH"
);
}
);
width = 1500;
}
);
unicode = ECD3;
},
{
color = 4;
glyphname = "uniECD4";
lastChange = "2013-04-11 08:30:36 -0800";
layers = (
{
layerId = "ABCF47FB-41DD-418D-ADD0-B1CD0215F61B";
name = "Regular";
paths = (
{
closed = 1;
nodes = (
"540 1480 OFFCURVE",
"357 1398 OFFCURVE",
"221 1262 CURVE SMOOTH",
"86 1127 OFFCURVE",
"0 933 OFFCURVE",
"0 730 CURVE SMOOTH",
"0 520 OFFCURVE",
"86 337 OFFCURVE",
"221 201 CURVE SMOOTH",
"357 66 OFFCURVE",
"540 -20 OFFCURVE",
"750 -20 CURVE SMOOTH",
"953 -20 OFFCURVE",
"1147 66 OFFCURVE",
"1282 201 CURVE SMOOTH",
"1418 337 OFFCURVE",
"1500 520 OFFCURVE",
"1500 730 CURVE SMOOTH",
"1500 933 OFFCURVE",
"1418 1127 OFFCURVE",
"1282 1262 CURVE SMOOTH",
"1147 1398 OFFCURVE",
"953 1480 OFFCURVE",
"750 1480 CURVE SMOOTH"
);
},
{
closed = 1;
nodes = (
"823 1241 LINE SMOOTH",
"896 1241 OFFCURVE",
"947 1186 OFFCURVE",
"936 1114 CURVE SMOOTH",
"851 571 LINE",
"845 535 OFFCURVE",
"817 511 OFFCURVE",
"780 511 CURVE",
"715 511 LINE",
"678 511 OFFCURVE",
"650 535 OFFCURVE",
"644 571 CURVE",
"563 1114 LINE SMOOTH",
"552 1186 OFFCURVE",
"603 1241 OFFCURVE",
"677 1241 CURVE SMOOTH"
);
},
{
closed = 1;
nodes = (
"690 181 OFFCURVE",
"641 230 OFFCURVE",
"641 291 CURVE SMOOTH",
"641 351 OFFCURVE",
"690 400 OFFCURVE",
"750 400 CURVE SMOOTH",
"810 400 OFFCURVE",
"860 353 OFFCURVE",
"860 291 CURVE SMOOTH",
"860 230 OFFCURVE",
"810 181 OFFCURVE",
"750 181 CURVE SMOOTH"
);
}
);
width = 1500;
}
);
unicode = ECD4;
},
{
color = 4;
glyphname = "uniECD5";
lastChange = "2013-04-11 08:30:34 -0800";
layers = (
{
layerId = "ABCF47FB-41DD-418D-ADD0-B1CD0215F61B";
name = "Regular";
paths = (
{
closed = 1;
nodes = (
"478 1460 LINE SMOOTH",
"453 1460 OFFCURVE",
"431 1447 OFFCURVE",
"420 1424 CURVE SMOOTH",
"365 1315 LINE",
"74 1315 LINE SMOOTH",
"31 1315 OFFCURVE",
"0 1284 OFFCURVE",
"0 1241 CURVE SMOOTH",
"0 74 LINE SMOOTH",
"0 31 OFFCURVE",
"31 0 OFFCURVE",
"74 0 CURVE SMOOTH",
"1167 0 LINE SMOOTH",
"1210 0 OFFCURVE",
"1241 31 OFFCURVE",
"1241 74 CURVE SMOOTH",
"1241 1241 LINE SMOOTH",
"1241 1284 OFFCURVE",
"1210 1315 OFFCURVE",
"1167 1315 CURVE SMOOTH",
"873 1315 LINE",
"818 1424 LINE SMOOTH",
"807 1447 OFFCURVE",
"785 1460 OFFCURVE",
"760 1460 CURVE SMOOTH"
);
},
{
closed = 1;
nodes = (
"1022 949 LINE",
"219 949 LINE",
"219 1168 LINE",
"1022 1168 LINE"
);
}
);
width = 1241;
}
);
unicode = ECD5;
},
{
color = 4;
glyphname = "uniECD6";
lastChange = "2013-04-19 10:02:34 -0800";
layers = (
{
guideLines = (
{
angle = 90;
position = "{1459, 1600}";
}
);
layerId = "ABCF47FB-41DD-418D-ADD0-B1CD0215F61B";
name = "Regular";
paths = (
{
closed = 1;
nodes = (
"27 781 LINE SMOOTH",
"-6 748 OFFCURVE",
"-6 717 OFFCURVE",
"27 683 CURVE SMOOTH",
"319 391 LINE SMOOTH",
"364 347 OFFCURVE",
"407 364 OFFCURVE",
"407 428 CURVE SMOOTH",
"407 467 LINE SMOOTH",
"407 504 OFFCURVE",
"396 529 OFFCURVE",
"371 555 CURVE SMOOTH",
"242 683 LINE SMOOTH",
"208 716 OFFCURVE",
"209 748 OFFCURVE",
"242 781 CURVE SMOOTH",
"371 908 LINE SMOOTH",
"396 935 OFFCURVE",
"407 960 OFFCURVE",
"407 998 CURVE SMOOTH",
"407 1050 LINE SMOOTH",
"407 1107 OFFCURVE",
"365 1115 OFFCURVE",
"319 1070 CURVE SMOOTH"
);
},
{
closed = 1;
nodes = (
"512 227 LINE SMOOTH",
"500 178 OFFCURVE",
"524 148 OFFCURVE",
"575 148 CURVE SMOOTH",
"593 148 LINE SMOOTH",
"636 148 OFFCURVE",
"662 169 OFFCURVE",
"672 211 CURVE SMOOTH",
"944 1307 LINE SMOOTH",
"956 1357 OFFCURVE",
"932 1387 OFFCURVE",
"881 1387 CURVE SMOOTH",
"862 1387 LINE SMOOTH",
"819 1387 OFFCURVE",
"794 1366 OFFCURVE",
"784 1324 CURVE SMOOTH"
);
},
{
closed = 1;
nodes = (
"1132 1071 LINE SMOOTH",
"1087 1116 OFFCURVE",
"1044 1099 OFFCURVE",
"1044 1035 CURVE SMOOTH",
"1044 998 LINE SMOOTH",
"1044 960 OFFCURVE",
"1055 935 OFFCURVE",
"1081 909 CURVE SMOOTH",
"1206 783 LINE SMOOTH",
"1240 750 OFFCURVE",
"1240 715 OFFCURVE",
"1206 683 CURVE SMOOTH",
"1079 555 LINE SMOOTH",
"1052 529 OFFCURVE",
"1041 504 OFFCURVE",
"1042 468 CURVE SMOOTH",
"1043 413 LINE SMOOTH",
"1043 357 OFFCURVE",
"1086 348 OFFCURVE",
"1131 392 CURVE SMOOTH",
"1420 682 LINE SMOOTH",
"1454 715 OFFCURVE",
"1454 750 OFFCURVE",
"1420 783 CURVE SMOOTH"
);
}
);
width = 1460;
}
);
unicode = ECD6;
},
{
color = 4;
glyphname = "uniECD7";
lastChange = "2013-04-19 10:15:09 -0800";
layers = (
{
guideLines = (
{
angle = 90;
position = "{1459, 1600}";
}
);
layerId = "ABCF47FB-41DD-418D-ADD0-B1CD0215F61B";
name = "Regular";
paths = (
{
closed = 1;
nodes = (
"36 803 LINE SMOOTH",
"12 778 OFFCURVE",
"1 754 OFFCURVE",
"1 718 CURVE SMOOTH",
"1 678 LINE SMOOTH",
"1 641 OFFCURVE",
"12 617 OFFCURVE",
"36 592 CURVE SMOOTH",
"322 297 LINE SMOOTH",
"365 252 OFFCURVE",
"408 270 OFFCURVE",
"408 333 CURVE SMOOTH",
"408 440 LINE SMOOTH",
"408 476 OFFCURVE",
"396 500 OFFCURVE",
"373 525 CURVE SMOOTH",
"259 649 LINE SMOOTH",
"228 682 OFFCURVE",
"228 715 OFFCURVE",
"259 748 CURVE SMOOTH",
"373 871 LINE SMOOTH",
"396 896 OFFCURVE",
"408 920 OFFCURVE",
"408 956 CURVE SMOOTH",
"408 1063 LINE SMOOTH",
"408 1125 OFFCURVE",
"365 1143 OFFCURVE",
"322 1098 CURVE SMOOTH"
);
},
{
closed = 1;
nodes = (
"530 149 LINE SMOOTH",
"521 101 OFFCURVE",
"545 74 OFFCURVE",
"594 74 CURVE SMOOTH",
"642 74 LINE SMOOTH",
"684 74 OFFCURVE",
"708 94 OFFCURVE",
"716 136 CURVE SMOOTH",
"940 1310 LINE SMOOTH",
"949 1358 OFFCURVE",
"925 1385 OFFCURVE",
"876 1385 CURVE SMOOTH",
"828 1385 LINE SMOOTH",
"786 1385 OFFCURVE",
"761 1365 OFFCURVE",
"753 1323 CURVE SMOOTH"
);
},
{
closed = 1;
nodes = (
"1138 1099 LINE SMOOTH",
"1095 1144 OFFCURVE",
"1052 1126 OFFCURVE",
"1052 1063 CURVE SMOOTH",
"1052 956 LINE SMOOTH",
"1052 920 OFFCURVE",
"1063 896 OFFCURVE",
"1087 871 CURVE SMOOTH",
"1201 748 LINE SMOOTH",
"1232 715 OFFCURVE",
"1232 682 OFFCURVE",
"1201 649 CURVE SMOOTH",
"1087 525 LINE SMOOTH",
"1064 499 OFFCURVE",
"1052 476 OFFCURVE",
"1052 440 CURVE SMOOTH",
"1052 333 LINE SMOOTH",
"1052 271 OFFCURVE",
"1095 253 OFFCURVE",
"1138 298 CURVE SMOOTH",
"1422 592 LINE SMOOTH",
"1446 617 OFFCURVE",
"1457 641 OFFCURVE",
"1459 677 CURVE SMOOTH",
"1460 718 LINE SMOOTH",
"1461 753 OFFCURVE",
"1450 778 OFFCURVE",
"1424 804 CURVE SMOOTH"
);
}
);
width = 1460;
}
);
unicode = ECD7;
},
{
color = 4;
glyphname = "uniECD9";
lastChange = "2013-04-23 16:17:42 -0800";
layers = (
{
guideLines = (
{
angle = 90;
position = "{1459, 1600}";
}
);
layerId = "ABCF47FB-41DD-418D-ADD0-B1CD0215F61B";
name = "Regular";
paths = (
{
closed = 1;
nodes = (
"184 1459 LINE SMOOTH",
"174 1459 OFFCURVE",
"162 1454 OFFCURVE",
"153 1445 CURVE SMOOTH",
"144 1436 OFFCURVE",
"139 1424 OFFCURVE",
"139 1414 CURVE SMOOTH",
"139 1139 LINE SMOOTH",
"139 1129 OFFCURVE",
"144 1117 OFFCURVE",
"153 1108 CURVE SMOOTH",
"162 1098 OFFCURVE",
"174 1094 OFFCURVE",
"184 1094 CURVE SMOOTH",
"230 1094 LINE SMOOTH",
"242 1094 OFFCURVE",
"252 1098 OFFCURVE",
"262 1108 CURVE SMOOTH",
"271 1117 OFFCURVE",
"275 1129 OFFCURVE",
"275 1139 CURVE",
"367 1277 LINE",
"641 1277 LINE",
"641 182 LINE",
"413 90 LINE",
"401 90 OFFCURVE",
"390 86 OFFCURVE",
"381 76 CURVE SMOOTH",
"372 67 OFFCURVE",
"367 56 OFFCURVE",
"367 44 CURVE SMOOTH",
"367 34 OFFCURVE",
"372 22 OFFCURVE",
"381 13 CURVE SMOOTH",
"390 4 OFFCURVE",
"401 -1 OFFCURVE",
"413 -1 CURVE SMOOTH",
"1052 -1 LINE SMOOTH",
"1062 -1 OFFCURVE",
"1074 4 OFFCURVE",
"1083 13 CURVE SMOOTH",
"1093 22 OFFCURVE",
"1097 34 OFFCURVE",
"1097 44 CURVE SMOOTH",
"1097 56 OFFCURVE",
"1093 67 OFFCURVE",
"1083 76 CURVE SMOOTH",
"1074 86 OFFCURVE",
"1062 90 OFFCURVE",
"1052 90 CURVE",
"823 182 LINE",
"823 1277 LINE",
"1097 1277 LINE",
"1189 1139 LINE",
"1189 1129 OFFCURVE",
"1193 1117 OFFCURVE",
"1201 1108 CURVE SMOOTH",
"1211 1098 OFFCURVE",
"1223 1094 OFFCURVE",
"1234 1094 CURVE SMOOTH",
"1279 1094 LINE SMOOTH",
"1291 1094 OFFCURVE",
"1302 1098 OFFCURVE",
"1311 1108 CURVE SMOOTH",
"1321 1117 OFFCURVE",
"1325 1129 OFFCURVE",
"1325 1139 CURVE SMOOTH",
"1325 1414 LINE SMOOTH",
"1325 1424 OFFCURVE",
"1321 1436 OFFCURVE",
"1311 1445 CURVE SMOOTH",
"1302 1454 OFFCURVE",
"1291 1459 OFFCURVE",
"1279 1459 CURVE SMOOTH"
);
}
);
width = 1460;
}
);
unicode = ECD9;
},
{
color = 4;
glyphname = "uniECE0";
lastChange = "2013-04-29 09:33:34 -0800";
layers = (
{
layerId = "ABCF47FB-41DD-418D-ADD0-B1CD0215F61B";
name = "Regular";
paths = (
{
closed = 1;
nodes = (
"0 74 LINE SMOOTH",
"0 31 OFFCURVE",
"35 0 OFFCURVE",
"83 0 CURVE SMOOTH",
"1387 0 LINE SMOOTH",
"1435 0 OFFCURVE",
"1470 31 OFFCURVE",
"1470 74 CURVE SMOOTH",
"1470 1386 LINE SMOOTH",
"1470 1429 OFFCURVE",
"1435 1460 OFFCURVE",
"1387 1460 CURVE SMOOTH",
"83 1460 LINE SMOOTH",
"35 1460 OFFCURVE",
"0 1429 OFFCURVE",
"0 1386 CURVE SMOOTH"
);
},
{
closed = 1;
nodes = (
"1047 1175 OFFCURVE",
"1075 1198 OFFCURVE",
"1103 1198 CURVE",
"1140 1198 OFFCURVE",
"1167 1172 OFFCURVE",
"1167 1133 CURVE SMOOTH",
"1168 314 LINE SMOOTH",
"1167 276 OFFCURVE",
"1140 251 OFFCURVE",
"1102 251 CURVE SMOOTH",
"1075 251 OFFCURVE",
"1050 263 OFFCURVE",
"1018 289 CURVE",
"602 660 LINE",
"572 688 OFFCURVE",
"563 702 OFFCURVE",
"563 725 CURVE SMOOTH",
"563 744 OFFCURVE",
"571 758 OFFCURVE",
"602 790 CURVE",
"1011 1144 LINE"
);
}
);
width = 1314;
}
);
unicode = ECE0;
},
{
color = 4;
glyphname = "uniECE1";
lastChange = "2013-04-29 09:34:31 -0800";
layers = (
{
layerId = "ABCF47FB-41DD-418D-ADD0-B1CD0215F61B";
name = "Regular";
paths = (
{
closed = 1;
nodes = (
"0 74 LINE SMOOTH",
"0 31 OFFCURVE",
"35 0 OFFCURVE",
"83 0 CURVE SMOOTH",
"1387 0 LINE SMOOTH",
"1435 0 OFFCURVE",
"1470 31 OFFCURVE",
"1470 74 CURVE SMOOTH",
"1470 1386 LINE SMOOTH",
"1470 1429 OFFCURVE",
"1435 1460 OFFCURVE",
"1387 1460 CURVE SMOOTH",
"83 1460 LINE SMOOTH",
"35 1460 OFFCURVE",
"0 1429 OFFCURVE",
"0 1386 CURVE SMOOTH"
);
},
{
closed = 1;
nodes = (
"858 790 LINE",
"889 758 OFFCURVE",
"897 744 OFFCURVE",
"897 725 CURVE SMOOTH",
"897 702 OFFCURVE",
"888 688 OFFCURVE",
"858 660 CURVE",
"442 289 LINE",
"410 263 OFFCURVE",
"385 251 OFFCURVE",
"358 251 CURVE SMOOTH",
"320 251 OFFCURVE",
"293 276 OFFCURVE",
"292 314 CURVE SMOOTH",
"293 1133 LINE SMOOTH",
"293 1172 OFFCURVE",
"320 1198 OFFCURVE",
"357 1198 CURVE",
"385 1198 OFFCURVE",
"413 1175 OFFCURVE",
"449 1144 CURVE"
);
}
);
width = 1314;
}
);
unicode = ECE1;
},
{
color = 4;
glyphname = "uniECE2";
lastChange = "2013-08-12 23:18:23 -0800";
layers = (
{
guideLines = (
{
angle = 180;
position = "{-100, 1460}";
}
);
layerId = "ABCF47FB-41DD-418D-ADD0-B1CD0215F61B";
name = "Regular";
paths = (
{
closed = 1;
nodes = (
"0 149 LINE SMOOTH",
"0 63 OFFCURVE",
"63 0 OFFCURVE",
"149 0 CURVE SMOOTH",
"1311 0 LINE SMOOTH",
"1397 0 OFFCURVE",
"1460 63 OFFCURVE",
"1460 149 CURVE SMOOTH",
"1460 1311 LINE SMOOTH",
"1460 1397 OFFCURVE",
"1397 1460 OFFCURVE",
"1311 1460 CURVE SMOOTH",
"149 1460 LINE SMOOTH",
"63 1460 OFFCURVE",
"0 1397 OFFCURVE",
"0 1311 CURVE SMOOTH"
);
},
{
closed = 1;
nodes = (
"788 1169 LINE SMOOTH",
"846 1169 OFFCURVE",
"887 1124 OFFCURVE",
"878 1067 CURVE SMOOTH",
"831 644 LINE",
"825 608 OFFCURVE",
"797 584 OFFCURVE",
"760 584 CURVE",
"695 584 LINE",
"658 584 OFFCURVE",
"630 608 OFFCURVE",
"624 644 CURVE",
"580 1067 LINE SMOOTH",
"570 1124 OFFCURVE",
"611 1169 OFFCURVE",
"670 1169 CURVE SMOOTH"
);
},
{
closed = 1;
nodes = (
"670 292 OFFCURVE",
"621 341 OFFCURVE",
"621 402 CURVE SMOOTH",
"621 462 OFFCURVE",
"670 511 OFFCURVE",
"730 511 CURVE SMOOTH",
"790 511 OFFCURVE",
"840 464 OFFCURVE",
"840 402 CURVE SMOOTH",
"840 341 OFFCURVE",
"790 292 OFFCURVE",
"730 292 CURVE SMOOTH"
);
}
);
width = 1460;
}
);
unicode = ECE2;
},
{
color = 4;
glyphname = "uniF000";
lastChange = "2013-08-14 17:13:46 -0800";
layers = (
{
hints = (
{
horizontal = 1;
place = "{1082.000000, 27.000000}";
}
);
layerId = "ABCF47FB-41DD-418D-ADD0-B1CD0215F61B";
name = "Regular";
paths = (
{
closed = 1;
nodes = (
"641 1104 OFFCURVE",
"530 1052 OFFCURVE",
"447 950 CURVE",
"447 1509 LINE",
"247 1509 LINE",
"247 0 LINE",
"447 0 LINE",
"447 616 LINE SMOOTH",
"447 794 OFFCURVE",
"565 918 OFFCURVE",
"735 918 CURVE SMOOTH",
"902 918 OFFCURVE",
"998 812 OFFCURVE",
"998 628 CURVE SMOOTH",
"998 0 LINE",
"1198 0 LINE",
"1198 666 LINE SMOOTH",
"1198 932 OFFCURVE",
"1034 1104 OFFCURVE",
"779 1104 CURVE SMOOTH"
);
},
{
closed = 1;
nodes = (
"2167 288 OFFCURVE",
"2049 164 OFFCURVE",
"1879 164 CURVE SMOOTH",
"1712 164 OFFCURVE",
"1615 269 OFFCURVE",
"1615 454 CURVE SMOOTH",
"1615 1082 LINE",
"1416 1082 LINE",
"1416 416 LINE SMOOTH",
"1416 150 OFFCURVE",
"1580 -22 OFFCURVE",
"1835 -22 CURVE SMOOTH",
"1973 -22 OFFCURVE",
"2083 29 OFFCURVE",
"2167 132 CURVE",
"2167 0 LINE",
"2365 0 LINE",
"2365 1082 LINE",
"2167 1082 LINE",
"2167 466 LINE SMOOTH"
);
},
{
closed = 1;
nodes = (
"3011 1104 OFFCURVE",
"2900 1052 OFFCURVE",
"2816 950 CURVE",
"2816 1082 LINE",
"2616 1082 LINE",
"2616 0 LINE",
"2816 0 LINE",
"2816 616 LINE SMOOTH",
"2816 794 OFFCURVE",
"2934 918 OFFCURVE",
"3104 918 CURVE SMOOTH",
"3272 918 OFFCURVE",
"3368 812 OFFCURVE",
"3368 628 CURVE SMOOTH",
"3368 0 LINE",
"3568 0 LINE",
"3568 666 LINE SMOOTH",
"3568 932 OFFCURVE",
"3403 1104 OFFCURVE",
"3148 1104 CURVE SMOOTH"
);
},
{
closed = 1;
nodes = (
"4783 1082 LINE",
"4528 1082 LINE",
"4000 533 LINE",
"4000 1509 LINE",
"3801 1509 LINE",
"3801 0 LINE",
"4000 0 LINE",
"4000 284 LINE",
"4186 471 LINE",
"4548 0 LINE",
"4790 0 LINE",
"4325 613 LINE"
);
},
{
closed = 1;
nodes = (
"4756 1291 LINE",
"4756 1309 LINE",
"4842 1309 LINE",
"4842 1291 LINE",
"4809 1291 LINE",
"4809 1202 LINE",
"4790 1202 LINE",
"4790 1291 LINE"
);
},
{
closed = 1;
nodes = (
"4881 1309 LINE",
"4914 1258 LINE",
"4946 1309 LINE",
"4966 1309 LINE",
"4966 1202 LINE",
"4947 1202 LINE",
"4947 1279 LINE",
"4914 1228 LINE",
"4914 1228 LINE",
"4880 1278 LINE",
"4880 1202 LINE",
"4861 1202 LINE",
"4861 1309 LINE"
);
}
);
width = 5016;
}
);
unicode = F000;
},
{
color = 4;
glyphname = "uniF001";
lastChange = "2013-08-13 18:24:41 -0800";
layers = (
{
hints = (
{
horizontal = 1;
place = "{1082.000000, 27.000000}";
}
);
layerId = "ABCF47FB-41DD-418D-ADD0-B1CD0215F61B";
name = "Regular";
paths = (
{
closed = 1;
nodes = (
"437 1104 OFFCURVE",
"209 857 OFFCURVE",
"209 542 CURVE SMOOTH",
"209 538 LINE SMOOTH",
"209 218 OFFCURVE",
"441 -24 OFFCURVE",
"749 -24 CURVE SMOOTH",
"931 -24 OFFCURVE",
"1068 38 OFFCURVE",
"1193 178 CURVE SMOOTH",
"1208 195 LINE",
"1079 311 LINE",
"1063 295 LINE SMOOTH",
"973 200 OFFCURVE",
"874 156 OFFCURVE",
"753 156 CURVE SMOOTH",
"576 156 OFFCURVE",
"442 278 OFFCURVE",
"414 461 CURVE",
"1230 461 LINE",
"1233 481 LINE SMOOTH",
"1235 501 OFFCURVE",
"1235 514 OFFCURVE",
"1235 534 CURVE SMOOTH",
"1235 870 OFFCURVE",
"1027 1104 OFFCURVE",
"729 1104 CURVE SMOOTH"
);
},
{
closed = 1;
nodes = (
"921 928 OFFCURVE",
"1010 774 OFFCURVE",
"1030 621 CURVE",
"414 621 LINE",
"441 803 OFFCURVE",
"566 928 OFFCURVE",
"725 928 CURVE SMOOTH"
);
},
{
closed = 1;
nodes = (
"1804 1104 OFFCURVE",
"1693 1053 OFFCURVE",
"1610 951 CURVE",
"1610 1082 LINE",
"1410 1082 LINE",
"1410 0 LINE",
"1610 0 LINE",
"1610 616 LINE SMOOTH",
"1610 794 OFFCURVE",
"1728 918 OFFCURVE",
"1898 918 CURVE SMOOTH",
"2066 918 OFFCURVE",
"2162 813 OFFCURVE",
"2162 628 CURVE SMOOTH",
"2162 0 LINE",
"2362 0 LINE",
"2362 666 LINE SMOOTH",
"2362 932 OFFCURVE",
"2197 1104 OFFCURVE",
"1942 1104 CURVE SMOOTH"
);
},
{
closed = 1;
nodes = (
"2649 1395 LINE",
"2649 1082 LINE",
"2505 1082 LINE",
"2505 900 LINE",
"2649 900 LINE",
"2649 298 LINE SMOOTH",
"2649 97 OFFCURVE",
"2764 -18 OFFCURVE",
"2965 -18 CURVE SMOOTH",
"3038 -18 OFFCURVE",
"3100 -3 OFFCURVE",
"3162 29 CURVE SMOOTH",
"3174 35 LINE",
"3174 218 LINE",
"3141 202 LINE SMOOTH",
"3091 178 OFFCURVE",
"3051 168 OFFCURVE",
"3001 168 CURVE SMOOTH",
"2897 168 OFFCURVE",
"2849 216 OFFCURVE",
"2849 318 CURVE SMOOTH",
"2849 900 LINE",
"3178 900 LINE",
"3178 1082 LINE",
"2849 1082 LINE",
"2849 1395 LINE"
);
},
{
closed = 1;
nodes = (
"3469 1104 OFFCURVE",
"3241 857 OFFCURVE",
"3241 542 CURVE SMOOTH",
"3241 538 LINE SMOOTH",
"3241 218 OFFCURVE",
"3473 -24 OFFCURVE",
"3781 -24 CURVE SMOOTH",
"3963 -24 OFFCURVE",
"4100 38 OFFCURVE",
"4225 178 CURVE SMOOTH",
"4240 195 LINE",
"4110 311 LINE",
"4095 295 LINE SMOOTH",
"4004 200 OFFCURVE",
"3906 156 OFFCURVE",
"3785 156 CURVE SMOOTH",
"3607 156 OFFCURVE",
"3474 278 OFFCURVE",
"3446 461 CURVE",
"4262 461 LINE",
"4265 481 LINE SMOOTH",
"4267 501 OFFCURVE",
"4267 514 OFFCURVE",
"4267 534 CURVE SMOOTH",
"4267 870 OFFCURVE",
"4059 1104 OFFCURVE",
"3761 1104 CURVE SMOOTH"
);
},
{
closed = 1;
nodes = (
"3952 928 OFFCURVE",
"4042 774 OFFCURVE",
"4062 621 CURVE",
"3446 621 LINE",
"3473 803 OFFCURVE",
"3598 928 OFFCURVE",
"3757 928 CURVE SMOOTH"
);
},
{
closed = 1;
nodes = (
"4642 1082 LINE",
"4442 1082 LINE",
"4442 0 LINE",
"4642 0 LINE",
"4642 436 LINE SMOOTH",
"4642 711 OFFCURVE",
"4794 888 OFFCURVE",
"5030 888 CURVE SMOOTH",
"5065 888 LINE",
"5065 1099 LINE",
"5043 1100 LINE SMOOTH",
"4879 1107 OFFCURVE",
"4735 1025 OFFCURVE",
"4642 880 CURVE"
);
},
{
closed = 1;
nodes = (
"5639 1104 OFFCURVE",
"5516 1044 OFFCURVE",
"5414 920 CURVE",
"5414 1082 LINE",
"5214 1082 LINE",
"5214 -321 LINE",
"5414 -321 LINE",
"5414 154 LINE",
"5513 37 OFFCURVE",
"5639 -22 OFFCURVE",
"5788 -22 CURVE SMOOTH",
"6039 -22 OFFCURVE",
"6306 175 OFFCURVE",
"6306 540 CURVE SMOOTH",
"6306 544 LINE SMOOTH",
"6306 908 OFFCURVE",
"6039 1104 OFFCURVE",
"5788 1104 CURVE SMOOTH"
);
},
{
closed = 1;
nodes = (
"5958 920 OFFCURVE",
"6102 761 OFFCURVE",
"6102 542 CURVE SMOOTH",
"6102 538 LINE SMOOTH",
"6102 317 OFFCURVE",
"5961 162 OFFCURVE",
"5760 162 CURVE SMOOTH",
"5587 162 OFFCURVE",
"5408 303 OFFCURVE",
"5408 540 CURVE SMOOTH",
"5408 544 LINE SMOOTH",
"5408 777 OFFCURVE",
"5590 920 OFFCURVE",
"5760 920 CURVE SMOOTH"
);
},
{
closed = 1;
nodes = (
"6695 1082 LINE",
"6495 1082 LINE",
"6495 0 LINE",
"6695 0 LINE",
"6695 436 LINE SMOOTH",
"6695 711 OFFCURVE",
"6847 888 OFFCURVE",
"7083 888 CURVE SMOOTH",
"7118 888 LINE",
"7118 1099 LINE",
"7096 1100 LINE SMOOTH",
"6933 1107 OFFCURVE",
"6788 1025 OFFCURVE",
"6695 880 CURVE"
);
},
{
closed = 1;
nodes = (
"7471 0 LINE",
"7471 1082 LINE",
"7271 1082 LINE",
"7271 0 LINE"
);
},
{
closed = 1;
nodes = (
"7483 1263 LINE",
"7483 1479 LINE",
"7261 1479 LINE",
"7261 1263 LINE"
);
},
{
closed = 1;
nodes = (
"8139 637 LINE SMOOTH",
"8012 676 OFFCURVE",
"7892 712 OFFCURVE",
"7892 793 CURVE SMOOTH",
"7892 797 LINE SMOOTH",
"7892 873 OFFCURVE",
"7964 924 OFFCURVE",
"8070 924 CURVE SMOOTH",
"8162 924 OFFCURVE",
"8269 889 OFFCURVE",
"8364 828 CURVE SMOOTH",
"8384 815 LINE",
"8478 970 LINE",
"8459 982 LINE SMOOTH",
"8347 1056 OFFCURVE",
"8203 1100 OFFCURVE",
"8074 1100 CURVE SMOOTH",
"7853 1100 OFFCURVE",
"7698 969 OFFCURVE",
"7698 781 CURVE SMOOTH",
"7698 777 LINE SMOOTH",
"7698 564 OFFCURVE",
"7906 505 OFFCURVE",
"8058 462 CURVE SMOOTH",
"8195 424 OFFCURVE",
"8300 388 OFFCURVE",
"8300 302 CURVE SMOOTH",
"8300 298 LINE SMOOTH",
"8300 213 OFFCURVE",
"8223 156 OFFCURVE",
"8108 156 CURVE SMOOTH",
"7994 156 OFFCURVE",
"7874 200 OFFCURVE",
"7763 284 CURVE SMOOTH",
"7744 298 LINE",
"7640 151 LINE",
"7657 137 LINE SMOOTH",
"7776 40 OFFCURVE",
"7946 -20 OFFCURVE",
"8100 -20 CURVE SMOOTH",
"8334 -20 OFFCURVE",
"8492 114 OFFCURVE",
"8492 314 CURVE SMOOTH",
"8492 318 LINE SMOOTH",
"8492 531 OFFCURVE",
"8282 594 OFFCURVE",
"8143 636 CURVE SMOOTH"
);
},
{
closed = 1;
nodes = (
"8847 1104 OFFCURVE",
"8619 857 OFFCURVE",
"8619 542 CURVE SMOOTH",
"8619 538 LINE SMOOTH",
"8619 218 OFFCURVE",
"8851 -24 OFFCURVE",
"9159 -24 CURVE SMOOTH",
"9340 -24 OFFCURVE",
"9477 38 OFFCURVE",
"9603 178 CURVE SMOOTH",
"9618 195 LINE",
"9488 311 LINE",
"9473 295 LINE SMOOTH",
"9382 200 OFFCURVE",
"9284 156 OFFCURVE",
"9163 156 CURVE SMOOTH",
"8985 156 OFFCURVE",
"8852 278 OFFCURVE",
"8824 461 CURVE",
"9640 461 LINE",
"9642 481 LINE SMOOTH",
"9645 501 OFFCURVE",
"9645 514 OFFCURVE",
"9645 534 CURVE SMOOTH",
"9645 870 OFFCURVE",
"9437 1104 OFFCURVE",
"9139 1104 CURVE SMOOTH"
);
},
{
closed = 1;
nodes = (
"9330 928 OFFCURVE",
"9420 774 OFFCURVE",
"9440 621 CURVE",
"8824 621 LINE",
"8851 803 OFFCURVE",
"8976 928 OFFCURVE",
"9135 928 CURVE SMOOTH"
);
}
);
width = 9695;
}
);
unicode = F001;
},
{
color = 5;
export = 0;
glyphname = "Document";
lastChange = "2013-04-11 08:30:36 -0800";
layers = (
{
layerId = "ABCF47FB-41DD-418D-ADD0-B1CD0215F61B";
name = "Regular";
paths = (
{
closed = 1;
nodes = (
"0 74 LINE SMOOTH",
"0 31 OFFCURVE",
"31 0 OFFCURVE",
"74 0 CURVE SMOOTH",
"1167 0 LINE SMOOTH",
"1210 0 OFFCURVE",
"1241 31 OFFCURVE",
"1241 74 CURVE SMOOTH",
"1241 1168 LINE SMOOTH",
"949 1460 LINE SMOOTH",
"74 1460 LINE SMOOTH",
"31 1460 OFFCURVE",
"0 1429 OFFCURVE",
"0 1386 CURVE SMOOTH"
);
},
{
closed = 1;
nodes = (
"145 1283 OFFCURVE",
"176 1314 OFFCURVE",
"219 1314 CURVE SMOOTH",
"803 1314 LINE",
"803 1022 LINE",
"1095 1022 LINE",
"1095 219 LINE SMOOTH",
"1095 176 OFFCURVE",
"1064 145 OFFCURVE",
"1021 145 CURVE SMOOTH",
"219 145 LINE SMOOTH",
"176 145 OFFCURVE",
"145 176 OFFCURVE",
"145 219 CURVE SMOOTH",
"145 1240 LINE SMOOTH"
);
},
{
closed = 1;
nodes = (
"1117 1095 LINE SMOOTH",
"876 1095 LINE",
"876 1329 LINE"
);
}
);
width = 1241;
}
);
},
{
color = 5;
export = 0;
glyphname = "Panel";
lastChange = "2013-04-11 08:30:36 -0800";
layers = (
{
layerId = "ABCF47FB-41DD-418D-ADD0-B1CD0215F61B";
name = "Regular";
paths = (
{
closed = 1;
nodes = (
"0 74 LINE SMOOTH",
"0 31 OFFCURVE",
"31 0 OFFCURVE",
"74 0 CURVE SMOOTH",
"1386 0 LINE SMOOTH",
"1429 0 OFFCURVE",
"1460 31 OFFCURVE",
"1460 74 CURVE SMOOTH",
"1460 1386 LINE SMOOTH",
"1460 1429 OFFCURVE",
"1429 1460 OFFCURVE",
"1386 1460 CURVE SMOOTH",
"74 1460 LINE SMOOTH",
"31 1460 OFFCURVE",
"0 1429 OFFCURVE",
"0 1386 CURVE SMOOTH"
);
},
{
closed = 1;
nodes = (
"146 1283 OFFCURVE",
"177 1314 OFFCURVE",
"220 1314 CURVE SMOOTH",
"1240 1314 LINE SMOOTH",
"1283 1314 OFFCURVE",
"1314 1283 OFFCURVE",
"1314 1240 CURVE SMOOTH",
"1314 220 LINE SMOOTH",
"1314 177 OFFCURVE",
"1283 146 OFFCURVE",
"1240 146 CURVE SMOOTH",
"220 146 LINE SMOOTH",
"177 146 OFFCURVE",
"146 177 OFFCURVE",
"146 220 CURVE SMOOTH",
"146 1240 LINE SMOOTH"
);
},
{
closed = 1;
nodes = (
"146 1095 LINE",
"1314 1095 LINE",
"1314 1168 LINE",
"146 1168 LINE SMOOTH"
);
}
);
width = 1460;
}
);
},
{
color = 1;
export = 0;
glyphname = "uniEC55";
lastChange = "2013-03-14 08:40:06 -0800";
layers = (
{
layerId = "ABCF47FB-41DD-418D-ADD0-B1CD0215F61B";
name = "Regular";
paths = (
{
closed = 1;
nodes = (
"1099.88 948 OFFCURVE",
"1085.94 947.196 OFFCURVE",
"1072.23 945.63 CURVE",
"1012.24 1115.98 OFFCURVE",
"849.939 1238 OFFCURVE",
"659 1238 CURVE SMOOTH",
"417 1238 OFFCURVE",
"221 1042 OFFCURVE",
"221 800 CURVE SMOOTH",
"221 775.094 OFFCURVE",
"223.077 750.675 OFFCURVE",
"227.065 726.906 CURVE",
"90.255 723.216 OFFCURVE",
"-20 610.681 OFFCURVE",
"-20 473 CURVE SMOOTH",
"-20 333 OFFCURVE",
"94 219 OFFCURVE",
"234 219 CURVE SMOOTH",
"234 219 OFFCURVE",
"1114 219 OFFCURVE",
"1114 219 CURVE SMOOTH",
"1315 219 OFFCURVE",
"1478 382 OFFCURVE",
"1478 584 CURVE SMOOTH",
"1478 785 OFFCURVE",
"1315 948 OFFCURVE",
"1114 948 CURVE SMOOTH"
);
},
{
closed = 1;
nodes = (
"730 903 LINE",
"1022 584 LINE",
"876 584 LINE",
"876 219 LINE",
"584 219 LINE",
"584 584 LINE",
"438 584 LINE"
);
}
);
width = 1458;
}
);
unicode = EC55;
},
{
color = 4;
export = 0;
glyphname = "uniEC83";
lastChange = "2013-04-11 08:30:34 -0800";
layers = (
{
layerId = "ABCF47FB-41DD-418D-ADD0-B1CD0215F61B";
name = "Regular";
paths = (
{
closed = 1;
nodes = (
"1329 886 OFFCURVE",
"1460 1017 OFFCURVE",
"1460 1178 CURVE SMOOTH",
"1460 1339 OFFCURVE",
"1329 1470 OFFCURVE",
"1168 1470 CURVE SMOOTH",
"1007 1470 OFFCURVE",
"876 1339 OFFCURVE",
"876 1178 CURVE SMOOTH",
"876 1017 OFFCURVE",
"1007 886 OFFCURVE",
"1168 886 CURVE SMOOTH"
);
},
{
closed = 1;
nodes = (
"1329 0 OFFCURVE",
"1460 131 OFFCURVE",
"1460 292 CURVE SMOOTH",
"1460 453 OFFCURVE",
"1329 584 OFFCURVE",
"1168 584 CURVE SMOOTH",
"1007 584 OFFCURVE",
"876 453 OFFCURVE",
"876 292 CURVE SMOOTH",
"876 131 OFFCURVE",
"1007 0 OFFCURVE",
"1168 0 CURVE SMOOTH"
);
},
{
closed = 1;
nodes = (
"453 438 OFFCURVE",
"584 569 OFFCURVE",
"584 730 CURVE SMOOTH",
"584 891 OFFCURVE",
"453 1022 OFFCURVE",
"292 1022 CURVE SMOOTH",
"131 1022 OFFCURVE",
"0 891 OFFCURVE",
"0 730 CURVE SMOOTH",
"0 569 OFFCURVE",
"131 438 OFFCURVE",
"292 438 CURVE SMOOTH"
);
},
{
closed = 1;
nodes = (
"367 649 LINE",
"1215 1075 LINE SMOOTH",
"1116 1271 LINE",
"268 844 LINE"
);
},
{
closed = 1;
nodes = (
"1116 197 LINE",
"1215 393 LINE SMOOTH",
"367 819 LINE",
"268 624 LINE"
);
}
